<svg xmlns="http://www.w3.org/2000/svg" viewBox="0 0 500 500"><path d="M464.5 130.56q-2.38-4-5-7.9c-23.17-34.35-63.06-57.84-102.3-68.46a231.87 231.87 0 0 0-52.71-7.69c-116.62-3.95-163.07 88-201.61 111.67S5 222.42 9 307.41s65.22 165 183.81 170S319.31 429 385.52 409.2c43.82-13.08 75-57.26 90.2-98.09 20.78-55.64 19.8-127.91-11.22-180.55Z" style="fill:#92e3a9"/><path d="M464.5 130.56q-2.38-4-5-7.9c-23.17-34.35-63.06-57.84-102.3-68.46a231.87 231.87 0 0 0-52.71-7.69c-116.62-3.95-163.07 88-201.61 111.67S5 222.42 9 307.41s65.22 165 183.81 170S319.31 429 385.52 409.2c43.82-13.08 75-57.26 90.2-98.09 20.78-55.64 19.8-127.91-11.22-180.55Z" style="fill:#fff;opacity:.7000000000000001"/><path d="M420 300.05h42v17h-42zM283.38 162.8h42v17h-42zM257.51 188.48h42v17h-42zM285.96 75.64h42v17h-42zM252 281.81h42v17h-42zM169.2 130.01h42v17h-42zM215.2 130.01h42v17h-42zM180 407.52h42v17h-42zM158 428.52h42v17h-42z" style="opacity:.2"/><path d="M234.51 211.98h42v17h-42zM172.38 87.72h42v17h-42zM444 340.81h42v17h-42zM198 366.81h42v17h-42zM246 366.81h42v17h-42zM250 342.81h42v17h-42zM282.51 211.98h42v17h-42z" style="opacity:.1"/><path d="M304 426.81h42v17h-42z" style="opacity:.2"/><path d="M281 450.31h42v17h-42zM329 450.31h42v17h-42z" style="opacity:.1"/><path d="M100.39 215.22h42v17h-42z" style="opacity:.2"/><path d="M77.39 238.72h42v17h-42zM125.39 238.72h42v17h-42z" style="opacity:.1"/><path d="M84 341.81h42v17H84z" style="opacity:.2"/><path d="M270 260.52h42v17h-42zM207 427.52h42v17h-42zM193.2 109.01h42v17h-42z" style="opacity:.1"/><path d="M60 285.52h42v17H60z" style="opacity:.2"/><path d="M84 264.52h42v17H84zM191 162.31h42v17h-42zM129.77 172.29h42v17h-42z" style="opacity:.1"/><path d="M337 300.05h42v17h-42zM30.53 394.08h42v17h-42z" style="opacity:.2"/><path d="M12.39 155.22h42v17h-42zM60.39 155.22h42v17h-42zM64.39 131.22h42v17h-42zM33 199.52h42v17H33z" style="opacity:.1"/><path d="M87.53 411.58h42v17h-42z" style="opacity:.2"/><g style="opacity:.30000000000000004"><path d="M327.3 25.5v239.83h151V25.5Zm145.47 57.61h-66.55V34.23h66.55Zm-66.55 65.15h66.55v52.37h-66.55Zm0-6.39V89.5h66.55v52.37ZM332.79 34.23h66.55v48.88h-66.21v6.39h66.21v52.37h-66.21v6.39h66.21v52.37h-66.21V207h66.21v49.6h-66.55Zm73.43 222.37V207h66.55v49.6ZM389.8 48.84l-33.57 27.79M456.37 103.25l-33.58 27.79M380.54 220.76l-33.57 27.78M372.19 56.95l-15.38 12.73M453.81 96.89l-15.39 12.73M378.56 229.44l-15.39 12.74M373.93 168.08l-15.39 12.74M452.65 221.92l-15.39 12.73" style="fill:none;stroke:#000;stroke-linecap:round;stroke-linejoin:round"/><path d="M318.6 265.17h169.02v21H318.6z" style="fill:none;stroke:#000;stroke-linecap:round;stroke-linejoin:round"/></g><g style="opacity:.30000000000000004"><path d="m78.84 117.78.62-6.04H39.43l.62 6.04h38.79z" style="fill:none;stroke:#000;stroke-linecap:round;stroke-linejoin:round"/><path d="M77.2 133.67H41.69L37.25 90.7h44.38l-4.43 42.97z" style="fill:none;stroke:#000;stroke-linecap:round;stroke-linejoin:round"/><path d="M44.5 90.39a23.93 23.93 0 0 1-10.87-5.24c-5.24-4.43-14.5-5.64-17.73-3.22a71.2 71.2 0 0 0-6.44 5.64s2.42-8.86 8.86-10.88 10.47 0 14.1 1.61 5.24 2.82 9.27 5.24A57.21 57.21 0 0 1 48.13 88s-1.21-5.23-3.63-7.65-16.91-12.92-16.91-12.92a92.89 92.89 0 0 1 13.29 4.43c5.24 2.42 9.26 6.85 9.67 8.86a37.14 37.14 0 0 0 2 5.64l1.61 4s-.4-6-.8-10.47-1.21-7.26-.81-11.69 1.21-7.25 1.21-9.66A12.52 12.52 0 0 1 55 53.73S56.59 65 57.4 68.64s.8 8.46 1.2 10.87 1.62 9.67 1.62 9.67-.81-6 1.61-9.26 3.22-5.64 4.83-8.06 3.63-6.45 3.63-6.45 0 6.45-1.62 10.48-2.82 6-2.82 7.65v5.64s4-7.25 6.45-9.26 4-2 4.83-3.23 5.64-4 5.64-4-2.77 6.42-3.62 7.63a53.53 53.53 0 0 1-4.84 4.83 67.93 67.93 0 0 1 8.87-3.62c4-1.21 10.07-2.42 12.48-2.42s10.48-1.21 10.48-1.21-7.25 3.22-11.68 4.84-7.26 2.41-8.87 2.82L84 86a65 65 0 0 1 11.28 2.82c5.64 2 7.25 3.62 8.06 4.83a11.12 11.12 0 0 1 1.21 3.22s2.41 2 2.41 3.63S96.07 92.81 92 91.6s-10.41-.9-10.41-.9" style="fill:none;stroke:#000;stroke-linecap:round;stroke-linejoin:round"/></g><g style="opacity:.30000000000000004"><path d="m104.04 148.2-.42-4.09h27.13l-.43 4.09h-26.28z" style="fill:none;stroke:#000;stroke-linecap:round;stroke-linejoin:round"/><path d="M105.16 158.97h24.05l3.01-29.12h-30.07l3.01 29.12z" style="fill:none;stroke:#000;stroke-linecap:round;stroke-linejoin:round"/><path d="M127.31 129.64a16 16 0 0 0 7.36-3.55c3.55-3 9.83-3.82 12-2.18a47.66 47.66 0 0 1 4.37 3.82s-1.64-6-6-7.37-7.1 0-9.56 1.09a50.72 50.72 0 0 0-6.27 3.55 38.76 38.76 0 0 0-4.37 3s.82-3.54 2.46-5.18 11.46-8.74 11.46-8.74a63.37 63.37 0 0 0-9 3c-3.55 1.63-6.28 4.64-6.55 6a25 25 0 0 1-1.36 3.82l-1.1 2.73s.28-4.09.55-7.1.82-4.91.55-7.91-.82-4.91-.82-6.55a8.48 8.48 0 0 0-.82-3.28s-1.09 7.65-1.64 10.1-.54 5.73-.82 7.37-1.09 6.55-1.09 6.55.55-4.09-1.09-6.28-2.18-3.82-3.28-5.45-2.45-4.37-2.45-4.37a23.77 23.77 0 0 0 1.09 7.1c1.09 2.72 1.91 4.09 1.91 5.18v3.82s-2.73-4.91-4.37-6.28-2.73-1.36-3.27-2.18-3.82-2.73-3.82-2.73 1.91 4.37 2.45 5.19a36.29 36.29 0 0 0 3.28 3.27 46.27 46.27 0 0 0-6-2.45 41.07 41.07 0 0 0-8.47-1.63c-1.64 0-7.09-.82-7.09-.82s4.91 2.18 7.91 3.28 4.91 1.63 6 1.91l1.09.27a44.07 44.07 0 0 0-7.65 1.91c-3.82 1.36-4.91 2.46-5.45 3.27a7.3 7.3 0 0 0-.82 2.19S85 135.37 85 136.46s7.37-5.18 10.1-6a26.32 26.32 0 0 1 7.05-.61" style="fill:none;stroke:#000;stroke-linecap:round;stroke-linejoin:round"/></g><g style="opacity:.30000000000000004"><path d="m156.27 79.31.48-4.7h-31.11l.48 4.7h30.15z" style="fill:none;stroke:#000;stroke-linecap:round;stroke-linejoin:round"/><path d="M154.99 91.66H127.4l-3.45-33.4h34.49l-3.45 33.4zM124 58.26s-3.84-3.77-6.07-4.73-6.44-2.53-6.44-2.53 5.11 0 8.62 1.6a67.85 67.85 0 0 1 7 3.83s-3.2-4.47-5.75-7.66-8.31-8.63-8.62-10.22 7.66 5.43 13.09 9.58 6.39 7 6.39 7-4.15-7.67-7.35-14.38a66.84 66.84 0 0 0-7-11.81c-1-1.28 9.26 10.54 12.77 16.29s5.75 9.26 5.75 9.26-3.83-19.17-4.47-23.64l-1.28-8.94s6.07 17.57 7 20.76 2.55 8.94 2.55 8.94 1.92-9.26 2.56-15 3.51-14 3.51-14-1.26 17.82-1.55 22.3l-.64 8.94s3.19-8.31 6.07-12.14a106.61 106.61 0 0 1 8-8.94s-5.45 10.23-6.73 13.41-2.87 9-2.87 9 6.39-9.9 9.26-13.1a34.32 34.32 0 0 1 8.31-6.39c2.55-1.59-8 11.18-9.27 14.06a49.23 49.23 0 0 1-2.84 5.38s1.92-2.56 7-4.48a86.65 86.65 0 0 1 15.33-3.83c1.28 0-8 3.83-11.18 5.11s-6.71 6.33-6.71 6.33" style="fill:none;stroke:#000;stroke-linecap:round;stroke-linejoin:round"/></g><ellipse cx="351.2" cy="169.93" rx="27.57" ry="36.34" style="fill:#92e3a9;stroke:#263238;stroke-linecap:round;stroke-linejoin:round" transform="rotate(-76.16 351.19 169.936)"/><path d="M330.64 181.86s-7.21 2-10.49-2 1.64-15.41 7.05-20.66 20.66-7.54 28.53-6.72 17.21 6.72 18.53 13-1.32 12.3-1.48 14.26-4.76 2-5.41 1-10.49-15.41-12.46-16.07-3.28.66-5.41 1.8-18.36 8-18.36 8Z" style="fill:#263238;stroke:#263238;stroke-linecap:round;stroke-linejoin:round"/><path d="m354.52 346.41-3.24-21.05-7.44 25.58h0a57.1 57.1 0 0 0-4.91 10.14c-1.85 5.86 7.48 24.32 8.09 22.37s4.13-27 4.13-27a39.36 39.36 0 0 0 .36-7.68Z" style="fill:#fff;stroke:#263238;stroke-linecap:round;stroke-linejoin:round"/><path d="M350.2 361.3s-6.74 2.3-6.74 16.61c0 3.9 5.56 44.89 5.56 51.75v28.44h37.24l4.59-27 3.45 26.43h37.35s3.73-41.65 4-46.82 2.87-16.38 2-31.89-4.31-21.55-4.31-21.55L351 355.82Z" style="fill:#263238;stroke:#263238;stroke-linecap:round;stroke-linejoin:round"/><path d="M357.11 217.16s-17.55 15-21.35 19.05-2.31 27.66 2.73 43.79 10.4 41.08 10.65 46.12 1.06 35.18 1.06 35.18 31.32 12.36 50.48 9.33a101.69 101.69 0 0 0 32.77-11.09s-3-51.68-3-63-2.52-48.9-5-62-11.34-20.92-17.9-21.68-31.14-1.86-31.14-1.86Z" style="fill:#fff;stroke:#263238;stroke-linecap:round;stroke-linejoin:round"/><path d="M348.25 213.62s7.92 22.22 9.24 22.44 4.84-3.3 4.84-3.3L376.41 211l-5.6-20.11s-3.2 10.64-9.36 17.46-13.2 5.27-13.2 5.27Z" style="fill:#fff;stroke:#263238;stroke-linecap:round;stroke-linejoin:round"/><path d="m363.55 209.27-10.39 16.08-4.91-11.73 15.3-4.35z" style="fill:#263238;stroke:#263238;stroke-linecap:round;stroke-linejoin:round"/><path d="M354.42 158.57s-9 7.22-16.23 9.84-10.83 3.59-10.83 3.59 2.3 14.59 3 18.69 2.13 11 5.08 13.94 10.16 10 13.44 11.8 8.86.33 10.5-.49 11.14-15.25 11.64-17.22-.17-7.87-.17-7.87 4.26-2.29 4.92-4.59-.82-10.82-2.13-12-3.44.17-3.77 1.48a21.34 21.34 0 0 1-1.31 3.28 14.13 14.13 0 0 0-1.48-5.58c-1.31-2.13-1.31-3-4.43-5.41s-8.23-9.46-8.23-9.46Z" style="fill:#fff;stroke:#263238;stroke-linecap:round;stroke-linejoin:round"/><path d="m343.43 190.87.49 4.43s5.41-.16 7.87-2.79M341 199.89s3.94 1.31 10-.49 7.55-6.07 7.55-6.07M339.82 179.89s-7.05-2.3-9.18 2M347 177.27s4.75-4.76 9.67-3" style="fill:none;stroke:#263238;stroke-linecap:round;stroke-linejoin:round"/><path d="M339.09 186.19c.47 1.27.33 2.5-.31 2.73s-1.53-.61-2-1.89-.32-2.5.32-2.73 1.53.61 1.99 1.89ZM354.35 181.5c.47 1.28.33 2.5-.31 2.74s-1.53-.62-2-1.89-.33-2.5.31-2.73 1.53.61 2 1.88Z" style="fill:#263238"/><path d="M391.6 240.56 406 292a8.5 8.5 0 0 0-.25 4 25.85 25.85 0 0 1 .75 2.77s-4 20.17-7.56 32.52-16.13 39.32-15.63 42.35-2.52 25.71-1 26.72 5.05 2.52 6.05 2.52 5.55.5 7.06.5 7.06-.25 8.07-2.27.76-3.27-.76-2.77a24.35 24.35 0 0 1-4 .76l-1-2s1.26-8.82 0-15.38-1.76-8.82-1.76-8.82 31.51-51.17 32.77-60.75 3.27-20.17 3.27-25-5-47.89-6.55-52.68-2.27-9.58-6.3-13.61-6.81-4-8.83-4" style="fill:#fff;stroke:#263238;stroke-linecap:round;stroke-linejoin:round"/><path d="M408.5 297.41s7.4-3.08 13.72-.3M413.28 291.86s8.48-2 13.88 4.32" style="fill:none;stroke:#263238;stroke-linecap:round;stroke-linejoin:round"/><path d="M401.29 322.21c-.78 3.21-1.59 6.35-2.38 9.1-3.53 12.35-16.13 39.32-15.63 42.35s-2.52 25.71-1 26.72 5.05 2.52 6.05 2.52 5.55.5 7.06.5 7.06-.25 8.07-2.27.76-3.27-.76-2.77a24.35 24.35 0 0 1-4 .76l-1-2s1.26-8.82 0-15.38-1.76-8.82-1.76-8.82S411 348.31 420.74 330c-6.28-6.5-14.2-7.79-19.45-7.79Z" style="fill:#fff;stroke:#263238;stroke-linecap:round;stroke-linejoin:round"/><path d="M392.51 398.73s2.5 2.12 3.37 2.79 1.15 1.35 2.78 1.54M387.61 400s3.75 2.79 6.05 3.37M383.48 399.4a11.78 11.78 0 0 0 3.65 3.18M350.1 355.09s.92 6.77 1.28 7.87-.18 3.11.19 7.31 1.46 8.6-1.28 7.87-4-7.87-3.85-9.7-3.11-7.31-3.11-7.31" style="fill:#fff;stroke:#263238;stroke-linecap:round;stroke-linejoin:round"/><path d="M296.82 318c-2.56-4.9-21.57-72.29-21.57-72.29-3.58 9.81-5.87 58.18-5.87 58.18l2.08 25.65-.37 4.81c5-3.41 17.14-10.13 25.23-1.18.12-.47.22-.87.27-1.18 1.05-6.49 2.79-9.12.23-13.99Z" style="fill:#92e3a9;stroke:#263238;stroke-linecap:round;stroke-linejoin:round"/><path d="M290.69 324.46a15.77 15.77 0 0 1 3.72 1.09M272.86 326.83a44.5 44.5 0 0 1 13.14-2.68M293.16 321.76s-5.6-3.4-10.1-2.06" style="fill:none;stroke:#263238;stroke-linecap:round;stroke-linejoin:round"/><path d="m179.61 457.43 1.19-51.38 3.65-28.19 84.99-2.9 7.57 20.21 4.67 62.93h-43.02l-8.12-41.68-2.33 4.01-.89 36.78-47.71.22z" style="fill:#263238;stroke:#263238;stroke-linecap:round;stroke-linejoin:round"/><path d="M206.38 236.1s-37 9.8-39.27 10.92 2.72 34.77 6.22 47 12 57.28 12 57.28l-.57 32.54s36.31.9 50.84-.89a290.33 290.33 0 0 0 30.4-5.76s5.15-28.76 3.38-47.7 3.39-66 3.46-69.1 2.37-14.71 2.37-14.71-27.66-8.47-34.77-9.36a190.37 190.37 0 0 0-34.06-.22Z" style="fill:#92e3a9;stroke:#263238;stroke-linecap:round;stroke-linejoin:round"/><path d="M199.41 244.4s4.61 12.71 15.5 20.3M237.59 242.15a79.6 79.6 0 0 1-5.16 10.25M231.75 255.06l-1.91 2.67M218.42 380.25c8.6-.51 24.37-1.89 34.61-5.47M212.3 380.52s1 0 2.67-.1M247.72 371c-11.29 1.47-28.41 2.8-41.74-.08M259.73 369s-2.85.59-7.43 1.28M258.79 353.37c-6.83 4-19.88 10.68-32.81 12.8M263.67 350.39s-.92.62-2.56 1.61" style="fill:none;stroke:#263238;stroke-linecap:round;stroke-linejoin:round"/><path d="m201.15 223.29 1.55 17.89s5.47 13 18.2 12.13c12.47-.82 14.32-16.7 14.32-16.7l-2.52-18.89s-11 9.15-17.11 8.35-14.44-2.78-14.44-2.78Z" style="fill:#fff;stroke:#263238;stroke-linecap:round;stroke-linejoin:round"/><path d="M188.47 202.1s-2.27-2.89-4-.28.32 9.63 3.45 11.15 3.95 1.51 3.95 1.51 3.55 7 5.42 9.08 15.55 11.84 18.84 12.44 8-.42 9.83-2.34 7.66-15.14 8.56-18.3 1.06-3.86 1.1-5.78-.05-3.58-.05-3.58 3.28-4.82 3.65-8.67-.52-6.74-2.57-7.29-4.36 3.57-4.36 3.57l-6.91-21.19s-2.38-5.83-4.38-6.52-16.81 1.11-23.07 3.72-12.37 5.37-12.86 8.26 3.4 24.22 3.4 24.22Z" style="fill:#fff;stroke:#263238;stroke-linecap:round;stroke-linejoin:round"/><path d="M199.79 172.44s-11.82 2.35-12.51 4.27-1.63 5.56-.41 8.34 2.58 17.1 2.58 17.1 1.81 4.49.54 3.84-2.2-6-2.61-6.62-5.72-10.9-7.34-14.75 1.89-7.48 2.77-8.34a17.6 17.6 0 0 0 1.76-2.13s-.92-6.2 1.93-9 23.47-7 25.19-7.7 3.52-4.27 5-5.13 6 1.29 8.6 6.63 2.4 6.84 1.52 7.91L226 168s3 .43 4.17 4.49 2.8 7.9 2.72 11.11-.55 9.37-.57 10-.74 0-1.33-2.1-6-17.74-6.8-19.45a41.17 41.17 0 0 0-2.25-4.06c-.44-.68-17.94.01-22.15 4.45Z" style="fill:#263238;stroke:#263238;stroke-linecap:round;stroke-linejoin:round"/><path d="M216.13 236c3.29.55 8-.42 9.83-2.34s7.66-15.14 8.56-18.3 1.06-3.86 1.1-5.78-.05-3.58-.05-3.58l-2.9-13-.25.39c.33 4 .93 11.76.81 12.87a4.56 4.56 0 0 1-3.53 3.44c-1.66.28-9.47-1-12.92-.68s-4.57 1.51-7.22 2.89-8.1 4.67-9.48 5.09-4-.55-5.05-1.93-5.58-12.88-5.58-12.88a6.71 6.71 0 0 1-.76 2.15l3.19 10.18s3.55 7 5.42 9.08 15.54 11.8 18.83 12.4Z" style="fill:#263238;stroke:#263238;stroke-linecap:round;stroke-linejoin:round"/><path d="M214.5 189.57s-2.26 2.62-1.87 3.44 5.53 16 5.35 17.62-2.4 2.47-4.17 1.92-2.9-5.5-2.9-5.5" style="fill:#fff;stroke:#263238;stroke-linecap:round;stroke-linejoin:round"/><path d="M216.88 188.2s4.89-3.44 9.24-1.1M204 191.22s-7.52-1.65-10.83 4.13" style="fill:none;stroke:#263238;stroke-linecap:round;stroke-linejoin:round;stroke-width:3px"/><path d="M203.24 198.25c.27 1.14-.08 2.22-.78 2.4s-1.49-.59-1.76-1.73.07-2.21.77-2.4 1.53.59 1.77 1.73ZM221.32 193.51c.27 1.14-.08 2.21-.78 2.39s-1.49-.59-1.76-1.73.07-2.21.77-2.39 1.5.59 1.77 1.73Z" style="fill:#263238;stroke:#263238;stroke-linecap:round;stroke-linejoin:round"/><path d="M208.56 219.16s9.58 1.79 15.24-4.54" style="fill:none;stroke:#858585;stroke-linecap:round;stroke-linejoin:round"/><path d="M296.59 332c0 .14-.06.31-.1.48.04-.21.07-.38.1-.48Z" style="fill:none;stroke:#263238;stroke-linecap:round;stroke-linejoin:round"/><path d="M296.32 333.14c-8.09-8.95-20.27-2.23-25.23 1.18L268.51 358l-1.22 4.46s-9.16 9.8-10.32 11.81a17.83 17.83 0 0 1-4.35 4.68c-1.36 1.12-4.28 2-4.54 3.34s4.19 2 5.54 1.34 4.79-4.23 4.79-4.23l-2.15 5.79 17.42 7.58s1-5.13 1.54-8.25 1.37-10.47 1.63-11.81 17.73-32.13 19.62-40.19ZM167.11 247s-4.56 4.23-5.55 8.47-16.12 57.24-19.66 65.27-4.14 14.49-2.21 17.61 36.79 27.9 36.79 27.9 3.71 12.48 4.74 15.6 2.92 8.47 2.92 8.47l14-6.47a43.59 43.59 0 0 0 4.35 4.24c1.75 1.34 4 2 4.44.67s-2.1-5.13-2.1-5.13a16.85 16.85 0 0 1-1.44-4.9c-.17-2.23-3.42-6.24-4.71-8.25s-12-9.36-12-9.36l-21.91-34.36 8.61-32.73s-7.83-37.87-6.27-47.03Z" style="fill:#fff;stroke:#263238;stroke-linecap:round;stroke-linejoin:round"/><path d="m164.72 326.78 9.92-27.78s-9.09-42.85-7.53-52c0 0-4.56 4.23-5.55 8.47s-16.12 57.24-19.66 65.27-4.14 14.49-2.21 17.61a27.7 27.7 0 0 0 9.51 8.07c2-3.88 7.3-12.9 18.74-13.69Z" style="fill:#92e3a9;stroke:#263238;stroke-linecap:round;stroke-linejoin:round"/><path d="M148.26 325.22a28.92 28.92 0 0 1 12.89 1.56M157.23 323.21s5.53 1.56 7.49 3.57" style="fill:none;stroke:#263238;stroke-linecap:round;stroke-linejoin:round"/><path d="M275.71 361.69S263.1 397 267.8 416s9 42.11 9 42.11h64.77s7.27-23.52 6.41-37.62-2.56-29.93-2.56-29.93L342 349.93h-64.58Z" style="fill:#263238;stroke:#263238;stroke-linecap:round;stroke-linejoin:round"/><path d="M306.28 396.53s10.69 22.66 15.39 40.41 4.49 20.94 4.49 20.94M318.25 415.56S329.58 405.73 333 394" style="fill:none;stroke:#858585;stroke-linecap:round;stroke-linejoin:round"/><path d="m313.33 254.81-30.35 10A118.93 118.93 0 0 1 297.51 307c3.64 24.79 2.14 50 2.14 50s7.91 4.7 22.87 3S342 349.93 342 349.93s-1.07-41.47-6.63-57.93-22.04-37.19-22.04-37.19Z" style="fill:#92e3a9;stroke:#263238;stroke-linecap:round;stroke-linejoin:round"/><path d="M268.17 181.15s-7.33-.57-10.41 7.71-11.75 37.19-10 43.55 5.59 8.48 7.13 15.42-1.95 11.17-1.95 11.17 2.7 3.86 9.25 4.05 16.38-5 22.93-6.55 21-2.89 30.06-4.24 11-8.09 11-8.09-6.17.57-6.55-3.28 4.62-18.31 2.5-28.33-16.57-20-22.93-25.05-12.33-9-19.08-9.25-10.8.39-11.95 2.89Z" style="fill:#263238;stroke:#263238;stroke-linecap:round;stroke-linejoin:round"/><path d="M264.89 217.38s-5.78 10-5 18.88 7.52 9.45 8.86 8.29M301.89 202.74s13.87 12.91 16 26.59" style="fill:none;stroke:#858585;stroke-linecap:round;stroke-linejoin:round"/><path d="m281.2 239.49 6.49 17.78s13.59 15.82 19.48 13.59.21-18.07 0-20.3-2-13.2-2-13.2-4.06 6.5-6.7 6.5-17.27-4.37-17.27-4.37Z" style="fill:#fff;stroke:#263238;stroke-linecap:round;stroke-linejoin:round"/><path d="M276.12 192.76s-10.6 19.38-10.6 22 8.15 19 10.4 22.23 17.74 10.4 21.21 10.6 6.93-3.67 7.74-6.73 4.28-11.43 4.05-16.08c-.09-1.74-6.37-21.3-8.21-22.32s-24.59-9.7-24.59-9.7Z" style="fill:#fff;stroke:#263238;stroke-linecap:round;stroke-linejoin:round"/><path d="M283.06 219.85s-3.89-1.61-6.17 1.87M293.37 216.1s.81-4.16 5.63-2.95M280.64 214.35s-6.16-.4-8 3.89M289 210.47s3.35-4.56 8-2.95M294.58 224.94s-2 2.95-5 2.14" style="fill:none;stroke:#263238;stroke-linecap:round;stroke-linejoin:round"/><path d="M300.34 226.82s-3.88 5.76-14.6 6.56c0 0 7.1 5.09 11.25 3.75s3.35-10.31 3.35-10.31ZM269.39 225.07s-3.49-1.6-4 2.68 8.44 5.77 8.44 5.77ZM304.07 209.62a1.31 1.31 0 0 1 1.74-1.31c1.71.44 4.58 5.57 4.27 8.64s-2.32 3.13-2.32 3.13Z" style="fill:#fff;stroke:#263238;stroke-linecap:round;stroke-linejoin:round"/><path d="M276.92 257.05s-23.75 15.84-24.77 18.68 16.24 87.1 16.24 87.1-22.94 51.57-17.25 60.5 31.47 17.46 32.68 19.08 11.58-42.83 16-59.68S311.64 335.42 312 321s-5.48-33.5-7.51-39.8-5.64-17.2-5.64-17.2Z" style="fill:#a3a3a3;stroke:#263238;stroke-linecap:round;stroke-linejoin:round"/><path d="M283 247s16.71 16.13 15.9 16.94-10.36 15-10.36 15l-14.61-21.32ZM310 263.15s14.63 17.85 20.72 30.65 8.94 35.53 8.94 44.46v16.85s6.34 42.64 8.34 49.75 5.28 20.3 5.28 20.3 2.43-.81 2.23-9.75-3.45-45.27-6.29-59.69-4-38.31-5.85-42.57l-1.83-4.27 21.69-6.3s-13.53-12.24-17.92-31c-2-8.54-6.45-13.1-9.09-14.93S314.28 252.79 311 253s-1 10.15-1 10.15Z" style="fill:#a3a3a3;stroke:#263238;stroke-linecap:round;stroke-linejoin:round"/><path d="M310 263.15s.61-2.64 1.83-2.24 11.57 6.3 12.59 5.69-10.55-14.6-12.78-16.6a25.79 25.79 0 0 0-4.47-3.25v3.86Z" style="fill:#a3a3a3;stroke:#263238;stroke-linecap:round;stroke-linejoin:round"/><path d="M329.71 263.35s7.1 22.94 7.92 32.89" style="fill:#fff;stroke:#263238;stroke-linecap:round;stroke-linejoin:round"/><path d="M333.76 309.26s4.13-16.53 5.12-17.53 9.1-4.46 9.76-4.62 5.95 3.63 6.77 4.46 4.47 3.14 3.81 4.46-2.81.33-4 .33-6.61 3.47-6.94 4-2.15 4.63-2.81 5.79-11.71 3.11-11.71 3.11Z" style="fill:#fff;stroke:#263238;stroke-linecap:round;stroke-linejoin:round"/><path d="M356.92 292.91s-2.17-.87-2.82-.55-8.38 3.92-8.81 4.46-1 1.42-1 1.42M342.24 295.74a11.36 11.36 0 0 1 2.61-2.5c1.31-.77 5.88-2.51 6.42-2.72a10.12 10.12 0 0 1 2.61 0M350.51 288.56s-8.7 3.15-9.25 3.91l-.54.77" style="fill:none;stroke:#263238;stroke-linecap:round;stroke-linejoin:round"/><path d="M342.09 306.59s8.33-5.89 12-7.51 11.17 1.42 12.59 3.25 3.25 10.56 3 17.05-.4 9.34-4.87 10.76a110.17 110.17 0 0 1-11.17 2.44c-.6.2-1.21-12.18-5.07-18.88s-6.48-7.11-6.48-7.11Z" style="fill:#a3a3a3;stroke:#263238;stroke-linecap:round;stroke-linejoin:round"/><path d="M331.53 310.65s2 23.15 3.66 26 5.68 2.23 9.95 1.22 10.55-2.44 10.76-3.86 0-15-2.24-20.71-6.09-9.74-9.13-8.93-13 2.83-13 6.28Z" style="fill:#a3a3a3;stroke:#263238;stroke-linecap:round;stroke-linejoin:round"/><path d="m312.76 348.77 24.8-21.33-10.41-6.94-19.84 8.76s5.29 14.05 5.45 19.51Z" style="fill:#fff;stroke:#263238;stroke-linecap:round;stroke-linejoin:round"/><path d="M300.7 360.51s2.64 0 6.28-3 6.94-5 5.95-13.39-5.13-21.33-7.11-23-14.71.33-15 1.16 10.08 15.87 10.91 24.63-1.03 13.6-1.03 13.6Z" style="fill:#a3a3a3;stroke:#263238;stroke-linecap:round;stroke-linejoin:round"/><path d="M257.05 276.19s-1.86-3.56-4.9-.46-4.69 11.87-2.54 22.45 8.1 54.89 10.42 60.34 4.46 10.58 8.59 10.75 17.69-1.66 26.95-5.29 8.76-14.55 5.62-24-8.93-17.2-12.4-19.51-5.29-5.29-8.92-12.07S268 284.46 265.65 282" style="fill:#a3a3a3;stroke:#263238;stroke-linecap:round;stroke-linejoin:round"/><path d="M273.2 337.94a20.78 20.78 0 0 1-2.57 2M283.39 323.68a61.2 61.2 0 0 1-8.05 12.09" style="fill:none;stroke:#263238;stroke-linecap:round;stroke-linejoin:round"/><path d="M336.07 313.23s-24.3 2.31-30.58 2.14-15.21-3.47-15.21-3.47-10.74-4.46-13.06-5.62-7.77-1.16-9.26-.49-4.79 3.3-4.29 5 2.47.49 3.47-.34a12 12 0 0 1 2.64-1.48l5.29 1.15 1 1.33s-7.27 1.32-8.26 1.82-3.8 6.77-4.3 8.1 0 1.15 1 1.15h1s-.49 2.65.5 3a3.64 3.64 0 0 0 2.31-.33s1.16 1.16 1.66 1.16a61.21 61.21 0 0 0 6.44-3.31c.83-.5 7.94 1 9.76 1s8.76-.16 8.76-.16 33.39 9.58 37.86 10.25 7.44.49 9.09-4.47-2.01-15.77-5.82-16.43Z" style="fill:#fff;stroke:#263238;stroke-linecap:round;stroke-linejoin:round"/><path d="M268.29 325.13s4.47-5 5.62-5.62a29.65 29.65 0 0 1 3.48-1.49M265.48 322.48l4.63-5.45 4.96-1.99M147.15 180.06a24.47 24.47 0 0 0 3.53 1.63c2.17.81 7.6 2.71 10 5.43s1.63 9.23 1.63 9.23M116.15 202.64l-2.12 4.57" style="fill:none;stroke:#263238;stroke-linecap:round;stroke-linejoin:round"/><path d="M99 188.31s-1.48 7-3 8.6-3.87 3.5-3.08 7 5.4 5.69 5.38 6.27-8.3 2.17-8.1 4.82 2.48 5.83 2.48 5.83-6.17 2-6.69 5.53 1.58 7 1.55 8.31-3.75 4.22-2.64 6.56 3.74 2 3.88 2.47-1.52 2.33-1.55 3.5a3.82 3.82 0 0 0 .82 2.18h49.25l-14-72.85-18.54 7.14Z" style="fill:#92e3a9;stroke:#263238;stroke-linecap:round;stroke-linejoin:round"/><path d="M165.73 353.65s10.15 23.11 11.49 28.79 2 30.93-.15 40.77c-3.85 17.91-14.89 34.89-14.89 34.89h-55.94L94.7 404.23l16.85-52.48Z" style="fill:#fff;stroke:#263238;stroke-linecap:round;stroke-linejoin:round"/><path d="m156.45 398.2-4.71 12.19 2.24 47.45" style="fill:none;stroke:#263238;stroke-linecap:round;stroke-linejoin:round"/><path d="M164.84 338.3s9.88 8.41 11.07 11.56 1.94 24 2.48 27.53-1.85 6.94-1.85 6.94L168 363.1s-.82-9.45-1-10.08-1.75-5.68-1.75-5.68Z" style="fill:#fff;stroke:#263238;stroke-linecap:round;stroke-linejoin:round"/><path d="M173 357.64s.12 3.78.48 6.51 1.49 7.78-.85 9" style="fill:#fff;stroke:#263238;stroke-linecap:round;stroke-linejoin:round"/><path d="m129 248.77 13.44.42 9.61.32 11.17 9.35s9.38 46.66 10.15 49.6-8 25-8.65 27.11 1 18.08 1 18.08-4.3 4-18.22 5.88-30-4-30-4 10.55-27.74 12.81-42.67c0 0 2-28.79 1.31-37S129 248.77 129 248.77Z" style="fill:#92e3a9;stroke:#263238;stroke-linecap:round;stroke-linejoin:round"/><path d="m162.5 317.83-21.76 11.04M161.23 321.62l-10.09 5.04" style="fill:none;stroke:#263238;stroke-linecap:round;stroke-linejoin:round"/><path d="M125.29 233.32s8.08 28 9.13 32.95 11.39 10.78 17.74 7.57 4.3-9.32 3.23-13.11-3.39-11.22-3.39-11.22l2.44-22.73S146.78 237 144 238.15s-18.71-4.83-18.71-4.83Z" style="fill:#fff;stroke:#263238;stroke-linecap:round;stroke-linejoin:round"/><path d="M140.41 240.69 151 250.91l2.61-21.93-13.2 11.71z" style="fill:#263238;stroke:#263238;stroke-linecap:round;stroke-linejoin:round"/><path d="m151.38 249.79-.56 10.04" style="fill:none;stroke:#263238;stroke-linecap:round;stroke-linejoin:round"/><path d="M152.09 247.2s15 42.77 16.63 52.43 2 11.77 2.15 15.14-2.57 10.71-2.57 10.71 10.61-13 10.68-24.37-7.64-45.63-11.24-47.71c-14.3-8.26-15.65-6.2-15.65-6.2Z" style="fill:#263238;stroke:#263238;stroke-linecap:round;stroke-linejoin:round"/><path d="M166 268.31s6.57 19.17 5.51 33.56" style="fill:none;stroke:#a3a3a3;stroke-linecap:round;stroke-linejoin:round"/><path d="m115.19 199.82 6.79-9.61 31.43 31.91s-1.91 18.65-1.92 19.23 1.95 3.79 1.95 3.79a10.44 10.44 0 0 1 1.56 1.75c.7 1 0 1-.21 2.47s.82 2.19 1.53 2.92a19 19 0 0 0 3.45 2c1 .58.1 1.89-.66 3.2a6.83 6.83 0 0 0-.59 6.42c1.24 2.62 2 2.18 4.12 4.22s-1 3.94-1 3.94 1.61-.44 2.93-.88a2.14 2.14 0 0 0 1.39-2.91c-.56-1-1.65-4.37-1.19-5s4.58-2.62 5.78-4.22-.1-1.9.94-2.48 3.1-1.89 3.59-3.93-1.93-4.52-1.19-5.25 3.55-5.21 3.58-6.53-1.63-3.53-1.63-3.53 1.09-.87 1.77-5.09-2.63-5.54-2.87-7.87 3.2-5.54 3.25-13.7-13.44-10.64-13.85-11.65.06-2.63-.18-4.81-5.53-6-5.53-6 .63-2.18 1.1-3.64-.22-2.77-2.79-5.1-15-13.26-20.19-14.43-14 4.52-15 5.1-9.29-1.45-11.81.59-3.34 5.53-4 7-2.81 1.46-4.15 2.92-3.55 14.13-3.55 14.13" style="fill:#92e3a9;stroke:#263238;stroke-linecap:round;stroke-linejoin:round"/><path d="M128.13 244.05s15.21 53.48 15.88 60.42-23.13 52.33-28 61.79-15.43 38.25-17.14 48.12-3 21.65-3 21.65-12.67-6.09-21-11.35-9.68-8.19-9-9.25S70 401.35 70 401.35s-7.16-8-6.72-8.82S80 335.78 80 335.78s4.29-89.95 6-89.95 42.13-1.78 42.13-1.78Z" style="fill:#263238;stroke:#263238;stroke-linecap:round;stroke-linejoin:round"/><path d="m126.59 269.59 17.42 34.88" style="fill:none;stroke:#a3a3a3;stroke-linecap:round;stroke-linejoin:round"/><path d="M96 246.46s-12.55-2.52-14.73.84-21.43 60.32-22.61 65.57S93.56 357 93.56 357l18.58-12.4-22-30.9 12-44.13" style="fill:#263238;stroke:#263238;stroke-linecap:round;stroke-linejoin:round"/><path d="m99.04 283.3-8.96 27.69 20.05 30.05M101.49 274.61l-1.29 4.09" style="fill:none;stroke:#a3a3a3;stroke-linecap:round;stroke-linejoin:round"/><path d="m110.13 341.04-20.17 16.81 6.74 8.2 21.21-16.4-7.78-8.61z" style="fill:#fff;stroke:#263238;stroke-linecap:round;stroke-linejoin:round"/><path d="M116.41 350.49s16.79 18.5 18.66 19.34 5.56 4.83 6.56 6.72 2.42 4.42 3.86 5.47 1.63 2.31-.91 2.94-4.85.84-6.25-2.1a32.26 32.26 0 0 0-3.65-5.68l-14.34 10.72s-3.09-11.35-3.45-13.66-1.12-6.09-1.12-6.09l-9.65-9.25Z" style="fill:#fff;stroke:#263238;stroke-linecap:round;stroke-linejoin:round"/><path d="M92.9 231.15s-1.4 9.32-.6 12.53c.84 3.4 7.67 2.79 6.27 7.3-.45 1.45-2.21 3-1.66 4.65s2.79 1.78 4 2.74c2.27 1.76 1.46 3.66 2.23 6.15.56 1.8 2.48 2.43 3 3.86.61 1.69-.57 2.75 1.31 4.59 3.28 3.21 5.74 3.79 6.18 3.5s-.41-1 1.66-2 6-2.92 5.35-4.52l-1.37-3.19c1 2.21 3.94 0 4.76-1.19 1.86-2.66-1-5.52-.66-8.4.37-3.18 4-4.82 4.36-8s-2.87-5.3-2.16-8.19c.32-1.31.5-2.76.5-2.76s-1-2.92-2.38-3.94-1.91-5.1-2-6.56" style="fill:#92e3a9;stroke:#263238;stroke-linecap:round;stroke-linejoin:round"/><path d="M119.11 185s-11.78 17.13-10.88 20.75 9.89 26.85 13 29.15 15.46 7.74 19.57 7.91 7.12-1.48 8.84-4.28 8.24-14.17 8.3-16.64-5.21-26.18-6.19-26.51S119.11 185 119.11 185Z" style="fill:#fff;stroke:#000;stroke-linecap:round;stroke-linejoin:round"/><path d="M137.11 203.15s-.34 4.57.08 6.06 4.29 6.85 4.38 7.77-1.41 1.83-3.49 2.63" style="fill:none;stroke:#263238;stroke-linecap:round;stroke-linejoin:round"/><path d="M110.53 212.78s-2.58-2.3-4 .5-.32 6.59 4 9.72 5.36 3.12 5.36 3.12ZM153.63 201.26s2.33-1.16 3.41 1.81-.58 10.54-.58 10.54ZM131.29 225.59s7.61-.57 9.47-1.49 5.12-4.68 5.12-4.68 0 8.25-4 9.66c-2.88.99-10.59-3.49-10.59-3.49ZM118.83 207.61s.56-4.35 8.12-5.15M137 199.41s4.64-4 9.66.88" style="fill:#fff;stroke:#263238;stroke-linecap:round;stroke-linejoin:round"/><path d="M128.21 209.81c.4 1.34 0 2.67-1 3s-2-.56-2.4-1.9 0-2.66 1-3 2 .56 2.4 1.9ZM143.76 205.51c.4 1.34 0 2.66-1 3s-2-.55-2.4-1.89 0-2.67 1-3 2 .55 2.4 1.89Z" style="fill:#263238"/><path d="M464.79 458.1H17.03M488.57 458.1h-16.65" style="fill:none;stroke:#263238;stroke-linecap:round;stroke-linejoin:round"/></svg>