<svg xmlns="http://www.w3.org/2000/svg" viewBox="0 0 474.81 419.74"><path d="M459.92 286.15c-14.34 38.38-43.62 79.93-84.82 92.23-62.27 18.62-69.7 68.78-181.22 64.12a224.84 224.84 0 0 1-48.22-7.07 188.22 188.22 0 0 1-22.66-7.54C57.84 401.5 23.85 343.43 21 282.66c-3.72-79.92 52-118 88.28-140.32s79.92-108.73 189.59-105a218.42 218.42 0 0 1 49.56 7.24c36.9 10 74.42 32.08 96.21 64.37q2.46 3.64 4.69 7.44c29.2 49.47 30.13 117.43 10.59 169.76Z" style="fill:#92e3a9" transform="translate(-15.44 -37.21)"/><path d="M459.92 286.15c-14.34 38.38-43.62 79.93-84.82 92.23-62.27 18.62-69.7 68.78-181.22 64.12a224.84 224.84 0 0 1-48.22-7.07 188.22 188.22 0 0 1-22.66-7.54C57.84 401.5 23.85 343.43 21 282.66c-3.72-79.92 52-118 88.28-140.32s79.92-108.73 189.59-105a218.42 218.42 0 0 1 49.56 7.24c36.9 10 74.42 32.08 96.21 64.37q2.46 3.64 4.69 7.44c29.2 49.47 30.13 117.43 10.59 169.76Z" style="fill:#fff;opacity:.8" transform="translate(-15.44 -37.21)"/><path d="M474.31 391H4.21" style="fill:none;stroke:#263238;stroke-linecap:round;stroke-linejoin:round"/><path d="M117.24 313.62c.07.06 2.44-5.87 2.55-6.26 1.23-4.53.95-14-3.46-16.88a6.23 6.23 0 0 0-8.87 2.65c-1.7 3.29-.65 7.74.87 10.9 1.78 3.72 8.9 9.58 8.91 9.59ZM24.93 299.76c3.53 2.11 12.71 3.08 12.71 3.08s-1.2-6.24-1.32-6.63C34.85 291.75 29.38 284 24.13 284a6.23 6.23 0 0 0-5.95 7.1c.4 3.73 3.74 6.9 6.75 8.66Z" style="fill:#263238" transform="translate(-15.44 -37.21)"/><path d="M24.69 326.67c3.81 1.07 12.28-.26 13-.37a109.22 109.22 0 0 0 3.2 14.35c.79 2.74 1.67 5.48 2.59 8.22-.61-1.19-1.16-2.25-1.25-2.39-2.6-3.91-9.91-9.94-15-8.51a6.21 6.21 0 0 0-3.86 8.41c1.36 3.45 5.4 5.59 8.78 6.54s10.67 0 12.58-.32c.37 1 .72 2.1 1.09 3.14 1.76 5 3.54 10 5.14 15 .56 1.74 1 3.48 1.55 5.22-.54-1.05-1-1.94-1.09-2.06-2.59-3.91-9.91-9.95-15-8.52a6.22 6.22 0 0 0-3.85 8.42c1.36 3.45 5.4 5.59 8.77 6.53s10 .06 12.24-.27c.46 1.8.92 3.6 1.28 5.36.22 1.2.51 2.35.67 3.58s.35 2.4.52 3.59c.25 2.3.52 4.66.71 6.91.14 1.56.25 3.05.36 4.55-.54-1.74-1.67-5.13-1.8-5.4-2-4.26-8.29-11.33-13.51-10.69a6.21 6.21 0 0 0-5.08 7.73c.82 3.62 4.49 6.35 7.68 7.79C48 405 56.19 405 57.22 405c.17 2.48.32 4.9.42 7.18.3 6.27.37 11.7.35 16h3.47c-.08-4.33-.27-9.82-.71-16.15-.17-2.53-.4-5.22-.66-8a71.22 71.22 0 0 0 7.56-2.44c2.3 3.23 8.71 7.48 9.54 8-1.23 2.17-2.44 4.27-3.61 6.23-2.86 4.8-5.5 8.94-7.73 12.31h4.05c1.91-3.08 4.07-6.68 6.37-10.75 1.25-2.19 2.54-4.57 3.85-7 .95.33 8.77 3 12.62 2.62 3.49-.33 7.84-1.72 9.79-4.88a6.22 6.22 0 0 0-2.31-9c-4.73-2.3-13 2.35-16.24 5.74-.19.2-2 2.61-3.16 4.14.53-1 1.05-2 1.59-3 1.06-2.05 2.06-4.13 3.15-6.36.48-1.09 1-2.2 1.47-3.31s.92-2.33 1.39-3.5c1-2.73 2-5.56 2.81-8.42 1.79.93 8.22 4.13 11.74 4.33s8-.52 10.41-3.35a6.22 6.22 0 0 0-.92-9.21c-4.33-3-13.2.36-16.92 3.22-.24.18-2.68 2.54-4 3.86.5-1.73 1-3.45 1.46-5.21 1.31-5.09 2.47-10.28 3.65-15.45.36-1.59.74-3.16 1.11-4.74.64.34 8.19 4.31 12.13 4.53 3.5.2 8-.52 10.42-3.34a6.23 6.23 0 0 0-.93-9.22c-4.33-3-13.2.36-16.92 3.23-.28.21-3.78 3.6-4.63 4.51.82-3.47 1.67-6.93 2.65-10.3a110.76 110.76 0 0 1 4.78-13.27c.3.16 8.16 4.34 12.2 4.57 3.5.2 8-.52 10.42-3.34A6.22 6.22 0 0 0 127 326c-4.33-3-13.2.36-16.92 3.22-.25.19-2.92 2.77-4.16 4l-.25-.17a81.53 81.53 0 0 1 7.14-12.37c1.49-2.17 3-4.16 4.57-6.06 1.38.93 7.76 5.1 11.37 5.71s8 .36 10.72-2.18a6.23 6.23 0 0 0 .09-9.26c-4-3.44-13.16-1.09-17.17 1.34-.22.14-2.29 1.73-3.78 2.91.71-.85 1.42-1.74 2.12-2.53 2.6-3 5.17-5.6 7.46-7.88 1.31-1.28 2.53-2.42 3.67-3.47 1.84.2 9.25.92 12.67-.18s7.29-3.37 8.51-6.88a6.22 6.22 0 0 0-4.24-8.2c-5.11-1.22-12.18 5.09-14.62 9.1-.21.35-2.88 6.15-2.79 6.16h.11c-1.12 1-2.31 2.07-3.59 3.26-2.35 2.24-5 4.78-7.66 7.74a110.09 110.09 0 0 0-8.18 10 80.82 80.82 0 0 0-7.49 12.33l-.06.16c.22-1.52.7-5.8.7-6.14 0-4.69-2.78-13.76-7.79-15.36a6.22 6.22 0 0 0-7.86 4.89c-.77 3.63 1.42 7.65 3.72 10.29 2.59 3 10.38 6.56 11 6.84A109.58 109.58 0 0 0 99.04 347c-.85 2.72-1.63 5.5-2.37 8.28.15-1.32.27-2.5.27-2.67 0-4.7-2.78-13.76-7.79-15.36a6.21 6.21 0 0 0-7.85 4.89c-.78 3.63 1.42 7.64 3.71 10.29s8.92 5.86 10.67 6.68c-.27 1.07-.56 2.14-.83 3.22-1.29 5.15-2.56 10.3-4 15.31-.49 1.76-1 3.48-1.59 5.21.13-1.18.23-2.17.23-2.32 0-4.7-2.78-13.76-7.78-15.37A6.22 6.22 0 0 0 73.9 370c-.77 3.63 1.42 7.64 3.72 10.29s8.27 5.55 10.35 6.53c-.61 1.75-1.22 3.5-1.89 5.17-.48 1.13-.87 2.25-1.42 3.35l-1.54 3.29c-1.06 2.05-2.14 4.18-3.22 6.15-.75 1.38-1.48 2.68-2.22 4 .52-1.75 1.44-5.21 1.49-5.5a24.16 24.16 0 0 0-1.72-12.07 7.87 7.87 0 0 0 .09-1.38 6.23 6.23 0 0 0-6.88-6.2c-5.21.7-9.54 9.14-10.37 13.76 0 .27-.25 3.28-.35 5.19-.11-1.13-.21-2.23-.34-3.39-.25-2.29-.55-4.58-.88-7-.2-1.18-.4-2.37-.6-3.58s-.52-2.44-.77-3.68c-.65-2.85-1.44-5.71-2.31-8.57 2-.22 9.14-1.09 12.18-2.87s6.4-4.85 6.85-8.53a6.22 6.22 0 0 0-5.86-7.17c-5.25-.1-10.81 7.58-12.33 12-.1.28-.83 3.58-1.2 5.41-.54-1.72-1.06-3.43-1.66-5.15-1.72-5-3.61-9.93-5.48-14.9-.57-1.52-1.12-3-1.68-4.57.71-.07 9.21-.92 12.61-2.91 3-1.76 6.4-4.85 6.85-8.54a6.23 6.23 0 0 0-5.86-7.17c-5.25-.1-10.81 7.59-12.33 12-.12.33-1.17 5.09-1.38 6.32-1.23-3.35-2.42-6.71-3.47-10.06a109.55 109.55 0 0 1-3.4-13.79c.33 0 9.2-.89 12.69-2.92 3-1.77 6.4-4.86 6.84-8.54a6.22 6.22 0 0 0-5.85-7.17c-5.26-.1-10.81 7.58-12.34 12-.1.29-.9 3.92-1.24 5.66h-.3a79.56 79.56 0 0 1-.87-14.26c0-2.63.22-5.14.46-7.58 1.67 0 9.29 0 12.63-1.51s6.9-4.12 7.74-7.73a6.22 6.22 0 0 0-5-7.77C48.4 285.93 42 293 40 297.2c-.11.23-1 2.7-1.55 4.51.13-1.1.23-2.23.37-3.28.51-3.94 1.22-7.52 1.88-10.69.39-1.79.77-3.41 1.15-4.92 1.64-.84 8.22-4.33 10.46-7.13s4.22-6.84 3.31-10.43a6.23 6.23 0 0 0-8-4.58c-4.94 1.8-7.35 11-7.17 15.66 0 .41 1 6.72 1.07 6.68l.1-.06c-.39 1.45-.8 3-1.2 4.71-.73 3.15-1.52 6.73-2.12 10.67a110.08 110.08 0 0 0-1.3 12.83 81.27 81.27 0 0 0 .56 14.41 1 1 0 0 1 0 .17c-.65-1.39-2.61-5.23-2.8-5.51-2.59-3.91-9.91-9.94-15-8.52a6.23 6.23 0 0 0-3.86 8.42c1.38 3.45 5.42 5.59 8.79 6.53Z" style="fill:#263238" transform="translate(-15.44 -37.21)"/><path d="M24.93 299.76c3.53 2.11 12.71 3.08 12.71 3.08s-1.2-6.24-1.32-6.63C34.85 291.75 29.38 284 24.13 284a6.23 6.23 0 0 0-5.95 7.1c.4 3.73 3.74 6.9 6.75 8.66ZM117.24 313.62c.07.06 2.44-5.87 2.55-6.26 1.23-4.53.95-14-3.46-16.88a6.23 6.23 0 0 0-8.87 2.65c-1.7 3.29-.65 7.74.87 10.9 1.78 3.72 8.9 9.58 8.91 9.59Z" style="fill:#263238;opacity:.30000000000000004" transform="translate(-15.44 -37.21)"/><path d="M24.69 326.67c3.81 1.07 12.28-.26 13-.37a109.22 109.22 0 0 0 3.2 14.35c.79 2.74 1.67 5.48 2.59 8.22-.61-1.19-1.16-2.25-1.25-2.39-2.6-3.91-9.91-9.94-15-8.51a6.21 6.21 0 0 0-3.86 8.41c1.36 3.45 5.4 5.59 8.78 6.54s10.67 0 12.58-.32c.37 1 .72 2.1 1.09 3.14 1.76 5 3.54 10 5.14 15 .56 1.74 1 3.48 1.55 5.22-.54-1.05-1-1.94-1.09-2.06-2.59-3.91-9.91-9.95-15-8.52a6.22 6.22 0 0 0-3.85 8.42c1.36 3.45 5.4 5.59 8.77 6.53s10 .06 12.24-.27c.46 1.8.92 3.6 1.28 5.36.22 1.2.51 2.35.67 3.58s.35 2.4.52 3.59c.25 2.3.52 4.66.71 6.91.14 1.56.25 3.05.36 4.55-.54-1.74-1.67-5.13-1.8-5.4-2-4.26-8.29-11.33-13.51-10.69a6.21 6.21 0 0 0-5.08 7.73c.82 3.62 4.49 6.35 7.68 7.79C48 405 56.19 405 57.22 405c.17 2.48.32 4.9.42 7.18.3 6.27.37 11.7.35 16h3.47c-.08-4.33-.27-9.82-.71-16.15-.17-2.53-.4-5.22-.66-8a71.22 71.22 0 0 0 7.56-2.44c2.3 3.23 8.71 7.48 9.54 8-1.23 2.17-2.44 4.27-3.61 6.23-2.86 4.8-5.5 8.94-7.73 12.31h4.05c1.91-3.08 4.07-6.68 6.37-10.75 1.25-2.19 2.54-4.57 3.85-7 .95.33 8.77 3 12.62 2.62 3.49-.33 7.84-1.72 9.79-4.88a6.22 6.22 0 0 0-2.31-9c-4.73-2.3-13 2.35-16.24 5.74-.19.2-2 2.61-3.16 4.14.53-1 1.05-2 1.59-3 1.06-2.05 2.06-4.13 3.15-6.36.48-1.09 1-2.2 1.47-3.31s.92-2.33 1.39-3.5c1-2.73 2-5.56 2.81-8.42 1.79.93 8.22 4.13 11.74 4.33s8-.52 10.41-3.35a6.22 6.22 0 0 0-.92-9.21c-4.33-3-13.2.36-16.92 3.22-.24.18-2.68 2.54-4 3.86.5-1.73 1-3.45 1.46-5.21 1.31-5.09 2.47-10.28 3.65-15.45.36-1.59.74-3.16 1.11-4.74.64.34 8.19 4.31 12.13 4.53 3.5.2 8-.52 10.42-3.34a6.23 6.23 0 0 0-.93-9.22c-4.33-3-13.2.36-16.92 3.23-.28.21-3.78 3.6-4.63 4.51.82-3.47 1.67-6.93 2.65-10.3a110.76 110.76 0 0 1 4.78-13.27c.3.16 8.16 4.34 12.2 4.57 3.5.2 8-.52 10.42-3.34A6.22 6.22 0 0 0 127 326c-4.33-3-13.2.36-16.92 3.22-.25.19-2.92 2.77-4.16 4l-.25-.17a81.53 81.53 0 0 1 7.14-12.37c1.49-2.17 3-4.16 4.57-6.06 1.38.93 7.76 5.1 11.37 5.71s8 .36 10.72-2.18a6.23 6.23 0 0 0 .09-9.26c-4-3.44-13.16-1.09-17.17 1.34-.22.14-2.29 1.73-3.78 2.91.71-.85 1.42-1.74 2.12-2.53 2.6-3 5.17-5.6 7.46-7.88 1.31-1.28 2.53-2.42 3.67-3.47 1.84.2 9.25.92 12.67-.18s7.29-3.37 8.51-6.88a6.22 6.22 0 0 0-4.24-8.2c-5.11-1.22-12.18 5.09-14.62 9.1-.21.35-2.88 6.15-2.79 6.16h.11c-1.12 1-2.31 2.07-3.59 3.26-2.35 2.24-5 4.78-7.66 7.74a110.09 110.09 0 0 0-8.18 10 80.82 80.82 0 0 0-7.49 12.33l-.06.16c.22-1.52.7-5.8.7-6.14 0-4.69-2.78-13.76-7.79-15.36a6.22 6.22 0 0 0-7.86 4.89c-.77 3.63 1.42 7.65 3.72 10.29 2.59 3 10.38 6.56 11 6.84A109.58 109.58 0 0 0 99.04 347c-.85 2.72-1.63 5.5-2.37 8.28.15-1.32.27-2.5.27-2.67 0-4.7-2.78-13.76-7.79-15.36a6.21 6.21 0 0 0-7.85 4.89c-.78 3.63 1.42 7.64 3.71 10.29s8.92 5.86 10.67 6.68c-.27 1.07-.56 2.14-.83 3.22-1.29 5.15-2.56 10.3-4 15.31-.49 1.76-1 3.48-1.59 5.21.13-1.18.23-2.17.23-2.32 0-4.7-2.78-13.76-7.78-15.37A6.22 6.22 0 0 0 73.9 370c-.77 3.63 1.42 7.64 3.72 10.29s8.27 5.55 10.35 6.53c-.61 1.75-1.22 3.5-1.89 5.17-.48 1.13-.87 2.25-1.42 3.35l-1.54 3.29c-1.06 2.05-2.14 4.18-3.22 6.15-.75 1.38-1.48 2.68-2.22 4 .52-1.75 1.44-5.21 1.49-5.5a24.16 24.16 0 0 0-1.72-12.07 7.87 7.87 0 0 0 .09-1.38 6.23 6.23 0 0 0-6.88-6.2c-5.21.7-9.54 9.14-10.37 13.76 0 .27-.25 3.28-.35 5.19-.11-1.13-.21-2.23-.34-3.39-.25-2.29-.55-4.58-.88-7-.2-1.18-.4-2.37-.6-3.58s-.52-2.44-.77-3.68c-.65-2.85-1.44-5.71-2.31-8.57 2-.22 9.14-1.09 12.18-2.87s6.4-4.85 6.85-8.53a6.22 6.22 0 0 0-5.86-7.17c-5.25-.1-10.81 7.58-12.33 12-.1.28-.83 3.58-1.2 5.41-.54-1.72-1.06-3.43-1.66-5.15-1.72-5-3.61-9.93-5.48-14.9-.57-1.52-1.12-3-1.68-4.57.71-.07 9.21-.92 12.61-2.91 3-1.76 6.4-4.85 6.85-8.54a6.23 6.23 0 0 0-5.86-7.17c-5.25-.1-10.81 7.59-12.33 12-.12.33-1.17 5.09-1.38 6.32-1.23-3.35-2.42-6.71-3.47-10.06a109.55 109.55 0 0 1-3.4-13.79c.33 0 9.2-.89 12.69-2.92 3-1.77 6.4-4.86 6.84-8.54a6.22 6.22 0 0 0-5.85-7.17c-5.26-.1-10.81 7.58-12.34 12-.1.29-.9 3.92-1.24 5.66h-.3a79.56 79.56 0 0 1-.87-14.26c0-2.63.22-5.14.46-7.58 1.67 0 9.29 0 12.63-1.51s6.9-4.12 7.74-7.73a6.22 6.22 0 0 0-5-7.77C48.4 285.93 42 293 40 297.2c-.11.23-1 2.7-1.55 4.51.13-1.1.23-2.23.37-3.28.51-3.94 1.22-7.52 1.88-10.69.39-1.79.77-3.41 1.15-4.92 1.64-.84 8.22-4.33 10.46-7.13s4.22-6.84 3.31-10.43a6.23 6.23 0 0 0-8-4.58c-4.94 1.8-7.35 11-7.17 15.66 0 .41 1 6.72 1.07 6.68l.1-.06c-.39 1.45-.8 3-1.2 4.71-.73 3.15-1.52 6.73-2.12 10.67a110.08 110.08 0 0 0-1.3 12.83 81.27 81.27 0 0 0 .56 14.41 1 1 0 0 1 0 .17c-.65-1.39-2.61-5.23-2.8-5.51-2.59-3.91-9.91-9.94-15-8.52a6.23 6.23 0 0 0-3.86 8.42c1.38 3.45 5.42 5.59 8.79 6.53Z" style="fill:#263238;opacity:.30000000000000004" transform="translate(-15.44 -37.21)"/><path d="M106.67 429.58v8.58c0 1 15.35 1.9 34.3 1.9s34.3-.85 34.3-1.9v-8.58Z" style="fill:#fff;stroke:#263238;stroke-linecap:round;stroke-linejoin:round" transform="translate(-15.44 -37.21)"/><ellipse cx="125.53" cy="392.38" rx="34.3" ry="1.91" style="fill:#fff;stroke:#263238;stroke-linecap:round;stroke-linejoin:round"/><ellipse cx="125.53" cy="392.14" rx="26.35" ry="1.22" style="fill:#fff;stroke:#263238;stroke-linecap:round;stroke-linejoin:round"/><path d="M156.41 393.35V400M151.51 394.05v7M144.16 394.23v5.42M134.53 397.73v4.72M124.21 402.98v-5.95M93.42 393.35v2.98M97.44 401.75v-3.5M113.36 402.1v-4.2" style="fill:none;stroke:#263238;stroke-linecap:round;stroke-linejoin:round"/><path d="M108.23 421v8.57c0 1.05 15.35 1.91 34.3 1.91s34.3-.86 34.3-1.91V421Z" style="fill:#fff;stroke:#263238;stroke-linecap:round;stroke-linejoin:round" transform="translate(-15.44 -37.21)"/><ellipse cx="127.09" cy="383.79" rx="34.3" ry="1.91" style="fill:#fff;stroke:#263238;stroke-linecap:round;stroke-linejoin:round"/><ellipse cx="127.09" cy="383.55" rx="26.35" ry="1.22" style="fill:#fff;stroke:#263238;stroke-linecap:round;stroke-linejoin:round"/><path d="M157.97 384.77v6.65M153.07 385.47v7M145.72 385.64v5.43M136.1 389.14v4.73M125.77 394.39v-5.95M94.98 384.77v2.97M99 393.17v-3.5M114.92 393.52v-4.2" style="fill:none;stroke:#263238;stroke-linecap:round;stroke-linejoin:round"/><path d="M108.49 412.41V421c0 1.05 15.36 1.9 34.3 1.9s34.3-.85 34.3-1.9v-8.58Z" style="fill:#fff;stroke:#263238;stroke-linecap:round;stroke-linejoin:round" transform="translate(-15.44 -37.21)"/><ellipse cx="127.35" cy="375.21" rx="34.3" ry="1.91" style="fill:#fff;stroke:#263238;stroke-linecap:round;stroke-linejoin:round"/><ellipse cx="127.35" cy="374.97" rx="26.35" ry="1.22" style="fill:#fff;stroke:#263238;stroke-linecap:round;stroke-linejoin:round"/><path d="M158.23 376.19v6.64M153.33 376.88v7M145.98 377.06v5.42M136.36 380.56v4.72M126.03 385.81v-5.95M95.24 376.19v2.97M99.26 384.58v-3.5M115.18 384.93v-4.2" style="fill:none;stroke:#263238;stroke-linecap:round;stroke-linejoin:round"/><path d="M108.23 403.83v8.57c0 1.05 15.35 1.91 34.3 1.91s34.3-.86 34.3-1.91v-8.57Z" style="fill:#fff;stroke:#263238;stroke-linecap:round;stroke-linejoin:round" transform="translate(-15.44 -37.21)"/><ellipse cx="127.09" cy="366.62" rx="34.3" ry="1.91" style="fill:#fff;stroke:#263238;stroke-linecap:round;stroke-linejoin:round"/><path d="M168.87 403.59c0 .67-11.79 1.22-26.34 1.22s-26.35-.55-26.35-1.22 11.8-1.22 26.35-1.22 26.34.54 26.34 1.22Z" style="fill:#fff;stroke:#263238;stroke-linecap:round;stroke-linejoin:round" transform="translate(-15.44 -37.21)"/><path d="M157.97 367.6v6.65M153.07 368.3v7M145.72 368.48v5.42M136.1 371.97v4.73M125.77 377.22v-5.95M94.98 367.6v2.98M99 376v-3.5M114.92 376.35v-4.2" style="fill:none;stroke:#263238;stroke-linecap:round;stroke-linejoin:round"/><path d="M108.75 395.24v8.58c0 1.05 15.36 1.9 34.3 1.9s34.3-.85 34.3-1.9v-8.58Z" style="fill:#fff;stroke:#263238;stroke-linecap:round;stroke-linejoin:round" transform="translate(-15.44 -37.21)"/><ellipse cx="127.61" cy="358.04" rx="34.3" ry="1.91" style="fill:#fff;stroke:#263238;stroke-linecap:round;stroke-linejoin:round"/><path d="M169.39 395c0 .68-11.79 1.23-26.34 1.23s-26.35-.55-26.35-1.23 11.8-1.22 26.35-1.22 26.34.55 26.34 1.22Z" style="fill:#fff;stroke:#263238;stroke-linecap:round;stroke-linejoin:round" transform="translate(-15.44 -37.21)"/><path d="M158.49 359.02v6.64M153.59 359.72v6.99M146.24 359.89v5.42M136.62 363.39v4.72M126.29 368.64v-5.95M95.5 359.02v2.97M99.52 367.41v-3.49M115.44 367.76v-4.19" style="fill:none;stroke:#263238;stroke-linecap:round;stroke-linejoin:round"/><path d="M106.67 386.66v8.57c0 1.06 15.35 1.91 34.3 1.91s34.3-.85 34.3-1.91v-8.57Z" style="fill:#fff;stroke:#263238;stroke-linecap:round;stroke-linejoin:round" transform="translate(-15.44 -37.21)"/><ellipse cx="125.53" cy="349.45" rx="34.3" ry="1.91" style="fill:#fff;stroke:#263238;stroke-linecap:round;stroke-linejoin:round"/><path d="M167.31 386.42c0 .68-11.79 1.22-26.34 1.22s-26.35-.54-26.35-1.22 11.8-1.22 26.35-1.22 26.34.54 26.34 1.22Z" style="fill:#fff;stroke:#263238;stroke-linecap:round;stroke-linejoin:round" transform="translate(-15.44 -37.21)"/><path d="M156.41 350.43v6.65M151.51 351.13v7M144.16 351.31v5.42M134.53 354.81v4.72M124.21 360.05v-5.94M93.42 350.43v2.98M97.44 358.83v-3.5M113.36 359.18v-4.2" style="fill:none;stroke:#263238;stroke-linecap:round;stroke-linejoin:round"/><path d="M105.63 378.08v8.57c0 1.05 15.35 1.9 34.3 1.9s34.3-.85 34.3-1.9v-8.57Z" style="fill:#fff;stroke:#263238;stroke-linecap:round;stroke-linejoin:round" transform="translate(-15.44 -37.21)"/><ellipse cx="124.48" cy="340.87" rx="34.3" ry="1.91" style="fill:#fff;stroke:#263238;stroke-linecap:round;stroke-linejoin:round"/><path d="M166.27 377.84c0 .67-11.79 1.22-26.34 1.22s-26.35-.55-26.35-1.22 11.8-1.23 26.35-1.23 26.34.55 26.34 1.23Z" style="fill:#fff;stroke:#263238;stroke-linecap:round;stroke-linejoin:round" transform="translate(-15.44 -37.21)"/><path d="M155.36 341.85v6.65M150.47 342.55v7M143.12 342.72v5.43M133.49 346.22v4.73M123.17 351.47v-5.95M92.38 341.85v2.97M96.4 350.25v-3.5M112.32 350.6v-4.2" style="fill:none;stroke:#263238;stroke-linecap:round;stroke-linejoin:round"/><path d="M103.81 369.49v8.57c0 1.06 15.35 1.91 34.3 1.91s34.29-.85 34.29-1.91v-8.57Z" style="fill:#fff;stroke:#263238;stroke-linecap:round;stroke-linejoin:round" transform="translate(-15.44 -37.21)"/><ellipse cx="122.66" cy="332.29" rx="34.3" ry="1.91" style="fill:#fff;stroke:#263238;stroke-linecap:round;stroke-linejoin:round"/><path d="M164.45 369.25c0 .68-11.79 1.22-26.34 1.22s-26.35-.54-26.35-1.22 11.8-1.22 26.35-1.22 26.34.55 26.34 1.22Z" style="fill:#fff;stroke:#263238;stroke-linecap:round;stroke-linejoin:round" transform="translate(-15.44 -37.21)"/><path d="M153.54 333.26v6.65M148.64 333.96v7M141.3 334.14v5.42M131.67 337.64v4.72M121.35 342.89v-5.95M90.56 333.26v2.98M94.58 341.66v-3.5M110.5 342.01v-4.2" style="fill:none;stroke:#263238;stroke-linecap:round;stroke-linejoin:round"/><path d="M106.67 360.91v8.57c0 1 15.35 1.91 34.3 1.91s34.3-.86 34.3-1.91v-8.57Z" style="fill:#fff;stroke:#263238;stroke-linecap:round;stroke-linejoin:round" transform="translate(-15.44 -37.21)"/><ellipse cx="125.53" cy="323.7" rx="34.3" ry="1.91" style="fill:#fff;stroke:#263238;stroke-linecap:round;stroke-linejoin:round"/><path d="M167.31 360.67c0 .67-11.79 1.22-26.34 1.22s-26.35-.55-26.35-1.22 11.8-1.23 26.35-1.23 26.34.56 26.34 1.23Z" style="fill:#fff;stroke:#263238;stroke-linecap:round;stroke-linejoin:round" transform="translate(-15.44 -37.21)"/><path d="M156.41 324.68v6.65M151.51 325.38v7M144.16 325.55v5.43M134.53 329.05v4.73M124.21 334.3v-5.95M93.42 324.68v2.97M97.44 333.08v-3.5M113.36 333.43v-4.2" style="fill:none;stroke:#263238;stroke-linecap:round;stroke-linejoin:round"/><path d="M104.33 352.32v8.58c0 1.05 15.35 1.9 34.3 1.9s34.29-.85 34.29-1.9v-8.58Z" style="fill:#fff;stroke:#263238;stroke-linecap:round;stroke-linejoin:round" transform="translate(-15.44 -37.21)"/><path d="M172.92 352.32c0 1.05-15.35 1.91-34.29 1.91s-34.3-.86-34.3-1.91 15.35-1.9 34.3-1.9 34.29.85 34.29 1.9Z" style="fill:#fff;stroke:#263238;stroke-linecap:round;stroke-linejoin:round" transform="translate(-15.44 -37.21)"/><path d="M165 352.08c0 .68-11.79 1.22-26.34 1.22s-26.35-.54-26.35-1.22 11.8-1.22 26.35-1.22 26.34.55 26.34 1.22Z" style="fill:#fff;stroke:#263238;stroke-linecap:round;stroke-linejoin:round" transform="translate(-15.44 -37.21)"/><path d="M154.06 316.09v6.65M149.16 316.79v7M141.82 316.97v5.42M132.19 320.47v4.72M121.87 325.72v-5.95M91.08 316.09v2.98M95.1 324.49v-3.5M111.02 324.84v-4.2" style="fill:none;stroke:#263238;stroke-linecap:round;stroke-linejoin:round"/><path d="M106.67 343.74v8.57c0 1.05 15.35 1.91 34.3 1.91s34.3-.86 34.3-1.91v-8.57Z" style="fill:#fff;stroke:#263238;stroke-linecap:round;stroke-linejoin:round" transform="translate(-15.44 -37.21)"/><path d="M175.27 343.74c0 1.05-15.36 1.9-34.3 1.9s-34.3-.85-34.3-1.9 15.35-1.91 34.3-1.91 34.3.86 34.3 1.91Z" style="fill:#fff;stroke:#263238;stroke-linecap:round;stroke-linejoin:round" transform="translate(-15.44 -37.21)"/><path d="M167.31 343.5c0 .67-11.79 1.22-26.34 1.22s-26.35-.55-26.35-1.22 11.8-1.23 26.35-1.23 26.34.55 26.34 1.23Z" style="fill:#fff;stroke:#263238;stroke-linecap:round;stroke-linejoin:round" transform="translate(-15.44 -37.21)"/><path d="M156.41 307.51v6.65M151.51 308.21v7M144.16 308.38v5.43M134.53 311.88v4.73M124.21 317.13v-5.95M93.42 307.51v2.97M97.44 315.91v-3.5M113.36 316.26v-4.2" style="fill:none;stroke:#263238;stroke-linecap:round;stroke-linejoin:round"/><path d="M109.27 335.15v8.58c0 1 15.36 1.9 34.3 1.9s34.3-.85 34.3-1.9v-8.58Z" style="fill:#fff;stroke:#263238;stroke-linecap:round;stroke-linejoin:round" transform="translate(-15.44 -37.21)"/><ellipse cx="128.13" cy="297.95" rx="34.3" ry="1.91" style="fill:#fff;stroke:#263238;stroke-linecap:round;stroke-linejoin:round"/><path d="M169.91 334.91c0 .68-11.79 1.23-26.34 1.23s-26.35-.55-26.35-1.23 11.8-1.22 26.35-1.22 26.34.55 26.34 1.22Z" style="fill:#fff;stroke:#263238;stroke-linecap:round;stroke-linejoin:round" transform="translate(-15.44 -37.21)"/><path d="M159.01 298.92v6.65M154.11 299.62v7M146.76 299.8v5.42M137.14 303.3v4.72M126.81 308.55v-5.95M96.02 298.92v2.98M100.04 307.32v-3.5M115.96 307.67v-4.2" style="fill:none;stroke:#263238;stroke-linecap:round;stroke-linejoin:round"/><path d="M109.27 327.1v8.57c0 1.05 15.36 1.91 34.3 1.91s34.3-.86 34.3-1.91v-8.57Z" style="fill:#fff;stroke:#263238;stroke-linecap:round;stroke-linejoin:round" transform="translate(-15.44 -37.21)"/><path d="M177.87 327.1c0 1-15.36 1.9-34.3 1.9s-34.3-.85-34.3-1.9 15.36-1.91 34.3-1.91 34.3.86 34.3 1.91Z" style="fill:#fff;stroke:#263238;stroke-linecap:round;stroke-linejoin:round" transform="translate(-15.44 -37.21)"/><path d="M169.91 326.86c0 .67-11.79 1.22-26.34 1.22s-26.35-.55-26.35-1.22 11.8-1.23 26.35-1.23 26.34.55 26.34 1.23Z" style="fill:#fff;stroke:#263238;stroke-linecap:round;stroke-linejoin:round" transform="translate(-15.44 -37.21)"/><path d="M159.01 290.87v6.65M154.11 291.57v7M146.76 291.74v5.43M137.14 295.24v4.73M126.81 300.49v-5.95M96.02 290.87v2.97M100.04 299.27v-3.5M115.96 299.62v-4.2" style="fill:none;stroke:#263238;stroke-linecap:round;stroke-linejoin:round"/><path d="M106 319v8.58c0 1.05 15.36 1.9 34.3 1.9s34.3-.85 34.3-1.9V319Z" style="fill:#fff;stroke:#263238;stroke-linecap:round;stroke-linejoin:round" transform="translate(-15.44 -37.21)"/><path d="M174.57 319c0 1-15.35 1.91-34.3 1.91S106 320.09 106 319s15.36-1.9 34.3-1.9 34.27.9 34.27 1.9Z" style="fill:#fff;stroke:#263238;stroke-linecap:round;stroke-linejoin:round" transform="translate(-15.44 -37.21)"/><path d="M166.62 318.8c0 .68-11.8 1.23-26.35 1.23s-26.34-.55-26.34-1.23 11.79-1.22 26.34-1.22 26.35.55 26.35 1.22Z" style="fill:#fff;stroke:#263238;stroke-linecap:round;stroke-linejoin:round" transform="translate(-15.44 -37.21)"/><path d="M155.71 282.81v6.65M150.81 283.51v7M143.46 283.69v5.42M133.84 287.19v4.72M123.52 292.44v-5.95M92.72 282.81v2.98M96.75 291.21v-3.5M112.67 291.56v-4.2" style="fill:none;stroke:#263238;stroke-linecap:round;stroke-linejoin:round"/><path d="M102 311v8.57c0 1.05 15.35 1.91 34.3 1.91s34.29-.86 34.29-1.91V311Z" style="fill:#fff;stroke:#263238;stroke-linecap:round;stroke-linejoin:round" transform="translate(-15.44 -37.21)"/><path d="M170.54 311c0 1.05-15.35 1.9-34.29 1.9S102 312 102 311s15.35-1.91 34.3-1.91 34.24.84 34.24 1.91Z" style="fill:#fff;stroke:#263238;stroke-linecap:round;stroke-linejoin:round" transform="translate(-15.44 -37.21)"/><path d="M162.59 310.75c0 .67-11.79 1.22-26.34 1.22s-26.35-.55-26.35-1.22 11.8-1.23 26.35-1.23 26.34.55 26.34 1.23Z" style="fill:#fff;stroke:#263238;stroke-linecap:round;stroke-linejoin:round" transform="translate(-15.44 -37.21)"/><path d="M151.68 274.76v6.65M146.78 275.46v7M139.44 275.63v5.43M129.81 279.13v4.73M119.49 284.38v-5.95M88.7 274.76v2.97M92.72 283.16v-3.5M108.64 283.51v-4.2" style="fill:none;stroke:#263238;stroke-linecap:round;stroke-linejoin:round"/><path d="M45.36 432.41V441c0 1 15.36 1.91 34.3 1.91S114 442 114 441v-8.57Z" style="fill:#fff;stroke:#263238;stroke-linecap:round;stroke-linejoin:round" transform="translate(-15.44 -37.21)"/><ellipse cx="64.22" cy="395.2" rx="34.3" ry="1.91" style="fill:#fff;stroke:#263238;stroke-linecap:round;stroke-linejoin:round"/><path d="M106 432.17c0 .67-11.8 1.22-26.35 1.22s-26.34-.55-26.34-1.22 11.79-1.23 26.34-1.23 26.35.55 26.35 1.23Z" style="fill:#fff;stroke:#263238;stroke-linecap:round;stroke-linejoin:round" transform="translate(-15.44 -37.21)"/><path d="M95.1 396.18v6.65M90.2 396.88v7M82.85 397.05v5.43M73.23 400.55v4.73M62.91 405.8v-5.95M32.11 396.18v2.97M36.14 404.58v-3.5M52.06 404.93v-4.2" style="fill:none;stroke:#263238;stroke-linecap:round;stroke-linejoin:round"/><path d="M47.48 423.61v8.57c0 1.05 15.36 1.9 34.3 1.9s34.3-.85 34.3-1.9v-8.57Z" style="fill:#fff;stroke:#263238;stroke-linecap:round;stroke-linejoin:round" transform="translate(-15.44 -37.21)"/><ellipse cx="66.34" cy="386.4" rx="34.3" ry="1.91" style="fill:#fff;stroke:#263238;stroke-linecap:round;stroke-linejoin:round"/><ellipse cx="66.34" cy="386.16" rx="26.35" ry="1.22" style="fill:#fff;stroke:#263238;stroke-linecap:round;stroke-linejoin:round"/><path d="M97.22 387.38v6.65M92.32 388.08v7M84.97 388.25v5.43M75.35 391.75v4.73M65.03 397v-5.95M34.23 387.38v2.97M38.26 395.78v-3.5M54.18 396.13v-4.2" style="fill:none;stroke:#263238;stroke-linecap:round;stroke-linejoin:round"/><path d="M48.67 414.8v8.58c0 1.05 15.36 1.9 34.3 1.9s34.3-.85 34.3-1.9v-8.58Z" style="fill:#fff;stroke:#263238;stroke-linecap:round;stroke-linejoin:round" transform="translate(-15.44 -37.21)"/><ellipse cx="67.53" cy="377.6" rx="34.3" ry="1.91" style="fill:#fff;stroke:#263238;stroke-linecap:round;stroke-linejoin:round"/><path d="M109.32 414.56c0 .68-11.8 1.23-26.35 1.23s-26.34-.55-26.34-1.23 11.79-1.22 26.34-1.22 26.35.55 26.35 1.22Z" style="fill:#fff;stroke:#263238;stroke-linecap:round;stroke-linejoin:round" transform="translate(-15.44 -37.21)"/><path d="M98.41 378.57v6.65M93.51 379.27v7M86.16 379.45v5.42M76.54 382.95v4.72M66.22 388.2v-5.95M35.42 378.57v2.98M39.45 386.97v-3.5M55.37 387.32v-4.2" style="fill:none;stroke:#263238;stroke-linecap:round;stroke-linejoin:round"/><path d="M47.48 406v8.57c0 1.06 15.36 1.91 34.3 1.91s34.3-.85 34.3-1.91V406Z" style="fill:#fff;stroke:#263238;stroke-linecap:round;stroke-linejoin:round" transform="translate(-15.44 -37.21)"/><ellipse cx="66.34" cy="368.79" rx="34.3" ry="1.91" style="fill:#fff;stroke:#263238;stroke-linecap:round;stroke-linejoin:round"/><ellipse cx="66.34" cy="368.55" rx="26.35" ry="1.22" style="fill:#fff;stroke:#263238;stroke-linecap:round;stroke-linejoin:round"/><path d="M97.22 369.77v6.65M92.32 370.47v7M84.97 370.65v5.42M75.35 374.15v4.72M65.03 379.4v-5.95M34.23 369.77v2.98M38.26 378.17v-3.5M54.18 378.52v-4.2" style="fill:none;stroke:#263238;stroke-linecap:round;stroke-linejoin:round"/><path d="M49.39 397.2v8.57c0 1.05 15.35 1.91 34.3 1.91s34.29-.86 34.29-1.91v-8.57Z" style="fill:#fff;stroke:#263238;stroke-linecap:round;stroke-linejoin:round" transform="translate(-15.44 -37.21)"/><ellipse cx="68.24" cy="359.99" rx="34.3" ry="1.91" style="fill:#fff;stroke:#263238;stroke-linecap:round;stroke-linejoin:round"/><path d="M110 397c0 .67-11.79 1.22-26.34 1.22s-26.35-.55-26.35-1.22 11.8-1.23 26.35-1.23S110 396.28 110 397Z" style="fill:#fff;stroke:#263238;stroke-linecap:round;stroke-linejoin:round" transform="translate(-15.44 -37.21)"/><path d="M99.12 360.97v6.65M94.22 361.67v7M86.88 361.84v5.43M77.25 365.34v4.73M66.93 370.59v-5.95M36.14 360.97v2.97M40.16 369.37v-3.5M56.08 369.72v-4.2" style="fill:none;stroke:#263238;stroke-linecap:round;stroke-linejoin:round"/><path d="M44.87 388.4v8.6c0 1 15.35 1.9 34.29 1.9s34.3-.85 34.3-1.9v-8.6Z" style="fill:#fff;stroke:#263238;stroke-linecap:round;stroke-linejoin:round" transform="translate(-15.44 -37.21)"/><ellipse cx="63.72" cy="351.19" rx="34.3" ry="1.91" style="fill:#fff;stroke:#263238;stroke-linecap:round;stroke-linejoin:round"/><path d="M105.51 388.16c0 .67-11.79 1.22-26.35 1.22s-26.34-.55-26.34-1.22 11.79-1.23 26.34-1.23 26.35.55 26.35 1.23Z" style="fill:#fff;stroke:#263238;stroke-linecap:round;stroke-linejoin:round" transform="translate(-15.44 -37.21)"/><path d="M94.6 352.17v6.65M89.7 352.87v7M82.36 353.04v5.43M72.73 356.54v4.73M62.41 361.79v-5.95M31.62 352.17v2.97M35.64 360.57v-3.5M51.56 360.92v-4.2" style="fill:none;stroke:#263238;stroke-linecap:round;stroke-linejoin:round"/><circle cx="98.54" cy="377.74" r="37.54" style="fill:#263238;stroke:#263238;stroke-linecap:round;stroke-linejoin:round"/><circle cx="96.34" cy="377.74" r="37.54" style="fill:#fff;stroke:#263238;stroke-linecap:round;stroke-linejoin:round"/><circle cx="96.34" cy="377.74" r="32.56" style="fill:#fff;stroke:#263238;stroke-linecap:round;stroke-linejoin:round"/><path d="m121.13 441.31-2-5.13q-5.44 1.81-9.35-.33t-6.7-8.71l7.47-4.28a21.19 21.19 0 0 0 2.16 4.18 5 5 0 0 0 2.14 1.91 3.07 3.07 0 0 0 2.23 0c1-.38 1.47-.95 1.51-1.73a5.24 5.24 0 0 0-.37-2.24 8.13 8.13 0 0 0-2.92-3.98 20.41 20.41 0 0 0-4.75-2.3l-4.91-1.7a33.09 33.09 0 0 1-3.94-1.78 12.88 12.88 0 0 1-3.38-2.62 13.33 13.33 0 0 1-2.59-4.34q-1.91-4.92-.18-8.83a12.52 12.52 0 0 1 6.37-6.11L100 388.4l2.65-1 1.89 4.88a10.11 10.11 0 0 1 5.36-.51 8.54 8.54 0 0 1 3.89 1.95 14.17 14.17 0 0 1 2.72 3.3 30.26 30.26 0 0 1 1.83 3.56l-7.65 4.11a34.65 34.65 0 0 0-1.51-3.18 5 5 0 0 0-1.56-1.86 2 2 0 0 0-2 0 2.22 2.22 0 0 0-1.49 1.84 4.63 4.63 0 0 0 .22 2.42 6.54 6.54 0 0 0 2.83 3.52 30 30 0 0 0 3.9 1.8l4.71 1.69a33.09 33.09 0 0 1 4.58 2.16 16.52 16.52 0 0 1 3.93 3.12 15.23 15.23 0 0 1 2.88 4.79 11.93 11.93 0 0 1 .81 5.48 10.18 10.18 0 0 1-1.82 5 11.88 11.88 0 0 1-4.41 3.72l2 5.18Z" style="fill:#263238;stroke:#263238;stroke-linecap:round;stroke-linejoin:round" transform="translate(-15.44 -37.21)"/><path d="m120.17 441.31-2-5.13q-5.45 1.81-9.35-.33t-6.71-8.71l7.47-4.28a22.32 22.32 0 0 0 2.16 4.18 5.09 5.09 0 0 0 2.16 1.96 3.07 3.07 0 0 0 2.23 0c1-.38 1.47-.95 1.51-1.73a5.56 5.56 0 0 0-.37-2.24 8.19 8.19 0 0 0-2.92-3.91 20.41 20.41 0 0 0-4.75-2.3l-4.91-1.82a33.24 33.24 0 0 1-4-1.78 13 13 0 0 1-3.38-2.62 13.49 13.49 0 0 1-2.58-4.34q-1.92-4.92-.18-8.83a12.52 12.52 0 0 1 6.37-6.11L99 388.39l2.64-1 1.9 4.88a10.1 10.1 0 0 1 5.36-.51 8.59 8.59 0 0 1 3.89 1.95 14.42 14.42 0 0 1 2.72 3.3 30.26 30.26 0 0 1 1.83 3.56l-7.66 4.11q-.78-1.85-1.5-3.18a5.18 5.18 0 0 0-1.56-1.86 2 2 0 0 0-2 0 2.21 2.21 0 0 0-1.5 1.84 4.63 4.63 0 0 0 .23 2.42 6.5 6.5 0 0 0 2.83 3.52 29.26 29.26 0 0 0 3.89 1.8l4.72 1.69a33 33 0 0 1 4.61 2.09 16.38 16.38 0 0 1 3.94 3.12 15 15 0 0 1 2.87 4.79 11.81 11.81 0 0 1 .82 5.48 10.28 10.28 0 0 1-1.82 5 11.88 11.88 0 0 1-4.41 3.72l2 5.18Z" style="fill:#fff;stroke:#263238;stroke-linecap:round;stroke-linejoin:round" transform="translate(-15.44 -37.21)"/><path d="M280.23 210.22c-64.4-25.71-128.79 26.08-193.18.38v-99.86c64.39 25.7 128.78-26.09 193.18-.38Z" style="fill:#92e3a9;stroke:#263238;stroke-linecap:round;stroke-linejoin:round" transform="translate(-15.44 -37.21)"/><path d="M269 134.09c-9.19-2.45-16.63-10.42-16.63-19.64 0-.45 0-.89.07-1.34-45.55-4.65-91.1 18.28-136.64 14 0 .44.07.89.07 1.35 0 9.14-7.45 16.12-16.63 13.75a17 17 0 0 1-1.83-.59v43.18c.6.11 1.21.23 1.83.39 9.18 2.36 16.63 10.28 16.63 19.5a16.33 16.33 0 0 1-.33 3.24c45.72 4.43 91.44-18.69 137.15-13.91a17.25 17.25 0 0 1-.32-3.3c0-9.15 7.44-16.07 16.63-13.62.33.09.65.21 1 .32v-43.11c-.4-.07-.72-.13-1-.22Z" style="fill:#fff;stroke:#263238;stroke-linecap:round;stroke-linejoin:round" transform="translate(-15.44 -37.21)"/><path d="M207.62 156.51c0 13.21-10.73 25.8-24 28.55s-24-6.15-24-19.43 10.74-25.79 24-28.55 24 6.15 24 19.43Z" style="fill:#92e3a9;stroke:#263238;stroke-linecap:round;stroke-linejoin:round" transform="translate(-15.44 -37.21)"/><path d="M183.22 179.12v-3.48c-2.41.38-4.22 0-5.42-1.24s-1.86-3.28-2-6.26l5.37-1.88a12.42 12.42 0 0 0 .31 2.88 2.46 2.46 0 0 0 .83 1.45 1.67 1.67 0 0 0 1.32.23 1.62 1.62 0 0 0 1.27-.93 3.82 3.82 0 0 0 .3-1.46 4.38 4.38 0 0 0-.82-2.8 9.2 9.2 0 0 0-2.27-2l-2.44-1.63a15.77 15.77 0 0 1-1.91-1.56 6.44 6.44 0 0 1-1.38-2 7.5 7.5 0 0 1-.53-3 8.41 8.41 0 0 1 1.91-5.61 10 10 0 0 1 5.14-3.18v-3.33l1.79-.36v3.3a5.64 5.64 0 0 1 3.27.27 4 4 0 0 1 1.84 1.66 7.47 7.47 0 0 1 .84 2.39 17.33 17.33 0 0 1 .26 2.46l-5.44 1.76a21.34 21.34 0 0 0-.15-2.18 2.65 2.65 0 0 0-.5-1.35 1.08 1.08 0 0 0-1.17-.24 1.79 1.79 0 0 0-1.3 1 3.45 3.45 0 0 0-.42 1.56 3.41 3.41 0 0 0 .86 2.54 12.94 12.94 0 0 0 1.88 1.57l2.38 1.59a15.86 15.86 0 0 1 2.2 1.87 8.2 8.2 0 0 1 1.59 2.42 8.48 8.48 0 0 1 .6 3.36 8.61 8.61 0 0 1-.77 3.56 8.71 8.71 0 0 1-2.21 2.95 9.46 9.46 0 0 1-3.44 1.87v3.51ZM244.53 221.36A87.94 87.94 0 0 1 143 241.89l4.71-7.43-26.34-1.1 12.21 23.36 4.81-7.57a96.47 96.47 0 0 0 112.48-22ZM221.69 84.79l-5.19 7 26.21 2.92-10.58-24.1-5.33 7.25a96.46 96.46 0 0 0-120.55 21.62l6.49 5.54a87.91 87.91 0 0 1 109-20.23Z" style="fill:#263238" transform="translate(-15.44 -37.21)"/><path d="M470.78 452.35H428l13.72-14.92s5-2.06 8.92-.91 20.14 15.83 20.14 15.83Z" style="fill:#fff;stroke:#263238;stroke-linecap:round;stroke-linejoin:round" transform="translate(-15.44 -37.21)"/><path d="M445.56 290.62 474.12 449a2.87 2.87 0 0 1-4.48 2.85l-18.5-13.1a6.52 6.52 0 0 0-8.4.74L427.44 456a1.51 1.51 0 0 1-2.59-1l-8.15-155.9Z" style="fill:#263238;stroke:#263238;stroke-linejoin:round" transform="translate(-15.44 -37.21)"/><path d="M442.74 439.53a6.43 6.43 0 0 1 3.24-1.77l1.15-.17-23.21-.34.93 17.77.83 1.17a1.37 1.37 0 0 0 1.76-.2Z" style="fill:#fff;stroke:#263238;stroke-linecap:round;stroke-linejoin:round" transform="translate(-15.44 -37.21)"/><path d="M122.19 419.08h288.52l19.41-165.66H141.6l-19.41 165.66z" style="fill:#fff;stroke:#263238;stroke-linecap:round;stroke-linejoin:round"/><path d="m292.13 341.75 1-8.25a2 2 0 0 1-.31.12l-.5.14-.5.13-.32.1.15-1.29a4.24 4.24 0 0 0 .46-.18c.19-.07.39-.16.59-.25a6.5 6.5 0 0 0 .59-.32 2.65 2.65 0 0 0 .47-.37h1.33l-1.19 10.17ZM328.43 341.75l.14-1.23 3-3.88.61-.81a4.92 4.92 0 0 0 .5-.81 2.79 2.79 0 0 0 .27-.93 1.49 1.49 0 0 0-.1-.86.62.62 0 0 0-.6-.3 1 1 0 0 0-.65.22 1.34 1.34 0 0 0-.38.59 3.86 3.86 0 0 0-.17.81v.42h-1.71l.05-.45a4.55 4.55 0 0 1 .46-1.59 2.66 2.66 0 0 1 1-1.07 3 3 0 0 1 1.59-.39 2.28 2.28 0 0 1 1.88.7 2.53 2.53 0 0 1 .42 2 3.67 3.67 0 0 1-.3 1.14 5.66 5.66 0 0 1-.58 1c-.23.31-.48.63-.74 1l-2.46 3.16h3.09l-.16 1.39ZM368.71 341.91a2.68 2.68 0 0 1-1.5-.36 1.78 1.78 0 0 1-.73-1 4 4 0 0 1-.08-1.54v-.35h1.72V338.96a3.79 3.79 0 0 0 0 .82.69.69 0 0 0 .77.69.89.89 0 0 0 .61-.19 1.22 1.22 0 0 0 .33-.55 5.59 5.59 0 0 0 .17-.87 2.52 2.52 0 0 0-.1-1.22.94.94 0 0 0-.9-.49h-.29l.17-1.39h.26a1.28 1.28 0 0 0 1-.37 2.17 2.17 0 0 0 .4-1.15 2 2 0 0 0-.08-1 .67.67 0 0 0-.7-.37.81.81 0 0 0-.77.4 2.83 2.83 0 0 0-.32 1.05v.37h-1.72v-.49a3.54 3.54 0 0 1 .48-1.47 2.51 2.51 0 0 1 1-.93 3.12 3.12 0 0 1 1.47-.32 2.85 2.85 0 0 1 1.42.31 1.76 1.76 0 0 1 .79.91 3.08 3.08 0 0 1 .14 1.46 3 3 0 0 1-.55 1.49 2.09 2.09 0 0 1-1.06.75 1.38 1.38 0 0 1 .65.43 1.8 1.8 0 0 1 .38.81 3.89 3.89 0 0 1 0 1.2 4.89 4.89 0 0 1-.45 1.61 2.57 2.57 0 0 1-1 1.09 3 3 0 0 1-1.51.37ZM406.7 341.75l.29-2.49h-3l.17-1.49 3.37-6.19h2l-.74 6.29h1l-.16 1.39h-1l-.3 2.49Zm-1.13-3.88h1.59l.51-4.42ZM177.58 365.35A2.63 2.63 0 0 1 176 365a1.63 1.63 0 0 1-.64-1.07 5.37 5.37 0 0 1 0-1.62h1.7a4.92 4.92 0 0 0 0 .91 1 1 0 0 0 .2.62.72.72 0 0 0 .59.21.76.76 0 0 0 .65-.29 1.81 1.81 0 0 0 .33-.79c.07-.34.13-.73.19-1.18a7.9 7.9 0 0 0 0-1 1.29 1.29 0 0 0-.19-.69.69.69 0 0 0-.6-.24.92.92 0 0 0-.63.24 1.72 1.72 0 0 0-.43.65h-1.47l.76-5.67H181l-.18 1.56h-3.11l-.39 2.45a1.48 1.48 0 0 1 .59-.36 2.65 2.65 0 0 1 .81-.17 1.65 1.65 0 0 1 1.88 1.43 5 5 0 0 1 0 1.71 8.85 8.85 0 0 1-.28 1.48 3.65 3.65 0 0 1-.53 1.18 2.32 2.32 0 0 1-.9.77 3.14 3.14 0 0 1-1.31.22ZM216.73 365.33a2.25 2.25 0 0 1-1.48-.44 2.11 2.11 0 0 1-.72-1.19 5 5 0 0 1-.07-1.71l.42-3.56a6.8 6.8 0 0 1 .44-1.79 2.82 2.82 0 0 1 1-1.26 2.76 2.76 0 0 1 1.67-.47 2.85 2.85 0 0 1 1.42.3 1.5 1.5 0 0 1 .72.86 3.21 3.21 0 0 1 .1 1.39v.08a.19.19 0 0 1 0 .08h-1.73a2.25 2.25 0 0 0 0-1c-.08-.23-.3-.34-.66-.34a.79.79 0 0 0-.56.2 1.55 1.55 0 0 0-.37.66 6.38 6.38 0 0 0-.24 1.22l-.14 1.22a1.54 1.54 0 0 1 .59-.46 2.11 2.11 0 0 1 .85-.17 1.84 1.84 0 0 1 1.27.37 1.79 1.79 0 0 1 .56 1 4.75 4.75 0 0 1 0 1.52 6.36 6.36 0 0 1-.46 1.78 2.92 2.92 0 0 1-1 1.23 2.75 2.75 0 0 1-1.61.48Zm.17-1.34a.72.72 0 0 0 .58-.23 1.47 1.47 0 0 0 .34-.62 6.63 6.63 0 0 0 .19-.95c0-.36.06-.69.07-1a1.36 1.36 0 0 0-.15-.69.66.66 0 0 0-.6-.26 1.15 1.15 0 0 0-.41.08 1.63 1.63 0 0 0-.34.21 1.74 1.74 0 0 0-.23.25l-.19 1.6a3.5 3.5 0 0 0 0 .79 1.12 1.12 0 0 0 .22.58.64.64 0 0 0 .52.25ZM250.81 365.2l3.05-8.84h-2.75l.16-1.34h4.46l-.13 1.07-3.11 9.11ZM290.68 365.33a2.67 2.67 0 0 1-1.52-.38 1.83 1.83 0 0 1-.71-1.09 4.74 4.74 0 0 1-.06-1.62 3.77 3.77 0 0 1 .17-.8 3.28 3.28 0 0 1 .32-.68 2.57 2.57 0 0 1 .45-.53 2.13 2.13 0 0 1 .56-.38 2.13 2.13 0 0 1-.66-.86 2.74 2.74 0 0 1-.16-1.39 3.93 3.93 0 0 1 .44-1.44 2.28 2.28 0 0 1 .94-.93 3.1 3.1 0 0 1 1.45-.32 2.53 2.53 0 0 1 1.37.33 1.67 1.67 0 0 1 .71.93 3.75 3.75 0 0 1-.38 2.82 2.91 2.91 0 0 1-.85.86 1.57 1.57 0 0 1 .47.38 1.87 1.87 0 0 1 .32.53 2.34 2.34 0 0 1 .16.68 3.6 3.6 0 0 1 0 .8 4.88 4.88 0 0 1-.44 1.62 2.61 2.61 0 0 1-1 1.09 3.12 3.12 0 0 1-1.58.38Zm.15-1.31a.84.84 0 0 0 .65-.26 1.48 1.48 0 0 0 .35-.63 5.12 5.12 0 0 0 .15-.78 3.89 3.89 0 0 0 0-.83 1.21 1.21 0 0 0-.2-.64.65.65 0 0 0-.58-.25.82.82 0 0 0-.63.25 1.53 1.53 0 0 0-.36.64 3.59 3.59 0 0 0-.18.83 4.17 4.17 0 0 0 0 .79 1.1 1.1 0 0 0 .2.63.71.71 0 0 0 .6.23Zm.57-4.86a.8.8 0 0 0 .52-.22 1.41 1.41 0 0 0 .33-.58 5.35 5.35 0 0 0 .17-.82 2 2 0 0 0-.08-1 .59.59 0 0 0-.6-.36.8.8 0 0 0-.69.36 2.13 2.13 0 0 0-.31.93 4 4 0 0 0 0 .84 1.17 1.17 0 0 0 .2.58.64.64 0 0 0 .46.27ZM328.33 365.33a2.84 2.84 0 0 1-1.41-.3 1.52 1.52 0 0 1-.73-.88 3.27 3.27 0 0 1-.1-1.4v-.14h1.66a2.14 2.14 0 0 0 .05 1c.08.22.31.34.68.34a.74.74 0 0 0 .55-.21 1.45 1.45 0 0 0 .35-.66 6.72 6.72 0 0 0 .24-1.22l.14-1.22a1.31 1.31 0 0 1-.58.45 2.31 2.31 0 0 1-.86.18 1.78 1.78 0 0 1-1.26-.38 1.85 1.85 0 0 1-.56-1.08 4.82 4.82 0 0 1 0-1.53 5.6 5.6 0 0 1 .47-1.76 2.8 2.8 0 0 1 1-1.2 2.87 2.87 0 0 1 1.6-.43 2.35 2.35 0 0 1 1.48.42 2 2 0 0 1 .72 1.16 4.7 4.7 0 0 1 .08 1.7l-.43 3.6a6.6 6.6 0 0 1-.44 1.8 2.92 2.92 0 0 1-.95 1.27 2.7 2.7 0 0 1-1.7.49ZM329 360a1 1 0 0 0 .58-.17 2.2 2.2 0 0 0 .37-.38l.19-1.58a4.4 4.4 0 0 0 0-.8 1.12 1.12 0 0 0-.21-.58.64.64 0 0 0-.53-.22.78.78 0 0 0-.57.23 1.45 1.45 0 0 0-.34.63 4.45 4.45 0 0 0-.19.94 9 9 0 0 0-.07 1 1.18 1.18 0 0 0 .15.69.63.63 0 0 0 .62.24ZM364.74 365.2l1-8.25-.31.11a4.39 4.39 0 0 1-.5.14l-.49.14a1.76 1.76 0 0 0-.32.1l.15-1.3.46-.17.59-.26c.2-.1.4-.2.59-.32a2.56 2.56 0 0 0 .46-.37h1.33l-1.19 10.18ZM372.35 365.35a2.47 2.47 0 0 1-1.43-.38 2 2 0 0 1-.75-1 3.47 3.47 0 0 1-.12-1.53l.53-4.51a4.38 4.38 0 0 1 .46-1.57 2.85 2.85 0 0 1 1-1.05 3 3 0 0 1 1.55-.37 2.55 2.55 0 0 1 1.46.37 2 2 0 0 1 .74 1.05 4 4 0 0 1 .1 1.57l-.53 4.51a4.16 4.16 0 0 1-.48 1.53 2.7 2.7 0 0 1-1 1 2.88 2.88 0 0 1-1.53.38Zm.18-1.5a.75.75 0 0 0 .6-.24 1.28 1.28 0 0 0 .32-.57 3.34 3.34 0 0 0 .14-.67l.53-4.46a5.3 5.3 0 0 0 0-.69 1.2 1.2 0 0 0-.17-.59.64.64 0 0 0-.57-.24.8.8 0 0 0-.62.24 1.58 1.58 0 0 0-.31.59 5.63 5.63 0 0 0-.14.69l-.52 4.46a3.74 3.74 0 0 0 0 .67 1.24 1.24 0 0 0 .19.57.61.61 0 0 0 .55.24ZM402.41 365.2l1-8.25-.31.11a5.07 5.07 0 0 1-.5.14l-.5.14a2.08 2.08 0 0 0-.32.1l.15-1.3.46-.17.59-.26a4.71 4.71 0 0 0 .59-.32 2.25 2.25 0 0 0 .43-.39h1.34l-1.2 10.18ZM408.59 365.2l1-8.25-.31.11a5.07 5.07 0 0 1-.5.14l-.5.14a2.08 2.08 0 0 0-.32.1l.15-1.3.46-.17.59-.26a5.54 5.54 0 0 0 .59-.32 2.25 2.25 0 0 0 .46-.37h1.33l-1.19 10.18ZM173.62 388.64l1-8.25-.31.11-.5.15-.5.13a1.87 1.87 0 0 0-.31.1l.15-1.3.46-.17.59-.26c.2-.1.4-.2.59-.32a3.07 3.07 0 0 0 .46-.36h1.33l-1.19 10.17ZM178.41 388.64l.15-1.23 3-3.88.62-.82a5.7 5.7 0 0 0 .5-.81 3.06 3.06 0 0 0 .26-.92 1.43 1.43 0 0 0-.1-.87.62.62 0 0 0-.59-.3.92.92 0 0 0-.65.23 1.29 1.29 0 0 0-.38.59 4.49 4.49 0 0 0-.18.8l-.05.43h-1.71l.06-.45a4.63 4.63 0 0 1 .45-1.59 2.72 2.72 0 0 1 1-1.08 3 3 0 0 1 1.59-.39 2.29 2.29 0 0 1 1.88.71 2.53 2.53 0 0 1 .42 2 3.69 3.69 0 0 1-.31 1.13 5.74 5.74 0 0 1-.58 1c-.23.31-.47.62-.74.95l-2.45 3.17h3.09l-.17 1.39ZM212.55 388.64l1-8.25-.31.11-.5.15-.49.13a1.76 1.76 0 0 0-.32.1l.15-1.3.46-.17.59-.26c.2-.1.4-.2.59-.32a3.07 3.07 0 0 0 .46-.36h1.33l-1.19 10.17ZM220 388.79a2.71 2.71 0 0 1-1.5-.36 1.73 1.73 0 0 1-.72-1 3.79 3.79 0 0 1-.09-1.53v-.36h1.72v.31a4.45 4.45 0 0 0 0 .81.81.81 0 0 0 .22.52.82.82 0 0 0 .55.17.88.88 0 0 0 .61-.19 1.17 1.17 0 0 0 .33-.55 5.45 5.45 0 0 0 .17-.86 2.45 2.45 0 0 0-.1-1.23.91.91 0 0 0-.89-.48h-.3l.16-1.4h.26a1.27 1.27 0 0 0 1-.37 2.09 2.09 0 0 0 .4-1.15 2 2 0 0 0-.08-1 .67.67 0 0 0-.7-.37.81.81 0 0 0-.77.41 2.9 2.9 0 0 0-.32 1v.38h-1.72l.06-.49a3.36 3.36 0 0 1 .48-1.48 2.49 2.49 0 0 1 1-.93 3.25 3.25 0 0 1 1.47-.32 3 3 0 0 1 1.42.31 1.78 1.78 0 0 1 .79.92 2.93 2.93 0 0 1 .14 1.46 2.89 2.89 0 0 1-.55 1.48 2 2 0 0 1-1.06.75 1.48 1.48 0 0 1 .66.44 1.8 1.8 0 0 1 .37.8 3.35 3.35 0 0 1 0 1.2 5.06 5.06 0 0 1-.44 1.61 2.57 2.57 0 0 1-1 1.09 3 3 0 0 1-1.57.41ZM249 388.64l1-8.25-.31.11-.5.15-.5.13-.32.1.16-1.3.46-.17.59-.26c.2-.1.4-.2.59-.32a3.07 3.07 0 0 0 .46-.36h1.33l-1.19 10.17ZM256.69 388.64l.29-2.5h-3l.18-1.48 3.37-6.19h2l-.73 6.29h1l-.16 1.38h-1.05l-.29 2.5Zm-1.13-3.88h1.58l.52-4.42ZM286.64 388.64l1-8.25-.31.11-.5.15-.5.13a2.08 2.08 0 0 0-.32.1l.15-1.3.46-.17.59-.26a5.54 5.54 0 0 0 .59-.32 2.63 2.63 0 0 0 .46-.36h1.33l-1.19 10.17ZM294 388.79a2.57 2.57 0 0 1-1.53-.38 1.66 1.66 0 0 1-.65-1.06 5.41 5.41 0 0 1 0-1.62h1.69a4.79 4.79 0 0 0 0 .91 1 1 0 0 0 .2.61.68.68 0 0 0 .59.21.78.78 0 0 0 .65-.28 2.05 2.05 0 0 0 .32-.8 9.74 9.74 0 0 0 .19-1.18 6.6 6.6 0 0 0 .06-1 1.45 1.45 0 0 0-.19-.69.7.7 0 0 0-.6-.24.88.88 0 0 0-.63.24 1.68 1.68 0 0 0-.43.65h-1.5l.77-5.66h4.57l-.18 1.55h-3.12l-.39 2.45a1.56 1.56 0 0 1 .59-.36 2.66 2.66 0 0 1 .82-.16 1.79 1.79 0 0 1 1.27.33 1.92 1.92 0 0 1 .61 1.1 5.52 5.52 0 0 1 0 1.7 11.65 11.65 0 0 1-.28 1.49 3.71 3.71 0 0 1-.54 1.17 2.32 2.32 0 0 1-.9.77 3 3 0 0 1-1.39.25ZM324.32 388.64l1-8.25-.31.11-.5.15-.5.13a1.87 1.87 0 0 0-.31.1l.15-1.3.46-.17.59-.26c.2-.1.4-.2.59-.32a3.07 3.07 0 0 0 .46-.36h1.33l-1.19 10.17ZM331.93 388.78a2.31 2.31 0 0 1-1.48-.44 2.17 2.17 0 0 1-.72-1.2 5 5 0 0 1-.07-1.7l.42-3.57a6.8 6.8 0 0 1 .44-1.79 2.82 2.82 0 0 1 1-1.26 2.76 2.76 0 0 1 1.67-.47 2.85 2.85 0 0 1 1.42.3 1.53 1.53 0 0 1 .72.86 3.08 3.08 0 0 1 .1 1.39v.1a.28.28 0 0 1 0 .09h-1.73a2.3 2.3 0 0 0 0-1c-.08-.23-.3-.34-.66-.34a.81.81 0 0 0-.55.2 1.51 1.51 0 0 0-.38.66 6.66 6.66 0 0 0-.23 1.22l-.15 1.22a1.54 1.54 0 0 1 .59-.46 2.13 2.13 0 0 1 .86-.17 1.88 1.88 0 0 1 1.26.37 1.74 1.74 0 0 1 .56 1 4.76 4.76 0 0 1 0 1.52 6.36 6.36 0 0 1-.46 1.78 3 3 0 0 1-1 1.24 2.73 2.73 0 0 1-1.61.45Zm.17-1.35a.75.75 0 0 0 .58-.22 1.45 1.45 0 0 0 .34-.63 6.47 6.47 0 0 0 .19-.94c0-.37.06-.7.07-1a1.36 1.36 0 0 0-.15-.69.66.66 0 0 0-.6-.26 1.15 1.15 0 0 0-.41.08 1.55 1.55 0 0 0-.33.21 1.82 1.82 0 0 0-.24.25l-.19 1.6a4.21 4.21 0 0 0 0 .79 1.09 1.09 0 0 0 .22.58.64.64 0 0 0 .52.23ZM362 388.64l1-8.25-.31.11-.5.15-.5.13a2.08 2.08 0 0 0-.32.1l.15-1.3.46-.17.59-.26a5.54 5.54 0 0 0 .59-.32 2.63 2.63 0 0 0 .46-.36h1.34l-1.2 10.17ZM367.26 388.64l3.06-8.84h-2.75l.16-1.33h4.46l-.13 1.06-3.06 9.11ZM399.67 388.64l1-8.25-.31.11-.5.15-.5.13-.32.1.16-1.3.46-.17.59-.26c.2-.1.4-.2.59-.32a3.07 3.07 0 0 0 .46-.36h1.33l-1.19 10.17ZM407.13 388.78a2.58 2.58 0 0 1-1.51-.39 1.8 1.8 0 0 1-.71-1.09 4.23 4.23 0 0 1-.06-1.61 3.86 3.86 0 0 1 .17-.81 3.2 3.2 0 0 1 .32-.67 2.64 2.64 0 0 1 .45-.54 2.34 2.34 0 0 1 .55-.38 2.2 2.2 0 0 1-.65-.86 2.64 2.64 0 0 1-.16-1.39 3.75 3.75 0 0 1 .44-1.44 2.34 2.34 0 0 1 .94-.93 3.06 3.06 0 0 1 1.44-.32 2.5 2.5 0 0 1 1.37.33 1.72 1.72 0 0 1 .72.93 3.3 3.3 0 0 1 .09 1.43 3.35 3.35 0 0 1-.48 1.4 2.84 2.84 0 0 1-.84.85 1.74 1.74 0 0 1 .47.38 1.93 1.93 0 0 1 .32.54 2.63 2.63 0 0 1 .16.67 3.73 3.73 0 0 1 0 .81 4.59 4.59 0 0 1-.43 1.61 2.57 2.57 0 0 1-1 1.09 3 3 0 0 1-1.6.39Zm.16-1.32a.89.89 0 0 0 .65-.25 1.46 1.46 0 0 0 .34-.64 4 4 0 0 0 .16-.78 3.82 3.82 0 0 0 0-.82 1.25 1.25 0 0 0-.21-.65.64.64 0 0 0-.58-.25.81.81 0 0 0-.62.25 1.6 1.6 0 0 0-.36.64 3.71 3.71 0 0 0-.18.83 5.27 5.27 0 0 0 0 .79 1.18 1.18 0 0 0 .21.63.67.67 0 0 0 .59.25Zm.57-4.86a.75.75 0 0 0 .52-.22 1.42 1.42 0 0 0 .32-.57 4.64 4.64 0 0 0 .18-.83 2 2 0 0 0-.08-.94.58.58 0 0 0-.6-.37.79.79 0 0 0-.69.37 2 2 0 0 0-.32.93 3.87 3.87 0 0 0 0 .83 1.05 1.05 0 0 0 .2.58.61.61 0 0 0 .47.22ZM170.87 412.08l1-8.25-.31.11-.5.15-.5.13a2.08 2.08 0 0 0-.32.1l.15-1.29.46-.18.59-.26a4.19 4.19 0 0 0 .59-.32 2.23 2.23 0 0 0 .46-.36h1.33l-1.19 10.17ZM178.31 412.22a2.89 2.89 0 0 1-1.41-.3 1.57 1.57 0 0 1-.72-.88 3.18 3.18 0 0 1-.1-1.41v-.14h1.65a2.41 2.41 0 0 0 .05 1c.09.23.32.34.69.34a.79.79 0 0 0 .55-.2 1.55 1.55 0 0 0 .35-.67 6.7 6.7 0 0 0 .23-1.21l.14-1.22a1.4 1.4 0 0 1-.58.45 2.06 2.06 0 0 1-.86.17 1.72 1.72 0 0 1-1.25-.38 1.89 1.89 0 0 1-.57-1.07 5.49 5.49 0 0 1 0-1.53 5.74 5.74 0 0 1 .48-1.77 2.83 2.83 0 0 1 1-1.19 2.78 2.78 0 0 1 1.59-.43 2.38 2.38 0 0 1 1.49.42 2 2 0 0 1 .72 1.16 4.66 4.66 0 0 1 .07 1.69l-.42 3.61a6.8 6.8 0 0 1-.44 1.79 3 3 0 0 1-1 1.28 2.73 2.73 0 0 1-1.66.49Zm.64-5.36a.89.89 0 0 0 .58-.18 2 2 0 0 0 .38-.38l.19-1.58a3.6 3.6 0 0 0 0-.8 1.08 1.08 0 0 0-.2-.57.61.61 0 0 0-.53-.22.74.74 0 0 0-.57.22 1.46 1.46 0 0 0-.35.63 5.42 5.42 0 0 0-.18.94 7.15 7.15 0 0 0-.07 1 1.2 1.2 0 0 0 .15.7.63.63 0 0 0 .65.24ZM208.42 412.08l.14-1.23 3-3.88.62-.82a4.85 4.85 0 0 0 .49-.81 2.74 2.74 0 0 0 .27-.92 1.51 1.51 0 0 0-.1-.87.62.62 0 0 0-.59-.3 1 1 0 0 0-.66.23 1.44 1.44 0 0 0-.38.59 3.77 3.77 0 0 0-.17.8v.43h-1.71l.05-.45a4.7 4.7 0 0 1 .46-1.59 2.58 2.58 0 0 1 1-1.08 3.07 3.07 0 0 1 1.59-.38 2.26 2.26 0 0 1 1.87.7 2.57 2.57 0 0 1 .43 2 3.82 3.82 0 0 1-.31 1.13 5.74 5.74 0 0 1-.58 1c-.23.31-.48.63-.74.95l-2.46 3.17h3.09l-.16 1.39ZM218.74 412.23a2.36 2.36 0 0 1-1.43-.38 1.93 1.93 0 0 1-.76-1 3.44 3.44 0 0 1-.12-1.53l.53-4.51a4.39 4.39 0 0 1 .47-1.56 2.64 2.64 0 0 1 1-1 2.93 2.93 0 0 1 1.54-.38 2.53 2.53 0 0 1 1.46.38 1.92 1.92 0 0 1 .74 1 3.75 3.75 0 0 1 .1 1.56l-.53 4.51a4 4 0 0 1-.47 1.53 2.78 2.78 0 0 1-1 1 2.84 2.84 0 0 1-1.53.38Zm.17-1.49a.79.79 0 0 0 .61-.24 1.55 1.55 0 0 0 .32-.58 6 6 0 0 0 .14-.66l.52-4.46a4.12 4.12 0 0 0 0-.7 1.17 1.17 0 0 0-.17-.58.63.63 0 0 0-.56-.24.78.78 0 0 0-.62.24 1.43 1.43 0 0 0-.32.58 4.11 4.11 0 0 0-.13.7l-.53 4.46a3.61 3.61 0 0 0 0 .66 1.28 1.28 0 0 0 .19.58.61.61 0 0 0 .55.24ZM244.84 412.08l.14-1.23 3-3.88.62-.82a5.63 5.63 0 0 0 .49-.81 2.74 2.74 0 0 0 .27-.92 1.51 1.51 0 0 0-.1-.87.62.62 0 0 0-.59-.3 1 1 0 0 0-.66.23 1.44 1.44 0 0 0-.38.59 3.77 3.77 0 0 0-.17.8l-.05.43h-1.71l.05-.45a4.7 4.7 0 0 1 .46-1.59 2.58 2.58 0 0 1 1-1.08 3.07 3.07 0 0 1 1.59-.38 2.26 2.26 0 0 1 1.87.7 2.57 2.57 0 0 1 .43 2 3.82 3.82 0 0 1-.31 1.13 5.74 5.74 0 0 1-.58 1c-.23.31-.48.63-.74.95l-2.47 3.11h3.09l-.16 1.39ZM253.72 412.08l1-8.25-.3.11-.5.15-.5.13a1.76 1.76 0 0 0-.32.1l.15-1.29.46-.18.59-.26a4.19 4.19 0 0 0 .59-.32 2.54 2.54 0 0 0 .46-.36h1.33l-1.19 10.17ZM282.51 412.08l.15-1.23 3-3.88.62-.82a5.7 5.7 0 0 0 .5-.81 3 3 0 0 0 .26-.92 1.43 1.43 0 0 0-.1-.87.62.62 0 0 0-.59-.3.92.92 0 0 0-.65.23 1.34 1.34 0 0 0-.38.59 4.49 4.49 0 0 0-.18.8l-.05.43h-1.7v-.45a4.7 4.7 0 0 1 .45-1.59 2.72 2.72 0 0 1 1-1.08 3.07 3.07 0 0 1 1.59-.38 2.28 2.28 0 0 1 1.88.7 2.53 2.53 0 0 1 .42 2 3.54 3.54 0 0 1-.31 1.13 5.74 5.74 0 0 1-.58 1c-.23.31-.47.63-.74.95l-2.45 3.17h3.09l-.17 1.39ZM290 412.08l.14-1.23 3-3.88.62-.82a4.85 4.85 0 0 0 .49-.81 2.74 2.74 0 0 0 .27-.92 1.51 1.51 0 0 0-.1-.87.62.62 0 0 0-.59-.3 1 1 0 0 0-.66.23 1.33 1.33 0 0 0-.37.59 3.23 3.23 0 0 0-.18.8l-.05.43h-1.71l.05-.45a4.94 4.94 0 0 1 .46-1.59 2.58 2.58 0 0 1 1-1.08 3.07 3.07 0 0 1 1.59-.38 2.26 2.26 0 0 1 1.87.7 2.53 2.53 0 0 1 .43 2 3.82 3.82 0 0 1-.31 1.13 5.74 5.74 0 0 1-.58 1c-.23.31-.48.63-.74.95l-2.46 3.17h3.09l-.16 1.39ZM320.19 412.08l.14-1.23 3-3.88.61-.82a4.92 4.92 0 0 0 .5-.81 2.74 2.74 0 0 0 .27-.92 1.51 1.51 0 0 0-.1-.87.62.62 0 0 0-.6-.3 1 1 0 0 0-.65.23 1.44 1.44 0 0 0-.38.59 3.77 3.77 0 0 0-.17.8v.43H321l.05-.45a4.49 4.49 0 0 1 .46-1.59 2.63 2.63 0 0 1 1-1.08 3.12 3.12 0 0 1 1.59-.38 2.27 2.27 0 0 1 1.88.7 2.57 2.57 0 0 1 .43 2 3.82 3.82 0 0 1-.31 1.13 5.74 5.74 0 0 1-.58 1c-.23.31-.48.63-.74.95l-2.46 3.17h3.09l-.16 1.39ZM330.29 412.23a2.73 2.73 0 0 1-1.5-.36 1.7 1.7 0 0 1-.72-1 3.84 3.84 0 0 1-.09-1.54v-.35h1.72v.3a4.46 4.46 0 0 0 0 .81.81.81 0 0 0 .22.52.77.77 0 0 0 .55.17.92.92 0 0 0 .61-.18 1.18 1.18 0 0 0 .33-.56 5.45 5.45 0 0 0 .17-.86 2.45 2.45 0 0 0-.1-1.23.93.93 0 0 0-.89-.48h-.29l.16-1.4h.26a1.23 1.23 0 0 0 1-.37 2.05 2.05 0 0 0 .4-1.14 2 2 0 0 0-.08-1c-.1-.24-.33-.36-.7-.36a.81.81 0 0 0-.77.4 3 3 0 0 0-.32 1v.38h-1.72l.06-.49A3.36 3.36 0 0 1 329 403a2.63 2.63 0 0 1 1-.93 3.25 3.25 0 0 1 1.47-.32 2.84 2.84 0 0 1 1.42.32 1.72 1.72 0 0 1 .79.91 2.94 2.94 0 0 1 .14 1.46 2.89 2.89 0 0 1-.55 1.48 2.07 2.07 0 0 1-1.05.76 1.4 1.4 0 0 1 .65.43 1.8 1.8 0 0 1 .37.8 3.35 3.35 0 0 1 0 1.2 5.2 5.2 0 0 1-.44 1.62 2.61 2.61 0 0 1-1 1.08 3 3 0 0 1-1.51.42ZM357.86 412.08l.15-1.23 3-3.88.62-.82a5.7 5.7 0 0 0 .5-.81 3 3 0 0 0 .26-.92 1.51 1.51 0 0 0-.1-.87.62.62 0 0 0-.59-.3 1 1 0 0 0-.66.23 1.42 1.42 0 0 0-.37.59 3.76 3.76 0 0 0-.18.8l-.05.43h-1.71l.06-.45a4.7 4.7 0 0 1 .45-1.59 2.65 2.65 0 0 1 1-1.08 3.07 3.07 0 0 1 1.59-.38 2.28 2.28 0 0 1 1.88.7 2.53 2.53 0 0 1 .42 2 3.54 3.54 0 0 1-.31 1.13 5.74 5.74 0 0 1-.58 1c-.23.31-.47.63-.74.95l-2.5 3.11h3.09l-.17 1.39ZM368.19 412.08l.29-2.5h-3l.17-1.48 3.38-6.19h2l-.74 6.29h1l-.16 1.38h-1l-.29 2.5Zm-1.13-3.88h1.58l.52-4.42ZM395.54 412.08l.14-1.23 3-3.88.61-.82a4.92 4.92 0 0 0 .5-.81 2.74 2.74 0 0 0 .27-.92 1.51 1.51 0 0 0-.1-.87.62.62 0 0 0-.6-.3 1 1 0 0 0-.65.23 1.44 1.44 0 0 0-.38.59 3.77 3.77 0 0 0-.17.8l-.05.43h-1.71l.05-.45a4.49 4.49 0 0 1 .46-1.59 2.63 2.63 0 0 1 1-1.08 3.12 3.12 0 0 1 1.59-.38 2.27 2.27 0 0 1 1.88.7 2.57 2.57 0 0 1 .43 2 3.82 3.82 0 0 1-.31 1.13 5.74 5.74 0 0 1-.58 1c-.23.31-.48.63-.74.95l-2.46 3.17h3.09l-.16 1.39ZM405.63 412.23a2.5 2.5 0 0 1-1.53-.38 1.62 1.62 0 0 1-.65-1.06 5.09 5.09 0 0 1 0-1.62h1.69a5.89 5.89 0 0 0 0 .91 1.05 1.05 0 0 0 .21.61.66.66 0 0 0 .58.21.77.77 0 0 0 .66-.28 2 2 0 0 0 .32-.79 10.27 10.27 0 0 0 .19-1.19 5.43 5.43 0 0 0 0-1 1.19 1.19 0 0 0-.19-.68.66.66 0 0 0-.6-.25.88.88 0 0 0-.63.25 1.66 1.66 0 0 0-.42.64h-1.5l.76-5.66h4.58l-.19 1.56h-3.11l-.39 2.44a1.56 1.56 0 0 1 .59-.36 2.66 2.66 0 0 1 .82-.16 1.75 1.75 0 0 1 1.26.34 1.87 1.87 0 0 1 .62 1.09 5.59 5.59 0 0 1 0 1.71 11.81 11.81 0 0 1-.28 1.48 3.94 3.94 0 0 1-.54 1.17 2.32 2.32 0 0 1-.9.77 3 3 0 0 1-1.35.25ZM166.74 435.52l.15-1.23 3-3.88c.22-.28.43-.55.62-.81a5.7 5.7 0 0 0 .5-.81 3 3 0 0 0 .26-.93 1.49 1.49 0 0 0-.1-.86.62.62 0 0 0-.59-.31 1 1 0 0 0-.66.23 1.42 1.42 0 0 0-.37.59 3.76 3.76 0 0 0-.18.8l-.05.43h-1.71l.06-.45a4.77 4.77 0 0 1 .45-1.59 2.76 2.76 0 0 1 1-1.07 3 3 0 0 1 1.59-.39 2.28 2.28 0 0 1 1.88.7 2.53 2.53 0 0 1 .42 2 3.68 3.68 0 0 1-.31 1.14 5.66 5.66 0 0 1-.58 1c-.23.31-.47.63-.74.95l-2.45 3.17H172l-.17 1.39ZM177.06 435.66a2.29 2.29 0 0 1-1.48-.44 2.1 2.1 0 0 1-.72-1.2 5 5 0 0 1-.07-1.7l.42-3.57a7.33 7.33 0 0 1 .43-1.79 2.84 2.84 0 0 1 1-1.26 2.73 2.73 0 0 1 1.67-.46 3 3 0 0 1 1.42.29 1.56 1.56 0 0 1 .72.86 3.26 3.26 0 0 1 .1 1.4s0 0 0 .08a.21.21 0 0 1 0 .08h-1.67a2.47 2.47 0 0 0 0-1c-.09-.22-.31-.34-.67-.34a.79.79 0 0 0-.55.21 1.46 1.46 0 0 0-.37.65 6.68 6.68 0 0 0-.24 1.23l-.14 1.22a1.37 1.37 0 0 1 .59-.46 2.08 2.08 0 0 1 .85-.17 1.6 1.6 0 0 1 1.83 1.41 5.41 5.41 0 0 1 0 1.52 6.2 6.2 0 0 1-.46 1.77 2.91 2.91 0 0 1-1 1.24 2.72 2.72 0 0 1-1.66.43Zm.17-1.34a.77.77 0 0 0 .58-.23 1.57 1.57 0 0 0 .34-.63 5.24 5.24 0 0 0 .18-.94 7.26 7.26 0 0 0 .07-1 1.23 1.23 0 0 0-.15-.7.63.63 0 0 0-.59-.25 1.11 1.11 0 0 0-.41.08 1.08 1.08 0 0 0-.34.21 1.07 1.07 0 0 0-.23.25l-.19 1.59a3.51 3.51 0 0 0 0 .79 1 1 0 0 0 .22.59.67.67 0 0 0 .52.24ZM205.67 435.52l.15-1.23 3-3.88c.22-.28.43-.55.62-.81a5.7 5.7 0 0 0 .5-.81 3 3 0 0 0 .26-.93 1.41 1.41 0 0 0-.1-.86.62.62 0 0 0-.59-.31.92.92 0 0 0-.65.23 1.34 1.34 0 0 0-.38.59 4.49 4.49 0 0 0-.18.8v.43h-1.8l.06-.45a4.77 4.77 0 0 1 .45-1.59 2.76 2.76 0 0 1 1-1.07 3 3 0 0 1 1.59-.39 2.28 2.28 0 0 1 1.88.7 2.53 2.53 0 0 1 .42 2 3.68 3.68 0 0 1-.31 1.14 5.66 5.66 0 0 1-.58 1c-.23.31-.47.63-.74.95l-2.45 3.17h3.09l-.17 1.39ZM213.65 435.52l3-8.84H214l.16-1.33h4.46l-.13 1.07-3.11 9.1ZM242.09 435.52l.15-1.23 3-3.88c.22-.28.43-.55.62-.81a5.7 5.7 0 0 0 .5-.81 3 3 0 0 0 .26-.93 1.49 1.49 0 0 0-.1-.86.62.62 0 0 0-.59-.31 1 1 0 0 0-.66.23 1.42 1.42 0 0 0-.37.59 4.49 4.49 0 0 0-.18.8l-.05.43h-1.71l.06-.45a4.77 4.77 0 0 1 .45-1.59 2.76 2.76 0 0 1 1-1.07 3 3 0 0 1 1.59-.39 2.28 2.28 0 0 1 1.88.7 2.53 2.53 0 0 1 .42 2A3.68 3.68 0 0 1 248 429a5.66 5.66 0 0 1-.58 1c-.23.31-.47.63-.74.95l-2.45 3.17h3.09l-.17 1.39ZM252.26 435.66a2.56 2.56 0 0 1-1.51-.39 1.87 1.87 0 0 1-.72-1.08 4.75 4.75 0 0 1-.06-1.62 4.81 4.81 0 0 1 .18-.81 2.77 2.77 0 0 1 .32-.67 2.26 2.26 0 0 1 .44-.53 2.35 2.35 0 0 1 .56-.39 2.25 2.25 0 0 1-.66-.86 2.8 2.8 0 0 1-.16-1.38 4 4 0 0 1 .44-1.44 2.3 2.3 0 0 1 .95-.93 3 3 0 0 1 1.44-.32 2.5 2.5 0 0 1 1.37.33 1.65 1.65 0 0 1 .71.92 3.06 3.06 0 0 1 .09 1.44 3.17 3.17 0 0 1-.47 1.39 3 3 0 0 1-.84.85 1.57 1.57 0 0 1 .46.39 1.9 1.9 0 0 1 .33.53 2.63 2.63 0 0 1 .16.67 3.72 3.72 0 0 1 0 .81 4.94 4.94 0 0 1-.43 1.62 2.61 2.61 0 0 1-1 1.08 3 3 0 0 1-1.6.39Zm.16-1.32a.85.85 0 0 0 .65-.25 1.59 1.59 0 0 0 .34-.63 5.24 5.24 0 0 0 .15-.79 3.27 3.27 0 0 0 0-.82 1.28 1.28 0 0 0-.21-.65.68.68 0 0 0-.58-.25.82.82 0 0 0-.62.25 1.74 1.74 0 0 0-.37.64 5.3 5.3 0 0 0-.18.83 4.19 4.19 0 0 0 0 .79 1.16 1.16 0 0 0 .21.64.69.69 0 0 0 .61.24Zm.56-4.86a.77.77 0 0 0 .53-.22 1.55 1.55 0 0 0 .32-.57 3.8 3.8 0 0 0 .17-.83 1.85 1.85 0 0 0-.08-.94.56.56 0 0 0-.59-.36.78.78 0 0 0-.69.36 2 2 0 0 0-.32.93 3.88 3.88 0 0 0 0 .83 1.05 1.05 0 0 0 .2.58.6.6 0 0 0 .48.22ZM279.77 435.52l.14-1.23 3-3.88.61-.81a4.92 4.92 0 0 0 .5-.81 2.79 2.79 0 0 0 .27-.93 1.49 1.49 0 0 0-.1-.86.63.63 0 0 0-.6-.31 1 1 0 0 0-.65.23 1.44 1.44 0 0 0-.38.59 3.77 3.77 0 0 0-.17.8l-.05.43h-1.74v-.45a4.55 4.55 0 0 1 .46-1.59 2.66 2.66 0 0 1 1-1.07 3 3 0 0 1 1.59-.39 2.28 2.28 0 0 1 1.88.7 2.53 2.53 0 0 1 .42 2 3.67 3.67 0 0 1-.3 1.14 5.66 5.66 0 0 1-.58 1c-.23.31-.48.63-.74.95l-2.46 3.17H285l-.16 1.39ZM289.91 435.66a2.84 2.84 0 0 1-1.41-.3 1.54 1.54 0 0 1-.72-.88 3 3 0 0 1-.1-1.41v-.13h1.66a2.22 2.22 0 0 0 0 1c.09.23.31.34.68.34a.73.73 0 0 0 .55-.2 1.45 1.45 0 0 0 .36-.66 7.86 7.86 0 0 0 .23-1.22l.14-1.22a1.4 1.4 0 0 1-.58.45 2.27 2.27 0 0 1-.86.18 1.71 1.71 0 0 1-1.25-.39 1.83 1.83 0 0 1-.57-1.07 4.82 4.82 0 0 1 0-1.53 6 6 0 0 1 .47-1.77 2.92 2.92 0 0 1 1-1.19 2.73 2.73 0 0 1 1.59-.43 2.35 2.35 0 0 1 1.48.42 2 2 0 0 1 .73 1.16 4.94 4.94 0 0 1 .07 1.7l-.42 3.6a7.41 7.41 0 0 1-.44 1.8 2.94 2.94 0 0 1-1 1.27 2.77 2.77 0 0 1-1.61.48Zm.64-5.36a.89.89 0 0 0 .58-.18 1.91 1.91 0 0 0 .38-.37l.18-1.59a3.55 3.55 0 0 0 0-.79 1.11 1.11 0 0 0-.2-.58.61.61 0 0 0-.53-.22.75.75 0 0 0-.58.23 1.47 1.47 0 0 0-.34.62 6.76 6.76 0 0 0-.19.94c0 .37-.06.69-.07 1a1.37 1.37 0 0 0 .15.7.66.66 0 0 0 .62.24ZM320.05 435.67a2.77 2.77 0 0 1-1.5-.35 1.78 1.78 0 0 1-.73-1 4 4 0 0 1-.08-1.54v-.35h1.72v.3a4.56 4.56 0 0 0 0 .82.8.8 0 0 0 .22.51.78.78 0 0 0 .55.18 1 1 0 0 0 .61-.19 1.28 1.28 0 0 0 .33-.55 5.83 5.83 0 0 0 .17-.87 2.52 2.52 0 0 0-.1-1.22.94.94 0 0 0-.9-.49h-.28l.16-1.39h.26a1.28 1.28 0 0 0 1-.37 2.17 2.17 0 0 0 .4-1.15 2.09 2.09 0 0 0-.08-1c-.1-.24-.33-.36-.7-.36a.81.81 0 0 0-.77.4 3 3 0 0 0-.32 1v.38h-1.72l.05-.49a3.5 3.5 0 0 1 .49-1.48 2.46 2.46 0 0 1 1-.92 3.12 3.12 0 0 1 1.47-.32 2.85 2.85 0 0 1 1.42.31 1.76 1.76 0 0 1 .79.91 3.4 3.4 0 0 1-.41 2.94 2.05 2.05 0 0 1-1.06.76 1.46 1.46 0 0 1 .66.43 1.9 1.9 0 0 1 .37.81 3.3 3.3 0 0 1 0 1.19 4.88 4.88 0 0 1-.45 1.62 2.46 2.46 0 0 1-1 1.08 3 3 0 0 1-1.57.4ZM327.75 435.67a2.45 2.45 0 0 1-1.43-.37 2 2 0 0 1-.76-1.05 3.59 3.59 0 0 1-.12-1.53l.53-4.51a4.39 4.39 0 0 1 .47-1.56 2.64 2.64 0 0 1 1-1 3 3 0 0 1 1.54-.37 2.53 2.53 0 0 1 1.46.37 1.87 1.87 0 0 1 .74 1 3.75 3.75 0 0 1 .1 1.56l-.53 4.51a3.87 3.87 0 0 1-.47 1.53 2.73 2.73 0 0 1-1 1.05 2.93 2.93 0 0 1-1.53.37Zm.17-1.49a.79.79 0 0 0 .61-.24 1.55 1.55 0 0 0 .32-.58 3.88 3.88 0 0 0 .14-.66l.52-4.46a3.28 3.28 0 0 0 0-.7 1.07 1.07 0 0 0-.17-.58.63.63 0 0 0-.56-.24.78.78 0 0 0-.62.24 1.3 1.3 0 0 0-.31.58 3.47 3.47 0 0 0-.14.7l-.53 4.46a3.64 3.64 0 0 0 0 .66 1.17 1.17 0 0 0 .19.58.58.58 0 0 0 .55.24ZM357.72 435.67a2.76 2.76 0 0 1-1.49-.35 1.74 1.74 0 0 1-.73-1 3.84 3.84 0 0 1-.08-1.54v-.35h1.72v.3a4.56 4.56 0 0 0 0 .82.81.81 0 0 0 .23.51.74.74 0 0 0 .55.18.9.9 0 0 0 .6-.19 1.11 1.11 0 0 0 .33-.55 4.79 4.79 0 0 0 .17-.87 2.4 2.4 0 0 0-.1-1.22.92.92 0 0 0-.89-.49h-.29l.16-1.39h.27a1.3 1.3 0 0 0 1-.37 2.18 2.18 0 0 0 .39-1.15 2.11 2.11 0 0 0-.07-1c-.1-.24-.34-.36-.71-.36a.82.82 0 0 0-.77.4 2.84 2.84 0 0 0-.31 1v.38h-1.72l.02-.43a3.64 3.64 0 0 1 .48-1.48 2.49 2.49 0 0 1 1-.92 3.12 3.12 0 0 1 1.47-.32 2.87 2.87 0 0 1 1.42.31 1.81 1.81 0 0 1 .79.91 3 3 0 0 1 .13 1.46 2.85 2.85 0 0 1-.55 1.48 2 2 0 0 1-1.05.76 1.43 1.43 0 0 1 .65.43 1.91 1.91 0 0 1 .38.81 3.83 3.83 0 0 1 0 1.19 5.13 5.13 0 0 1-.45 1.62 2.55 2.55 0 0 1-1 1.08 3 3 0 0 1-1.55.34ZM364 435.52l1-8.25a2 2 0 0 1-.31.12l-.5.14-.5.13-.32.1.15-1.29a4.24 4.24 0 0 0 .46-.18c.19-.07.39-.16.59-.25a4.75 4.75 0 0 0 .59-.33 2.24 2.24 0 0 0 .47-.36h1.33l-1.19 10.17ZM176.62 324.1l.29-2.51a6.62 6.62 0 0 0 1.29-.1 1.76 1.76 0 0 0 .83-.35 1.74 1.74 0 0 0 .48-.75 5.71 5.71 0 0 0 .27-1.26l1.77-15.07h3.55l-1.78 15.21a8.8 8.8 0 0 1-.71 2.72 3.33 3.33 0 0 1-1.53 1.59 6 6 0 0 1-2.75.52ZM187.2 323.62l6.21-19.56h3.81l1.62 19.56h-3.31l-.24-4.52h-3.41l-1.32 4.52Zm5.31-6.79h2.66l-.37-8.21ZM203.12 323.62l2.29-19.56h2.49l3.45 11.15 1.3-11.15h2.95l-2.29 19.56h-2.37l-3.41-11.69-1.37 11.69ZM224 323.88a5.61 5.61 0 0 1-3.28-.79 3.46 3.46 0 0 1-1.4-2.27 11.36 11.36 0 0 1-.05-3.53l1.55-13.23h3.48l-1.6 13.64a11.54 11.54 0 0 0-.08 1.73 2.1 2.1 0 0 0 .41 1.3 1.55 1.55 0 0 0 1.29.5 1.9 1.9 0 0 0 1.42-.5 3.07 3.07 0 0 0 .71-1.3 11.29 11.29 0 0 0 .33-1.73l1.6-13.64h3.45l-1.55 13.23a12.75 12.75 0 0 1-.87 3.53 4.82 4.82 0 0 1-1.92 2.27 6.61 6.61 0 0 1-3.49.79ZM233.69 323.62l6.2-19.56h3.82l1.62 19.56H242l-.24-4.52h-3.41l-1.32 4.52Zm5.31-6.79h2.66l-.37-8.21ZM249.6 323.62l2.3-19.56h4.68a9.67 9.67 0 0 1 3.29.47 3.28 3.28 0 0 1 1.89 1.6 5.46 5.46 0 0 1 .35 3.1 9.87 9.87 0 0 1-.47 2.12 4.55 4.55 0 0 1-.92 1.61 3.93 3.93 0 0 1-1.56 1l1.6 9.64h-3.57l-1.32-9h-1.64l-1 9Zm4.89-11.21h1.11a4.06 4.06 0 0 0 1.69-.3 2 2 0 0 0 1-1 4.86 4.86 0 0 0 .46-1.7 3.48 3.48 0 0 0-.28-2.21c-.31-.49-1-.73-2-.73h-1.31ZM268.05 323.62l.88-7.46-2.54-12.1h3.33l1.5 7.75 3.18-7.75h3.26l-5.33 12.1-.87 7.46Z" style="fill:#263238" transform="translate(-15.44 -37.21)"/><path d="M276.55 286.9h134.68" style="fill:none;stroke:#263238;stroke-linecap:round;stroke-linejoin:round"/><path d="M329.38 351.9s-5 7.1-7.1 9.17-7.69 6.21-7.25 7.69 5 2.22 8.88 1.78 10.06-3.4 10.06-3.4 6.36-3.26 9.46-4.89 3.26-2.81 2.67-5.32a26.77 26.77 0 0 0-2.81-6.07s-11.54-.73-13.91 1.04Z" style="fill:#fff;stroke:#263238;stroke-linecap:round;stroke-linejoin:round" transform="translate(-15.44 -37.21)"/><path d="M343.43 362.25c2.26-1.18 2.95-2.13 2.94-3.52a18.69 18.69 0 0 0-5.6 2.19c-2.66 1.78-9 6.36-15.09 8a18 18 0 0 1-10.58-.72 1 1 0 0 0-.07.57c.45 1.48 5 2.22 8.88 1.78s10.06-3.4 10.06-3.4 6.36-3.27 9.46-4.9Z" style="fill:#fff;stroke:#263238;stroke-linecap:round;stroke-linejoin:round" transform="translate(-15.44 -37.21)"/><path d="M320.86 268.67s-20.62 4.08-23.74 12.23 31.66 68.36 31.66 68.36l-1.92 2.63 1.2 1.92s12.47 2.88 14.39 1.68 2.64-1.68 2.64-2.4-3.36-12.47-3.36-12.47l-13.43-48h23s16.57-8.12 18.7-11.72-2.16-10.31-6.24-11.51-30.45-3.12-31.17-2.88-11.73 2.16-11.73 2.16Z" style="fill:#263238;stroke:#263238;stroke-linecap:round;stroke-linejoin:round" transform="translate(-15.44 -37.21)"/><path d="M345.09 353.09s-6.48 8.4-10.56 11-8.63 5-6.95 6.71 10.07 1.68 14.63.72 11.75-3.36 12.71-4.8 2.16-7.43 2.16-7.43-10.08-5-11.99-6.2Z" style="fill:#fff;stroke:#263238;stroke-linecap:round;stroke-linejoin:round" transform="translate(-15.44 -37.21)"/><path d="M354.92 366.76a9.77 9.77 0 0 0 .88-2.2c-2.61.91-13.6 4.69-18.87 5.32a25.69 25.69 0 0 1-9.42-.62 1.15 1.15 0 0 0 .07 1.58c1.68 1.68 10.07 1.68 14.63.72s11.79-3.36 12.71-4.8Z" style="fill:#fff;stroke:#263238;stroke-linecap:round;stroke-linejoin:round" transform="translate(-15.44 -37.21)"/><path d="M361.64 265.79s-17.51 12.72-17.51 16.55 1.68 34.3 1.68 34.3l-.72 32.86a11.57 11.57 0 0 0-1.92 2.39c-.24.72-.72 3.6-.72 3.6a48.3 48.3 0 0 0 6.71 2.88 24.75 24.75 0 0 0 7.92 1s2.16-7.92 2.16-8.88v-3.59l9.83-35 2.4-18.94s17.51.24 22.78-1 8.4-1.68 9.6-7.2-1.44-14.15-1.44-14.15-27.82-12.97-40.77-4.82Z" style="fill:#263238;stroke:#263238;stroke-linecap:round;stroke-linejoin:round" transform="translate(-15.44 -37.21)"/><path d="m367.39 181.37-11.51 4.32-10.07 55.88 6.47 23.5h19l3.36-6.71s-.24-42.69.24-44.37 7.43-27.1 7.43-27.1Z" style="fill:#fff;stroke:#263238;stroke-linecap:round;stroke-linejoin:round" transform="translate(-15.44 -37.21)"/><path d="M364.59 206.42s-1.67 13.15-2.23 25.74M367.67 211.32a1.26 1.26 0 1 1-1.26-1.26 1.25 1.25 0 0 1 1.26 1.26ZM366.69 225.72a1.26 1.26 0 0 1-2.52 0 1.26 1.26 0 1 1 2.52 0ZM365 242.23a1.26 1.26 0 1 1-1.25-1.26 1.25 1.25 0 0 1 1.25 1.26ZM362.07 235.33s-.33 5.46-.5 11.24" style="fill:none;stroke:#263238;stroke-linecap:round;stroke-linejoin:round" transform="translate(-15.44 -37.21)"/><path d="M380.84 182.79s-4.37 15.11-7.52 26.61-1.67 54.71-1.67 54.71 8 .74 11.5 2.41 5.19 5.75 11.12 7.79a31 31 0 0 0 11.73 1.48s-4.45-22.07-4.82-26.52 2-53 .55-54.71-20.89-11.77-20.89-11.77Z" style="fill:#92e3a9;stroke:#263238;stroke-linecap:round;stroke-linejoin:round" transform="translate(-15.44 -37.21)"/><path d="M393.35 262.65a20.33 20.33 0 0 1 3.3 1.71M377.46 261.48a29.19 29.19 0 0 1 13 .2M376.5 259.8s1.2-1.2 5.28-1" style="fill:none;stroke:#263238;stroke-linecap:round;stroke-linejoin:round" transform="translate(-15.44 -37.21)"/><path d="M359.06 181.29s-24.5 14.57-25.06 15.5-13.54 42.28-13.54 42.28l28.38 1.12s7.1-49.72 10.22-58.9Z" style="fill:#92e3a9;stroke:#263238;stroke-linecap:round;stroke-linejoin:round" transform="translate(-15.44 -37.21)"/><path d="m322.91 174.49.5-2.74M318.13 200.77l4.15-22.83" style="fill:none;stroke:#263238;stroke-linecap:round;stroke-linejoin:round"/><path d="m359.06 181.29-5.32 18 10.45-6.69 12.48 8.12s4.58-15.41 4.17-17.9a14.41 14.41 0 0 0-2.5-5.21Z" style="fill:#fff;stroke:#263238;stroke-linecap:round;stroke-linejoin:round" transform="translate(-15.44 -37.21)"/><path d="M359.21 135.82s-7 10.5-7 12.63a20.13 20.13 0 0 1-1.56 6.81c-.56 1-5.39 3-5.11 5a8.2 8.2 0 0 0 2.13 3.83s1.42 14.19 3.55 13.91a43.16 43.16 0 0 1 6.67.14s6.38 24.27 6.95 23.41 13.62-21.28 13.62-21.28 1.14-8.8 1.71-9.79 9.22-7.66 10.78-11.64 1.14-14.61-1.28-18.3-13.62-8.94-19.29-8.51-10.32 1.66-11.17 3.79Z" style="fill:#c4c4c4;stroke:#263238;stroke-linecap:round;stroke-linejoin:round" transform="translate(-15.44 -37.21)"/><path d="M370.42 132c-5.68.42-10.36 1.7-11.21 3.83 0 0-1 2.27 2.27 2.27s11.21-.29 11.21 3.12-5.68 4.82-5.54 6.53 3.69 5.81 3.69 5.81-1.42 4 .29 4.54 1.84-1.7 4-1.13 4.11 5.82 3.12 7.52a19.68 19.68 0 0 1-4 4 55 55 0 0 0 5.8 2.42 1.78 1.78 0 0 1 .16-.43c.56-1 9.22-7.66 10.78-11.64s1.14-14.61-1.28-18.3-13.62-8.98-19.29-8.54Z" style="fill:#263238;stroke:#263238;stroke-linecap:round;stroke-linejoin:round" transform="translate(-15.44 -37.21)"/><path d="M351.11 164.05a7.69 7.69 0 0 0 5.87-1.78s2 3.92-1.24 5.16-4.63-3.38-4.63-3.38ZM355.76 154c-.33 1.12-1 1.92-1.48 1.78s-.62-1.18-.29-2.3 1-1.93 1.49-1.78.62 1.2.28 2.3Z" style="fill:#263238" transform="translate(-15.44 -37.21)"/><path d="M354.86 148.1s2.17-2 3.69.86" style="fill:none;stroke:#263238;stroke-linecap:round;stroke-linejoin:round;stroke-width:2px" transform="translate(-15.44 -37.21)"/><path d="M357.67 154.62c-.79 2.51-2.55 4.19-3.93 3.75s-1.87-2.81-1.08-5.32 2.54-4.18 3.93-3.75 1.86 2.82 1.08 5.32Z" style="fill:none;stroke:#263238;stroke-linecap:round;stroke-linejoin:round" transform="translate(-15.44 -37.21)"/><path d="m337.22 115.85-1.97-.99M342.63 116.28l14.76 3.69" style="fill:none;stroke:#263238;stroke-linecap:round;stroke-linejoin:round"/><path d="M351.26 178s6.24-1.49 6.81-1.49 9.51-3.69 9.51-3.69l-8.52 8.51-1.13-3.19Z" style="fill:#263238;stroke:#263238;stroke-linecap:round;stroke-linejoin:round" transform="translate(-15.44 -37.21)"/><path d="M401.69 194.56s3.16 0 5.38 6.31 13.91 46.18 12.8 48.59-13.91 2.78-15.77.18a41.11 41.11 0 0 1-3.7-7.79l-2.23-25.59" style="fill:#92e3a9;stroke:#263238;stroke-linecap:round;stroke-linejoin:round" transform="translate(-15.44 -37.21)"/><path d="m396.5 228.87-3.34-3.15s-.18-11.87-.74-12.61-7.79-3.71-8.35-3.71-3.89 3.34-3.89 3.34-.93 4.26-1.11 5.37 0 5.94 0 5.94.18 2.78 1.3 3a17.7 17.7 0 0 0 2.41.18 12.07 12.07 0 0 0 2.59 3.53 13.22 13.22 0 0 0 3 1.48l5.19 4.64Z" style="fill:#c4c4c4;stroke:#263238;stroke-linecap:round;stroke-linejoin:round" transform="translate(-15.44 -37.21)"/><path d="m364.74 175.53 9 2.47M364.08 179.64l7.84 2.65M363.63 184.02l7.29 1.82M367.33 190l.58-1.61-1.73-.55" style="fill:none;stroke:#263238;stroke-linecap:round;stroke-linejoin:round"/><path d="m418.57 241.67-22.07-12.8-8 12.61s16.32 16 18.36 17.62 6.49 2.23 8.53 1.67 5.75-5.56 5.75-10.2a19.48 19.48 0 0 0-2.57-8.9Z" style="fill:#92e3a9;stroke:#263238;stroke-linecap:round;stroke-linejoin:round" transform="translate(-15.44 -37.21)"/><path d="m350.38 234.85 16.59-8.41-22.11-1.1 5.52 9.51z" style="fill:#ededed;stroke:#263238;stroke-linecap:round;stroke-linejoin:round"/><path d="m292.66 196.81 9.29 34.94 48.43 3.1-9.95-37.16-47.77-.88z" style="fill:#ccc;stroke:#263238;stroke-linecap:round;stroke-linejoin:round"/><path d="M339.08 252.26c0 1.87-1.87 3.38-4.17 3.38s-4.17-1.51-4.17-3.38 1.86-3.39 4.17-3.39 4.17 1.51 4.17 3.39Z" style="fill:#fff;stroke:#263238;stroke-linecap:round;stroke-linejoin:round" transform="translate(-15.44 -37.21)"/><path d="M308.26 243.43s-.13 2.36.7 2.92 6 1.66 6.38.41.14-2.36-1-2.63-4.55-1.53-6.08-.7Z" style="fill:#c4c4c4;stroke:#263238;stroke-linecap:round;stroke-linejoin:round" transform="translate(-15.44 -37.21)"/><path d="M309 246.35s-.14 2.91.69 3.46 4.16.7 4.86-.13a6.74 6.74 0 0 0 .83-2.92s-4.9.56-6.38-.41Z" style="fill:#c4c4c4;stroke:#263238;stroke-linecap:round;stroke-linejoin:round" transform="translate(-15.44 -37.21)"/><path d="M309.65 249.81a8.27 8.27 0 0 0 1.25 2.5c.56.42 3.75.42 4.16-.41s-.55-2.22-.55-2.22a24.29 24.29 0 0 1-4.86.13Z" style="fill:#c4c4c4;stroke:#263238;stroke-linecap:round;stroke-linejoin:round" transform="translate(-15.44 -37.21)"/><path d="M310.9 252.31a1.83 1.83 0 0 0 1.39 1.67c1.39.41 3.33.55 3.47-.28a2.75 2.75 0 0 0-.7-1.8 12.7 12.7 0 0 1-4.16.41Z" style="fill:#c4c4c4;stroke:#263238;stroke-linecap:round;stroke-linejoin:round" transform="translate(-15.44 -37.21)"/></svg>