<svg xmlns="http://www.w3.org/2000/svg" viewBox="0 0 500 500"><path d="M329 34.58s-77.4-27.52-153.37 16.3S61.3 181.67 28.38 251.34s-14 140.55 44 172.86 97.43-15.32 178.79-17.64 103.27 9.31 170.83-36.65 79.71-154.51 26.46-234.82S329 34.58 329 34.58Z" style="fill:#92e3a9"/><path d="M329 34.58s-77.4-27.52-153.37 16.3S61.3 181.67 28.38 251.34s-14 140.55 44 172.86 97.43-15.32 178.79-17.64 103.27 9.31 170.83-36.65 79.71-154.51 26.46-234.82S329 34.58 329 34.58Z" style="fill:#fff;opacity:.7000000000000001"/><path d="M162 26v435m50-435v435m31-435v435m44-362h176v363H287z" style="fill:none;stroke:#676f74;stroke-linecap:round;stroke-linejoin:round"/><path d="M462.71 99h8.34v363h-8.34z" style="fill:#263238;stroke:#676f74;stroke-linecap:round;stroke-linejoin:round"/><path d="M287.19 132.72h175.66v4.84H287.19zm.34 10.48H462m-171-41.57h22v31h-22zm22 0h2.33v31H313zm5 0h22v31h-22zm22 0h2.33v31H340zm7.04 5.53h18.08v25.48h-18.08zm18.08 0h1.92v25.48h-1.92zm6.88-5.53h22v31h-22zm22 0h2.33v31H394zm9.33 5.53h18.08v25.48h-18.08zm18.09 0h1.92v25.48h-1.92zm8.91 0h18.08v25.48h-18.08zm18.09 0h1.92v25.48h-1.92zm-161.23 77.56h175.66v4.84H287.19zm.34 10.48H462m-172.99-44.1h23.8v33.53h-23.8zm23.8 0h2.52v33.53h-2.52zm5.19 2.53h22v31h-22zm22 0h2.33v31H340zm5 0h22v31h-22zm22 0h2.33v31H367zm5 .46h21.68v30.55H372zm21.68 0h2.3v30.55h-2.3zm7.92 2.85h19.65v27.69H401.6zm19.65 0h2.08v27.69h-2.08zm4.75-9.57h26.44v37.26H426zm26.44 0h2.8v37.26h-2.8zm-165.25 89.35h175.66v4.84H287.19zm.34 10.48H462m-171-41.57h22v31h-22zm22 0h2.33v31H313zm5 0h22v31h-22zm22 0h2.33v31H340zm5 0h22v31h-22zm22 0h2.33v31H367zm7.51 3.21h19.73v27.8h-19.73zm19.73 0h2.09v27.8h-2.09zm4.76-3.21h22v31h-22zm22 0h2.33v31H421zm5 0h22v31h-22zm22 0h2.33v31H448zm-160.81 83.09h175.66v4.84H287.19zm.34 10.48H462m-171-41.57h22v31h-22zm22 0h2.33v31H313zm5 0h22v31h-22zm22 0h2.33v31H340zm5 0h22v31h-22zm22 0h2.33v31H367zm5 0h22v31h-22zm22 0h2.33v31H394zm5 0h22v31h-22zm22 0h2.33v31H421zm5 0h22v31h-22zm22 0h2.33v31H448zm-160.81 83.09h175.66v4.84H287.19zm.34 10.48H462m-171-41.57h22v31h-22zm22 0h2.33v31H313zm5 0h22v31h-22zm22 0h2.33v31H340zm5 0h22v31h-22zm22 0h2.33v31H367zm5 0h22v31h-22zm22 0h2.33v31H394zm5 0h22v31h-22zm22 0h2.33v31H421zm5 0h22v31h-22zm22 0h2.33v31H448zm-160.81 83.09h175.66v4.84H287.19zm.34 10.48H462m-171-41.57h22v31h-22zm22 0h2.33v31H313zm5 0h22v31h-22zm22 0h2.33v31H340zm5 0h22v31h-22zm22 0h2.33v31H367zm5 0h22v31h-22zm22 0h2.33v31H394zm5 0h22v31h-22zm22 0h2.33v31H421zm5 0h22v31h-22zm22 0h2.33v31H448zm-160.81 83.09h175.66v4.84H287.19zm.34 10.48H462m-171-41.57h22v31h-22zm22 0h2.33v31H313zm5 0h22v31h-22zm22 0h2.33v31H340zm5 0h22v31h-22zm22 0h2.33v31H367zm5 0h22v31h-22zm22 0h2.33v31H394zm5 0h22v31h-22zm22 0h2.33v31H421zm5 0h22v31h-22zm22 0h2.33v31H448z" style="fill:none;stroke:#676f74;stroke-linecap:round;stroke-linejoin:round"/><path d="M179.88 205h14.24v63.33h-14.24z" style="fill:#263238;stroke:#263238;stroke-linecap:round;stroke-linejoin:round"/><path d="M144.67 179.67h84.67V243h-84.67z" style="fill:#263238;stroke:#263238;stroke-linecap:round;stroke-linejoin:round"/><path d="M151.12 184.49h71.76v53.68h-71.76z" style="fill:#e5e5e5;stroke:#263238;stroke-linecap:round;stroke-linejoin:round"/><path d="M278.28 449.13 277.13 462h-47.2s-1.14-5.15 1.43-7.15 12-3.72 14-4.29 6-3.72 6-3.72Z" style="fill:#263238;stroke:#263238;stroke-linecap:round;stroke-linejoin:round"/><path d="m277.38 459.06-.25 2.94h-47.2a13.24 13.24 0 0 1-.24-2.9c13.53-.05 39.1-.1 47.69-.04Z" style="fill:#919191;stroke:#263238;stroke-linecap:round;stroke-linejoin:round"/><path d="M278 314.69s-1.43 33.75-1.43 42.62 7.15 25.46 7.44 35.18-4.87 50.92-4.87 50.92l-21.45-.29s-1.69-17.12-2.3-33.46-7.15-55.78-8.58-68.94-4.58-27.18-4.58-27.18Z" style="fill:#263238;stroke:#263238;stroke-linecap:round;stroke-linejoin:round"/><path d="m281.71 440.55-1.72 9.44-22.31-1.15v-10.58l24.03 2.29z" style="fill:#919191;stroke:#263238;stroke-linecap:round;stroke-linejoin:round"/><path d="M284 292.09s-2.58 12.87-3.72 18.59-6.87 20.89-7.15 27.46-2.58 31.47-2.58 45.2-.57 17.16-3.43 28.89-5.72 30.61-5.72 30.61a71 71 0 0 1-12.87-.86 37.28 37.28 0 0 1-13.16-4.58l-.29-5.43s-1.43-7.73-2-10 3.43-12.59 3.43-13.73-3.14-4.87-4.29-10.59-5.15-39.47-5.15-44.34-1.71-38.61-1.71-38.61-3.44-21.74-3.44-24.32 46.63-2.86 54.35-3.43 10.3.85 7.73 5.14Z" style="fill:#919191;stroke:#263238;stroke-linecap:round;stroke-linejoin:round"/><path d="M244 298.38s6.29 10.3 13.73 13.45m-3.03 24.61-.45 2.28m7.72-39.19-6.47 32.86m12.5 7.76a119.85 119.85 0 0 1-13.16 1.14h-17.47l-.28 6.29a65.6 65.6 0 0 0 14.58 1.15 113.76 113.76 0 0 0 16.31-2Z" style="fill:none;stroke:#263238;stroke-linecap:round;stroke-linejoin:round"/><path d="M268 346.73s-.57 11.15-.29 19.45-3.14 9.72-6.86 9.72-20.31 2-22.6.29-3.15-6.29-2.29-10 1.15-18.6 1.15-18.6" style="fill:none;stroke:#263238;stroke-linecap:round;stroke-linejoin:round"/><path d="m259.68 452-.86 10h-47.19s-1.15-5.15 1.43-7.15 12-3.72 14-4.29 6-3.72 6-3.72Z" style="fill:#263238;stroke:#263238;stroke-linecap:round;stroke-linejoin:round"/><path d="m259.08 459.06-.26 2.94h-47.19a12.87 12.87 0 0 1-.25-2.9c13.53-.05 39.1-.1 47.7-.04Zm5.47-19.94s-.58 13.16-2.87 13.73-31.46-4.29-31.75-6.58 2.58-6.58 2.86-8 .29-3.72 1.43-5.43 22.89 3.42 30.33 6.28Z" style="fill:#fff;stroke:#263238;stroke-linecap:round;stroke-linejoin:round"/><path d="M146.52 261.4s-4.62 1.18-5.9 2.26-3 3.93-2.45 5.1 1.57.69 2 .1a17.3 17.3 0 0 1 4.13-4.42 46.41 46.41 0 0 1 5.4-2.75 4.24 4.24 0 0 0-3.18-.29Z" style="fill:#e5e5e5;stroke:#263238;stroke-linecap:round;stroke-linejoin:round"/><path d="m230.25 191.86-19.9 45.76s-6.63 2.66-19.9 7.63-27.19 11.28-30.51 12.27-11.27 2.65-15.25 5-7.41 7.11-4.76 7.44c.93.12 1 1.08 3.34.79a5.78 5.78 0 0 0 2.56-1.28 19.61 19.61 0 0 1 5.82-3 21.79 21.79 0 0 1 8.81-.47 14.25 14.25 0 0 0 4 0 37.89 37.89 0 0 0 4.42-3.48s23.21-2 32.5-3.65 23.21-6.3 23.21-6.3l14.93-60.36Z" style="fill:#fff;stroke:#263238;stroke-linecap:round;stroke-linejoin:round"/><path d="M151.32 262.5s-9.62 3.31-10.28 7.29" style="fill:none;stroke:#263238;stroke-linecap:round;stroke-linejoin:round"/><path d="M168.9 262.5a26.5 26.5 0 0 1-4.65 3.64c-2.32 1.33-5.3.67-7.62 2s-3 2.32-5.64 2-2.66-2.65.66-3.64a18.82 18.82 0 0 0 4.31-1.66l2-2.32" style="fill:#fff;stroke:#263238;stroke-linecap:round;stroke-linejoin:round"/><path d="m183.45 208.62-66.57 1.32-9.22 58.57 81.72.66-5.93-60.55z" style="fill:#92e3a9;stroke:#263238;stroke-linecap:round;stroke-linejoin:round"/><path d="m175.56 268.51 2.63-59.89L144 249l-27.12-39.06" style="fill:none;stroke:#263238;stroke-linecap:round;stroke-linejoin:round"/><path d="M267.41 156.79s5.43 2 13.44 9.44 14.3 26.89 15.16 37.19-5.43 41.76-5.43 49.48-2.29 40.91-3.44 41.77-37.18 3.71-53.2 2.86-16.88-7.16-18.59-13.16-2.87-21.74-.29-39.76 5.72-41.48 12.87-53.49 12-18.31 18-23.75 17.19-11.15 21.48-10.58Z" style="fill:#263238;stroke:#263238;stroke-linecap:round;stroke-linejoin:round"/><path d="m256.72 220.96-13.63-.87v-22.91l13.63.87v22.91z" style="fill:#92e3a9"/><path d="M248.89 193.99h2.61v6.96h-2.61z" style="fill:#fff;stroke:#263238;stroke-linecap:round;stroke-linejoin:round"/><path d="m253.82 216.12-7.83-.76v-11.89l7.83.76v11.89z" style="fill:#fff"/><path d="m256.83 192.35 20.73 46.1-37.78 17.82s-21.56.12-23.24-.17-16.48 9-17.23 9.8a1.1 1.1 0 0 0 .08 1.58s-1.87 1.76-.56 2.77l1.3 1s-.14.84 1.76 1.87 2.77.56 2.77.56a23.17 23.17 0 0 0 3.67-1.11c1.59-.68 6.42-4.54 7.26-4.39s10.25 1.5 14 1.36 6.64-3.81 6.64-3.81 32.45-.41 43.55-3.37 24.89-10.92 27.39-13.88-6.34-41.45-9.49-49.9-8.1-17.54-9.51-18.91" style="fill:#263238;stroke:#263238;stroke-linecap:round;stroke-linejoin:round"/><path d="M204.66 273.68s-.86.46-2.77-.56-1.76-1.87-1.76-1.87l-1.3-1c-1.31-1 .56-2.77.56-2.77a1.1 1.1 0 0 1-.08-1.58c.75-.82 15.54-10.09 17.23-9.8s23.24.17 23.24.17l37.78-17.82-8.72-19.4 31-13.38c3.82 14.05 9.4 40.39 7.34 42.81-2.5 3-16.29 10.92-27.39 13.88s-43.55 3.37-43.55 3.37-2.89 3.67-6.64 3.81-13.17-1.22-14-1.36-5.67 3.71-7.27 4.39a22.88 22.88 0 0 1-3.67 1.11Z" style="fill:#fff;stroke:#263238;stroke-linecap:round;stroke-linejoin:round"/><path d="m199.39 267.48 11.78-6.43m-10.68 9.84 11.06-7.39m-8.25 10.14a1.11 1.11 0 0 1 .58-1.5c1-.46 9.11-6.28 9.11-6.28" style="fill:none;stroke:#263238;stroke-linecap:round;stroke-linejoin:round"/><path d="m237.19 164.17 4.81 3.68s-8.77 17-4.81 17.83 17.55-17.26 22.64-23.21 7.58-5.68 7.58-5.68-6.16-7-8.43-12.43-3.39-8.77-3.39-8.77Z" style="fill:#fff;stroke:#263238;stroke-linecap:round;stroke-linejoin:round"/><path d="M220.94 120.15s-.48 22.33.15 26.27 6.08 14.88 8.15 17.24 10.54 2.7 13.62.86 10.92-11.85 12.31-15.79a27.41 27.41 0 0 0 1.53-7.32s4.92 1.24 7.7-4.6 0-10.46-3.66-10.21l-3.13 1.51s4.29-11.13 1.59-15.42-26.65-2.15-31.58-1.37-6.68 8.83-6.68 8.83Z" style="fill:#fff;stroke:#263238;stroke-linecap:round;stroke-linejoin:round"/><path d="M238.72 133s3.35-2.51 6.69-.56m-22.86-1.12s4.18-1.11 5 2" style="fill:none;stroke:#263238;stroke-linecap:round;stroke-linejoin:round"/><path d="M226.24 132.66a1.46 1.46 0 1 1-1.46-1.46 1.47 1.47 0 0 1 1.46 1.46Zm16.64.85a1.46 1.46 0 1 1-1.46-1.46 1.46 1.46 0 0 1 1.46 1.46Z" style="fill:#263238"/><path d="m241.22 121.37 5.62 1.49a1.44 1.44 0 0 1 1 1.89l-.14.38a1.46 1.46 0 0 1-1.83.88l-5.47-1.87a1.44 1.44 0 0 1-.89-1.87h0a1.44 1.44 0 0 1 1.71-.9Zm-12.42.63v.09a1.17 1.17 0 0 1-.63 1.57l-3.9 1.56a1.18 1.18 0 0 1-1.6-.91h0a1.18 1.18 0 0 1 .7-1.26l3.86-1.65a1.18 1.18 0 0 1 1.57.6Z" style="fill:#263238;stroke:#263238;stroke-linecap:round;stroke-linejoin:round"/><path d="M242.77 143.16s-2.4 5.21-9.28 4.77" style="fill:none;stroke:#263238;stroke-linecap:round;stroke-linejoin:round"/><path d="M229.82 127.7s-.91 13.55-1 14.65 2.87 4.16 5.13 1.82a7.62 7.62 0 0 0 2.38-4.33" style="fill:#fff;stroke:#263238;stroke-linecap:round;stroke-linejoin:round"/><path d="M229.66 127.32a7.6 7.6 0 1 0-6 12.3 6.35 6.35 0 0 0 5.46-2.56Z" style="fill:none;stroke:#263238;stroke-linecap:round;stroke-linejoin:round"/><circle cx="242.04" cy="132.02" r="7.6" style="fill:none;stroke:#263238;stroke-linecap:round;stroke-linejoin:round"/><path d="m249.67 130.5 11.83-3.67m-45.33 4.34 4.5-.84m8.99-1.33a4.4 4.4 0 0 1 4.87.34" style="fill:none;stroke:#263238;stroke-linecap:round;stroke-linejoin:round"/><path d="M258.46 99.66s9.92 7.18 7.79 14.94-8.2 22.55-8.2 22.55l-1.65.26-.56-5.64s-5.58-1.13-5.33-5.89a20.57 20.57 0 0 1 2.08-8.09S247.69 123 241 123s-10.95-7.36-12.83-4.36-5.24 5.22-12.72 2.71-19.52-18.8-12.75-24.94 20.19 1.83 24.29 2.19 6-6.69 15.31-5.48a37.35 37.35 0 0 1 16.16 6.54Z" style="fill:#263238;stroke:#263238;stroke-linecap:round;stroke-linejoin:round"/><path d="M74.28 265.76H288.4v196.55H74.28z" style="fill:#fff;stroke:#263238;stroke-linecap:round;stroke-linejoin:round"/><path d="M74.28 265.76H288.4v13.23H74.28z" style="fill:#263238;stroke:#263238;stroke-linecap:round;stroke-linejoin:round"/><path d="M220.65 265.76h67.75v196.55h-67.75z" style="fill:none;stroke:#263238;stroke-linecap:round;stroke-linejoin:round"/><path d="M65.08 265.76H297.6v7.53H65.08z" style="fill:#fff;stroke:#263238;stroke-linecap:round;stroke-linejoin:round"/><path d="M212.28 265.76h85.31v7.53h-85.31z" style="fill:#fff;stroke:#263238;stroke-linecap:round;stroke-linejoin:round"/><path d="M336.76 180s-.19-5.1-2.35-8.63-10-6.08-14.11-4.31a54.82 54.82 0 0 0-6.08 2.94 46.11 46.11 0 0 1 11.57 5.49 29.11 29.11 0 0 0 10.97 4.51Zm8.24 2.57s-4.71-4.51-5.49-10.79 5.88-16.07 5.88-16.07a69.86 69.86 0 0 1 5.29 13.13c1.97 7.06-5.68 13.73-5.68 13.73Zm9-1.96s-1.18-5.88 1-10 7.84-3.73 13.53-2 7.45 1.76 7.45 1.76a84.52 84.52 0 0 1-12.36 6.86 75.6 75.6 0 0 1-9.62 3.38Z" style="fill:#92e3a9;stroke:#263238;stroke-linecap:round;stroke-linejoin:round"/><path d="M345.05 201.74a.51.51 0 0 1-.51-.51v-28a.51.51 0 0 1 1 0v28a.51.51 0 0 1-.49.51Zm2.36 0h-.08a.51.51 0 0 1-.43-.57c.1-.7 2.47-17.31 10.51-26.54a.51.51 0 1 1 .77.67c-7.85 9-10.25 25.84-10.27 26a.52.52 0 0 1-.5.44Zm-4.71-.4a.5.5 0 0 1-.5-.51c0-.16.08-16.12-9.42-23.71a.51.51 0 0 1 .64-.8c9.88 7.91 9.8 23.85 9.8 24.52a.51.51 0 0 1-.52.5Zm7.84-.19h-.13a.51.51 0 0 1-.36-.62 32.69 32.69 0 0 1 4.59-9.58.51.51 0 0 1 .71-.11.52.52 0 0 1 .11.71 32 32 0 0 0-4.43 9.24.51.51 0 0 1-.49.36Z" style="fill:#263238"/><path d="M353.63 193.35s-.2-5.49 2.15-6.27 4.51 1.17 6.28 2.35 3.72 2.35 3.72 5.88a66.19 66.19 0 0 1-1.37 10s-2-6.08-5.29-8.82-5.49-3.14-5.49-3.14Z" style="fill:#92e3a9;stroke:#263238;stroke-linecap:round;stroke-linejoin:round"/><path d="M339.17 201.34a.48.48 0 0 1-.48-.35 18 18 0 0 0-5.13-7.6.51.51 0 0 1 .63-.79 18.68 18.68 0 0 1 5.46 8.08.5.5 0 0 1-.33.64.39.39 0 0 1-.15.02Z" style="fill:#263238"/><path d="M336.76 195.12s.79-3.53-1.17-6.08-6.67-2-9 .78-5.69 11-5.69 11 4.71-3.72 10.2-3.72 5.66-1.98 5.66-1.98Z" style="fill:#92e3a9;stroke:#263238;stroke-linecap:round;stroke-linejoin:round"/><path d="M352.39 231.4h-15.65l-7.82-25.88h31.29l-7.82 25.88zm-23.56-30.17h31.47v4.29h-31.47z" style="fill:#fff;stroke:#263238;stroke-linecap:round;stroke-linejoin:round"/><path d="M382.51 231.18h38.14v77.06h-38.14z" style="fill:#263238;stroke:#263238;stroke-linecap:round;stroke-linejoin:round"/><path d="M273.22 231.18h113.74v77.06H273.22z" style="fill:#fff;stroke:#263238;stroke-linecap:round;stroke-linejoin:round"/><path d="M279.09 236.47h102.12v65.96H279.09z" style="fill:#e5e5e5;stroke:#263238;stroke-linecap:round;stroke-linejoin:round"/><path d="M329.37 236.47h51.84v65.96h-51.84z" style="fill:#e5e5e5;stroke:#263238;stroke-linecap:round;stroke-linejoin:round"/><path d="M279.09 267.26h102.12v4.37H279.09z" style="fill:#fff;stroke:#263238;stroke-linecap:round;stroke-linejoin:round"/><path d="M408.87 308.17h38.14v77.06h-38.14zm-172.62 33.59 12.38 43.12h-23.9l11.52-43.12z" style="fill:#263238;stroke:#263238;stroke-linecap:round;stroke-linejoin:round"/><path d="m237.2 337.21-1.58-1.42-40.97 49.09h33.73l8.82-47.67z" style="fill:#fff;stroke:#263238;stroke-linecap:round;stroke-linejoin:round"/><path d="M235.62 335.79h-33.73l-8.92 49.09h33.72l8.93-49.09z" style="fill:#92e3a9;stroke:#263238;stroke-linecap:round;stroke-linejoin:round"/><path d="M206.04 345.38h21.58m-22.97 5.57h21.57m-22.96 5.57h21.57" style="fill:none;stroke:#263238;stroke-linecap:round;stroke-linejoin:round"/><path d="M241.96 308.17h171.35v77.06H241.96z" style="fill:#fff;stroke:#263238;stroke-linecap:round;stroke-linejoin:round"/><path d="M247.84 313.46h159.74v65.96H247.84z" style="fill:#e5e5e5;stroke:#263238;stroke-linecap:round;stroke-linejoin:round"/><path d="M286.15 313.46h121.43v65.96H286.15z" style="fill:#fff;stroke:#263238;stroke-linecap:round;stroke-linejoin:round"/><path d="M291.88 313.46h115.69v65.96H291.88z" style="fill:#e5e5e5;stroke:#263238;stroke-linecap:round;stroke-linejoin:round"/><path d="M332.71 313.46h74.87v65.96h-74.87z" style="fill:#e5e5e5;stroke:#263238;stroke-linecap:round;stroke-linejoin:round"/><path d="M362.01 313.46h45.56v65.96h-45.56z" style="fill:#fff;stroke:#263238;stroke-linecap:round;stroke-linejoin:round"/><path d="M367.75 313.46h39.83v65.96h-39.83z" style="fill:#e5e5e5;stroke:#263238;stroke-linecap:round;stroke-linejoin:round"/><path d="M437.55 384.94h38.14V462h-38.14z" style="fill:#263238;stroke:#263238;stroke-linecap:round;stroke-linejoin:round"/><path d="M185.69 384.94h256.3V462h-256.3z" style="fill:#fff;stroke:#263238;stroke-linecap:round;stroke-linejoin:round"/><path d="M191.57 390.23h244.69v65.96H191.57z" style="fill:#e5e5e5;stroke:#263238;stroke-linecap:round;stroke-linejoin:round"/><path d="M260.24 390.23h176.02v65.96H260.24z" style="fill:#e5e5e5;stroke:#263238;stroke-linecap:round;stroke-linejoin:round"/><path d="M280.68 390.23h155.58v65.96H280.68z" style="fill:#fff;stroke:#263238;stroke-linecap:round;stroke-linejoin:round"/><path d="M286.41 390.23h149.85v65.96H286.41z" style="fill:#e5e5e5;stroke:#263238;stroke-linecap:round;stroke-linejoin:round"/><path d="M324.4 390.23h111.86v65.96H324.4z" style="fill:#e5e5e5;stroke:#263238;stroke-linecap:round;stroke-linejoin:round"/><path d="M358.82 390.23h77.43v65.96h-77.43z" style="fill:#fff;stroke:#263238;stroke-linecap:round;stroke-linejoin:round"/><path d="M365.28 390.23h70.98v65.96h-70.98z" style="fill:#e5e5e5;stroke:#263238;stroke-linecap:round;stroke-linejoin:round"/><path d="M402.87 390.23h33.39v65.96h-33.39z" style="fill:#e5e5e5;stroke:#263238;stroke-linecap:round;stroke-linejoin:round"/><path d="m433.19 264.71 12.38 43.11h-23.9l11.52-43.11z" style="fill:#787878;stroke:#263238;stroke-linecap:round;stroke-linejoin:round"/><path d="m434.14 260.16-1.58-1.43-40.97 49.09h33.73l8.82-47.66z" style="fill:#fff;stroke:#263238;stroke-linecap:round;stroke-linejoin:round"/><path d="M432.56 258.73h-33.73l-8.93 49.09h33.73l8.93-49.09z" style="fill:#92e3a9;stroke:#263238;stroke-linecap:round;stroke-linejoin:round"/><path d="M403.31 266.41h21.57m-22.96 5.56h21.57m-22.96 5.57h21.57" style="fill:none;stroke:#263238;stroke-linecap:round;stroke-linejoin:round"/><path d="m341.43 335.68 12.38 43.12h-23.9l11.52-43.12z" style="fill:#263238;stroke:#263238;stroke-linecap:round;stroke-linejoin:round"/><path d="m342.38 331.13-1.58-1.43-40.97 49.1h33.73l8.82-47.67z" style="fill:#fff;stroke:#263238;stroke-linecap:round;stroke-linejoin:round"/><path d="M340.8 329.7h-33.73l-8.93 49.1h33.73l8.93-49.1z" style="fill:#92e3a9;stroke:#263238;stroke-linecap:round;stroke-linejoin:round"/><path d="m311.16 357.59.1-.09.45.57 5.27-4.39-1.06-1.33-5.13 4.26-.55-1.48-1 1.26-3.15-3.95-1.61 1.33 3.44 4.32-2 2.56-3.41 2.84 1.06 1.33 1.75-1.44-1.49 7.31h6.48l1.52-7.52 1.36 1.71 1.61-1.34-2.68-3.37Zm1.71 4.93.43-.36.53.66-.44.36Zm.28.87-.44.36-.52-.66.43-.36Zm-.45-1.07-.52-.66.44-.36.52.66Zm-6.7-1.39h.73l-.44.36h-.23l-.2-.25Zm1.11 0 .27.34h-.68Zm-1.38.44-.09.44-.52.44-.29-.36.79-.66Zm-.17.85-.1.46-.18-.23Zm-.69.23-.79.66-.29-.36.79-.66Zm.16.21.29.36-.79.66-.29-.37Zm2.61-1.57-.14-.18h.36Zm3.29-.18-.28.23-.19-.23Zm.32.08.23.28h-.58Zm1 .28h-.33l-.29-.36h.72l.13.17Zm-.71-4 .8-.66.29.36-.8.67Zm3.12-2.59.79-.66.29.36-.79.66Zm0 .56-.79.66-.29-.36.8-.66Zm-.2-.77-.29-.36.79-.66.29.37Zm-.25.21-.79.66-.29-.37.79-.65Zm-1 .86-.8.66-.28-.36.79-.66Zm.16.2.29.37-.79.65-.29-.36Zm2.63-1.54-.29-.36.62-.52.29.36Zm.16-1.08-.61.51-.29-.36.62-.51Zm-4.26 2.94.29.36-.8.67-.29-.36Zm-.76 1.23-.06-.16Zm-2.41-.18-.48-.6.44-.36.4.5Zm-2-2.53-.53-.66.44-.36.52.66Zm.59-.16.53.66-.44.36-.52-.65Zm-.84.37-.44.36-.52-.66.44-.36Zm.16.2.53.66-.44.36-.52-.66Zm.69.86.52.66-.43.36-.53-.66Zm.25-.2.43-.36.53.65-.44.37Zm-1.11-2.29-.43.36-.41-.51.43-.37Zm-1.09.05.41.51-.43.37-.41-.52Zm2.73 4.34-.53-.67.44-.36.52.65-.05.06Zm-4.57 5.25.29.36-.62.52-.28-.36Zm-.16 1.08.62-.51.28.36-.61.52Zm4.45-2.76.44-.36h1.78l.29.36Zm4.24.75.39.48-.44.37-.09-.13Zm.8 1.91.44-.36.41.52-.44.36Zm1.09-.05-.41-.51.45-.42.41.52Zm13.87-11.01.14-.12.62.77 7.15-5.95-1.45-1.81-7 5.78-.76-2-1.33 1.72-4.2-5.38-2.18 1.81 4.66 5.86-2.71 3.48-4.63 3.84 1.45 1.81 2.36-2-2 9.92h8.78l2.07-10.2 1.84 2.31 2.18-1.81-3.63-4.57Zm2.32 6.69.59-.49.71.9-.59.49Zm.38 1.17-.59.49-.71-.89.59-.49Zm-.6-1.44-.71-.9.59-.49.71.9Zm-9.09-1.89h1l-.59.49h-.31l-.27-.33Zm1.5 0 .37.46h-.93Zm-1.87.59-.12.61-.71.59-.39-.49 1.07-.9Zm-.24 1.16-.12.63-.25-.32Zm-.93.31-1.07.9-.39-.5 1.07-.89Zm.23.28.39.49-1.08.89-.39-.49Zm3.53-2.12-.19-.25h.49Zm4.46-.25-.38.32-.25-.32Zm.43.1.32.39h-.79Zm1.32.39h-.45l-.39-.49h1l.18.23Zm-1-5.42 1.09-.91.39.49-1.09.91Zm4.23-3.52 1.08-.89.39.49-1.07.89Zm.06.77-1.07.89-.39-.49 1.07-.89Zm-.28-1-.39-.49 1.07-.89.4.49Zm-.28.26-1.07.89-.39-.49 1.07-.89Zm-1.41 1.17-1.07.89-.39-.49 1.07-.89Zm.22.27.4.5-1.08.89-.39-.49Zm3.54-2.12-.39-.49.84-.7.39.49Zm.23-1.47-.84.7-.39-.49.84-.7Zm-5.78 4 .39.49-1.09.9-.39-.49Zm-1 1.67h-.05l-.08-.21Zm-3.26-.25-.65-.81.59-.49.54.68Zm-2.74-3.43-.8-.84.59-.49.71.89Zm.82-.21.71.89-.59.49-.72-.89Zm-1.15.49-.59.49-.71-.89.59-.49Zm.22.28.71.89-.59.49-.71-.89Zm.93 1.16.71.9-.59.49-.71-.89Zm.34-.27.59-.49.71.89-.59.49Zm-1.5-3.11-.59.49-.55-.69.59-.5Zm-1.48.07.56.7-.59.49-.56-.7Zm3.71 5.88-.73-.91.59-.49.71.89-.07.09Zm-6.13 7.09.39.49-.84.7-.39-.49Zm-.23 1.47.84-.7.39.49-.84.7Zm6-3.75.59-.49h2.43l.39.49Zm5.75 1 .53.65-.59.5-.14-.17Zm1.09 2.59.59-.49.56.7-.59.49Zm1.48-.07-.56-.7.59-.49.56.7Zm5.79-19.56c-.06-.74-1.07-1.34-2.39-1.44a3.4 3.4 0 0 0 .08-.63c0-2.23-2.16-4-4.83-4a4.65 4.65 0 0 0-4.74 3.34 4.38 4.38 0 0 0-.51 0 2.73 2.73 0 0 0-2.83 2 2.68 2.68 0 0 0-3.53 0 4.62 4.62 0 0 0-1.4-.2c-1.14 0-2.07.33-2.07.74a.36.36 0 0 0 .13.24Zm-19.77 3.3c0-.33-.47-.59-1.05-.64a2.48 2.48 0 0 0 0-.27 2 2 0 0 0-2.12-1.78 2.05 2.05 0 0 0-2.09 1.47h-.22a1.21 1.21 0 0 0-1.25.88 1.17 1.17 0 0 0-1.55 0 2.17 2.17 0 0 0-.62-.08c-.5 0-.91.14-.91.32a.15.15 0 0 0 .06.11Z" style="fill:#fff"/><path d="m338.9 412.74 12.38 43.12h-23.91l11.53-43.12z" style="fill:#263238;stroke:#263238;stroke-linecap:round;stroke-linejoin:round"/><path d="m339.84 408.19-1.58-1.43-40.97 49.1h33.73l8.82-47.67z" style="fill:#fff;stroke:#263238;stroke-linecap:round;stroke-linejoin:round"/><path d="M338.26 406.76h-33.72l-8.93 49.1h33.73l8.92-49.1z" style="fill:#fff;stroke:#263238;stroke-linecap:round;stroke-linejoin:round"/><path d="M329.89 419.35h-22.84L301 452.6h22.85l6.04-33.25zm-21.19-7.37-.94 5.14h22.85l.93-5.14H308.7z" style="fill:#92e3a9"/><path d="m265.39 412.74 12.38 43.12h-23.91l11.53-43.12z" style="fill:#263238;stroke:#263238;stroke-linecap:round;stroke-linejoin:round"/><path d="m266.33 408.19-1.58-1.43-40.97 49.1h33.73l8.82-47.67z" style="fill:#fff;stroke:#263238;stroke-linecap:round;stroke-linejoin:round"/><path d="M264.75 406.76h-33.72l-8.93 49.1h33.73l8.92-49.1z" style="fill:#fff;stroke:#263238;stroke-linecap:round;stroke-linejoin:round"/><path d="M252.31 424.38a11.32 11.32 0 0 1-5.4 6.8c-4.4 2.4-11.2-1-16.61 3.81s-5.6 15 5.81 16.2 13.8-7.4 13.8-7.4 5.21 1 5-.6-3.61-2.8-3.61-2.8a18.63 18.63 0 0 0 2.61-8.21c.13-4.3 0-7.2 0-7.2s2.8.6 3.8 0 3-6.2 3-6.2-3.4 2.4-5 2.4-5.81-3.4-5.81-3.4-.79 6.6 2.41 6.6Zm-19.32-12.74-.93 5.14h22.84l.94-5.14h-22.85z" style="fill:#92e3a9"/><path d="m231.64 419.08-.93 5.13h13.72l.93-5.13h-13.72z" style="fill:#92e3a9"/><path d="m414.94 412.74 12.38 43.12h-23.9l11.52-43.12z" style="fill:#263238;stroke:#263238;stroke-linecap:round;stroke-linejoin:round"/><path d="m415.89 408.19-1.58-1.43-40.97 49.1h33.72l8.83-47.67z" style="fill:#fff;stroke:#263238;stroke-linecap:round;stroke-linejoin:round"/><path d="M414.31 406.76h-33.73l-8.93 49.1h33.73l8.93-49.1z" style="fill:#92e3a9;stroke:#263238;stroke-linecap:round;stroke-linejoin:round"/><path d="M389.5 421.13a4.31 4.31 0 1 1-4.29-3.89 4.1 4.1 0 0 1 4.29 3.89Zm9.2 7.15a4.32 4.32 0 1 1-4.29-3.88 4.1 4.1 0 0 1 4.29 3.88Zm6.3-5.89a3.59 3.59 0 1 1-3.58-3.24 3.42 3.42 0 0 1 3.58 3.24Z" style="fill:#fff"/><ellipse cx="385.93" cy="440.28" rx="8.07" ry="7.3" style="fill:#fff"/><path d="M249.77 327.99h4.63v51.5h-4.63z" style="fill:#92e3a9;stroke:#263238;stroke-linecap:round;stroke-linejoin:round"/><path d="M253.16 327.99h25.29v51.5h-25.29z" style="fill:#92e3a9;stroke:#263238;stroke-linecap:round;stroke-linejoin:round"/><path d="M255.01 327.99h4.63v51.5h-4.63z" style="fill:#fff;stroke:#263238;stroke-linecap:round;stroke-linejoin:round"/><path d="M258.41 327.99h25.29v51.5h-25.29z" style="fill:#fff;stroke:#263238;stroke-linecap:round;stroke-linejoin:round"/><path d="M260.26 327.99h4.63v51.5h-4.63z" style="fill:#fff;stroke:#263238;stroke-linecap:round;stroke-linejoin:round"/><path d="M263.65 327.99h22.2v51.5h-22.2z" style="fill:#fff;stroke:#263238;stroke-linecap:round;stroke-linejoin:round"/><path d="M265.5 327.99h4.63v51.5h-4.63z" style="fill:#92e3a9;stroke:#263238;stroke-linecap:round;stroke-linejoin:round"/><path d="M268.89 327.99h17.27v51.5h-17.27z" style="fill:#92e3a9;stroke:#263238;stroke-linecap:round;stroke-linejoin:round"/><path d="M368.5 327.99h4.63v51.5h-4.63z" style="fill:#fff;stroke:#263238;stroke-linecap:round;stroke-linejoin:round"/><path d="M371.9 327.99h25.29v51.5H371.9z" style="fill:#fff;stroke:#263238;stroke-linecap:round;stroke-linejoin:round"/><path d="M373.75 327.99h4.63v51.5h-4.63z" style="fill:#92e3a9;stroke:#263238;stroke-linecap:round;stroke-linejoin:round"/><path d="M377.14 327.99h25.29v51.5h-25.29z" style="fill:#92e3a9;stroke:#263238;stroke-linecap:round;stroke-linejoin:round"/><path d="M378.99 327.99h4.63v51.5h-4.63z" style="fill:#92e3a9;stroke:#263238;stroke-linecap:round;stroke-linejoin:round"/><path d="M382.38 327.99h22.2v51.5h-22.2z" style="fill:#92e3a9;stroke:#263238;stroke-linecap:round;stroke-linejoin:round"/><path d="M384.23 327.99h4.63v51.5h-4.63z" style="fill:#fff;stroke:#263238;stroke-linecap:round;stroke-linejoin:round"/><path d="M387.63 327.99h20.05v51.5h-20.05zm-101.31-51.46h16.65v25.73h-16.65z" style="fill:#fff;stroke:#263238;stroke-linecap:round;stroke-linejoin:round"/><path d="M282.77 276.53h16.65v25.73h-16.65zm26.66 15.51h34.81v10.22h-34.81z" style="fill:#fff;stroke:#263238;stroke-linecap:round;stroke-linejoin:round"/><path d="M308.19 288.14h36.06v7.19h-36.06z" style="fill:#263238;stroke:#263238;stroke-linecap:round;stroke-linejoin:round"/><path d="M344.38 292.04h21.19v10.22h-21.19z" style="fill:#fff;stroke:#263238;stroke-linecap:round;stroke-linejoin:round"/><path d="M344.38 288.14h22.98v7.19h-22.98zm-59.05-24.8h59.96v3.93h-59.96z" style="fill:#263238;stroke:#263238;stroke-linecap:round;stroke-linejoin:round"/><path d="M321.88 263.34h25.9v3.93h-25.9zm-36.55-4.01h59.96v3.93h-59.96z" style="fill:#fff;stroke:#263238;stroke-linecap:round;stroke-linejoin:round"/><path d="M321.88 259.33h25.9v3.93h-25.9z" style="fill:#fff;stroke:#263238;stroke-linecap:round;stroke-linejoin:round"/><path d="M285.33 255.31h59.96v3.93h-59.96z" style="fill:#92e3a9;stroke:#263238;stroke-linecap:round;stroke-linejoin:round"/><path d="M321.88 255.31h25.9v3.93h-25.9zm-36.55-4.01h59.96v3.93h-59.96z" style="fill:#fff;stroke:#263238;stroke-linecap:round;stroke-linejoin:round"/><path d="M321.88 251.3h25.9v3.93h-25.9z" style="fill:#fff;stroke:#263238;stroke-linecap:round;stroke-linejoin:round"/><path d="M285.33 247.28h59.96v3.93h-59.96z" style="fill:#92e3a9;stroke:#263238;stroke-linecap:round;stroke-linejoin:round"/><path d="M321.88 247.28h25.9v3.93h-25.9z" style="fill:#fff;stroke:#263238;stroke-linecap:round;stroke-linejoin:round"/><path d="M56.76 349.28s2.93 14.89 2.93 20.47S56 385.43 56 397.4s3.42 43.6 3.42 43.6l12.76.53s3.72-38.81 7.71-47.85 5.58-27.92 5.58-33.24A46.58 46.58 0 0 1 87.33 349Z" style="fill:#263238;stroke:#263238;stroke-linecap:round;stroke-linejoin:round"/><path d="M53.57 431.16h21.27l-.27 16.49s12.23 7.71 15.16 8.77 4.52 3.46 4.25 4.25-1.59 1.33-1.59 1.33H55.7a14.65 14.65 0 0 1-.8-6.64 33.4 33.4 0 0 1 1.86-6.36Z" style="fill:#92e3a9;stroke:#263238;stroke-linecap:round;stroke-linejoin:round"/><path d="M63.61 349.28s2.92 14.89 2.92 20.47-3.72 15.68-3.72 27.65 3.46 43.6 3.46 43.6l12.76.53s3.72-38.81 7.71-47.85 5.58-27.92 5.58-33.24A46.58 46.58 0 0 1 94.18 349Z" style="fill:#263238;stroke:#263238;stroke-linecap:round;stroke-linejoin:round"/><path d="M94.52 227.51s8.24 54.51 11.17 64.61S120 346.35 120 346.35a99 99 0 0 1-32.7 8c-18.87 1.33-43.33-.27-50.51-3.46s-12.23-5.31-12.23-5.31l7.71-39.35s16.75-47.06 16.75-57.69S48 227 54.11 219s13.29-11.7 18.34-10.11 22.07 18.62 22.07 18.62Z" style="fill:#ababab"/><path d="M111 311.82c-.08-.32-.17-.64-.25-1-1.77.44-3.53.86-5.27 1.23l2.39-4.92 2.78 3.3c-.21-.77-.41-1.53-.61-2.27l-1.57-1.88c.33-.07.67-.16 1-.25-.09-.32-.17-.64-.26-1-34.68 8.37-62.24 3.59-76.4-.38-.33.95-.52 1.48-.52 1.48l-.13.66 2.2 4.4c-1-.27-2-.55-2.9-.81l-.19 1A142.58 142.58 0 0 0 71 316.86a163.91 163.91 0 0 0 40-5.04Zm-4-5.16-2.45 5-4.15-3.7q3.28-.55 6.6-1.3Zm-3.14 5.78c-3 .62-5.93 1.14-8.81 1.58l4.68-5.26Zm-5.07-4.13-4.8 5.4-3.19-4.2q3.94-.51 8.01-1.2Zm-5.61 6c-3.31.46-6.52.81-9.65 1.06L90 310Zm-4.48-4.55-6.21 5.18-5.31-4.31c3.72-.15 7.57-.44 11.54-.88Zm-56-4c2.33.65 5 1.32 8 1.95l-5.35 3.4Zm3.5 6 4.76-3 3.53 4.81c-3.01-.57-5.78-1.21-8.25-1.82Zm5.37-3.89c3 .61 6.34 1.18 10 1.65l-5.85 3.95Zm5.21 6.06 5.35-3.61 4.92 4.92c-3.64-.35-7.05-.8-10.23-1.32Zm6.22-4.25c3 .36 6.17.64 9.52.83L58 314.7Zm5.77 5.69 4.45-4.14 5.41 4.61c-3.49-.05-6.78-.22-9.9-.47Zm5.23-4.79c2.28.1 4.63.17 7.06.17 1.14 0 2.3 0 3.48-.05l-5.24 4.4Zm11.93.27 5.74 4.65c-4.08.28-8 .38-11.72.36Zm41.23 24.4c-.15-.58-.31-1.17-.46-1.77l-2.82-3.43 1.79-.51c-.09-.32-.17-.64-.25-1-.81.22-1.62.46-2.42.67a.38.38 0 0 0-.15 0 .83.83 0 0 0-.16.09c-40.92 10.78-72.45 3.08-84.71-1l-.2 1c1.15.38 2.45.79 3.92 1.21l-4.7 3.6h-.13l-.2 1a.48.48 0 0 0 .47.11c7.56 2.57 23 6.73 43.9 6.73a165.3 165.3 0 0 0 46.12-6.7Zm-3.94-4.42 3 3.64c-1.38.4-2.76.78-4.12 1.13Zm-.94-.36-1 4.26-2.8-3.32c1.26-.3 2.52-.61 3.8-.94Zm-1.34 5.42c-1.83.47-3.65.89-5.45 1.29l2.39-4.93Zm-3.94-4.15-2.45 5.06-4.15-3.7c2.19-.4 4.39-.86 6.6-1.36Zm-3.14 5.78c-3 .62-5.93 1.15-8.81 1.58l4.68-5.26Zm-5.07-4.13-4.8 5.4-3.19-4.2q3.94-.49 8.01-1.2Zm-5.61 6c-3.31.46-6.52.81-9.65 1.06L90 335.1Zm-4.48-4.55L82.51 340l-5.31-4.3c3.7-.14 7.55-.43 11.52-.87Zm-60.6-.33 3.9-2.95 2.39 4.79c-2.45-.64-4.54-1.28-6.27-1.85Zm4.62-3.67c2.33.64 5 1.31 8 1.94l-5.35 3.4Zm3.5 6 4.76-3 3.53 4.81c-3.03-.6-5.8-1.2-8.27-1.82Zm5.37-3.89c3 .62 6.34 1.18 10 1.65l-5.85 4Zm5.23 6.05 5.35-3.61 4.92 4.92c-3.68-.31-7.09-.79-10.27-1.31Zm6.18-4.24c3 .36 6.17.65 9.52.83L58 339.78Zm5.77 5.69 4.45-4.14 5.41 4.62c-3.49-.06-6.78-.23-9.9-.48Zm5.23-4.79q3.42.16 7.06.17h3.48l-5.24 4.39Zm11.93.27 5.74 4.65c-4.08.28-8 .38-11.72.36Zm43.4 7.67-.25-1c-38.61 13.5-82.13 3.36-93.93.14l-.2 1a200 200 0 0 0 50.26 6.7c14.08.01 29.45-1.73 44.12-6.84Z" style="fill:#fff"/><path d="m25.69 340-.19 1a200.15 200.15 0 0 0 49.71 6.55c13.86 0 29-1.69 43.42-6.61-.08-.31-.16-.64-.25-1-37.86 12.95-80.22 3.4-92.69.06ZM114 323.2c-.09-.32-.17-.64-.25-1-33.88 11.3-73 3.88-84.82 1.17l-.19 1a202.93 202.93 0 0 0 43.54 4.92c13.33.02 27.96-1.5 41.72-6.09Z" style="fill:#fff"/><path d="M113.47 321.15c-.08-.32-.17-.64-.25-1-33.37 10.93-71.62 3.86-83.86 1.09l-.19 1a203 203 0 0 0 43.12 4.83c13.15.02 27.57-1.47 41.18-5.92Z" style="fill:#fff"/><path d="M94.52 227.51s8.24 54.51 11.17 64.61S120 346.35 120 346.35a99 99 0 0 1-32.7 8c-18.87 1.33-43.33-.27-50.51-3.46s-12.23-5.31-12.23-5.31l7.71-39.35s16.75-47.06 16.75-57.69S48 227 54.11 219s13.29-11.7 18.34-10.11 22.07 18.62 22.07 18.62Z" style="fill:none;stroke:#263238;stroke-linecap:round;stroke-linejoin:round"/><path d="M60.42 431.16h21.27l-.27 16.49s12.23 7.71 15.16 8.77 4.52 3.46 4.25 4.25-1.59 1.33-1.59 1.33H62.55a14.65 14.65 0 0 1-.8-6.64 33.4 33.4 0 0 1 1.86-6.36Z" style="fill:#92e3a9;stroke:#263238;stroke-linecap:round;stroke-linejoin:round"/><path d="M64.48 204.12s-14.62 10.37-18.08 21.8-4.52 32.7-5.32 37.49-13.29 48.91-13.29 48.91 10.37 7.18 28.71 9 38.55-2.66 39.35-2.66-6.65-91.66-6.38-92.47-14.89-18.35-17.55-20.74-7.44-1.33-7.44-1.33Z" style="fill:#fff;stroke:#263238;stroke-linecap:round;stroke-linejoin:round"/><path d="M97.29 186.48s.36 9.89 2.19 13.19 1.47 6.59-3.29 5.49-11-11-11.72-16.85 9.89-8.79 12.82-1.83Z" style="fill:#263238;stroke:#263238;stroke-linecap:round;stroke-linejoin:round"/><path d="m89 217.16 8.57 72.09 15.58-1.83-18.27-70.58s-3.68-4.7-5.88.32Z" style="fill:#92e3a9;stroke:#263238;stroke-linecap:round;stroke-linejoin:round"/><path d="M97.47 155.74a54.69 54.69 0 0 1 2.94 6.49c.87 2.63.72 7.51 1 8.31s4.19 5.51 4.21 6.46-3.55 2.82-3.55 2.82-.94 6.51-1.62 9.26-.56 4.29-4.17 4.23-8.52-1.49-14.64-4.66-10.67-7.79-11.85-14.1S85 156 87.41 154.36s10.06 1.38 10.06 1.38Z" style="fill:#fff;stroke:#263238;stroke-linecap:round;stroke-linejoin:round"/><path d="M99.05 170.68c-.06 1.24-.52 2.23-1 2.21s-.88-1.06-.82-2.3.53-2.24 1-2.22.88 1.06.82 2.31Z" style="fill:#263238"/><path d="M94.74 167.65s1.79-4.58 4.58-3m1.79 17.52s-3.38 1.39-5.17-1.39" style="fill:none;stroke:#263238;stroke-linecap:round;stroke-linejoin:round"/><path d="M67.26 192.74s31.25 8.08 30.74 11.74-1.27 14.33-5.36 14.87-35.17-11.35-37.5-12.1 1.89-11.43 4.23-14.12 7.89-.39 7.89-.39Z" style="fill:#92e3a9;stroke:#263238;stroke-linecap:round;stroke-linejoin:round"/><path d="M83.68 164.61s3.48 23 7.58 32.25 8.34 11.8 6.78 13.6-10.56-4-10.56-4 7.68 10.92 2.58 13.89-18.06-3.41-20.81-5.75l-2.69-2.34s-.86 7-9.74 11.22-21.12-3.06-13.14-13 11.3-21.36 9.89-28.25 21.72-25.37 30.11-17.62Z" style="fill:#263238;stroke:#263238;stroke-linecap:round;stroke-linejoin:round"/><path d="M58.62 240.27c2 4.5 6.43 8.58 9.79 12.12 5.36 5.65 11.74 10 17.34 15.36 1 1 12.06 10.57 13.38 10 0 0 11-5 18.75-12.14s27-29.22 27-29.22c4.8-1.25 12.46-7.71 12.46-7.71l7.12-.94a.92.92 0 0 0-.19-1.82l-6.61.52 9-4.69a.89.89 0 0 0 .38-1.2.9.9 0 0 0-1-.44l-9.64 2.5 8.19-4.49a1 1 0 0 0-1-1.81l-9.4 4.7 4.66-4 1.56-1.95a.76.76 0 0 0-1-1.08l-1.86 1.38c-3.39 2.57-11.51 8.75-12.27 9.76-1 1.28-5.83 6.82-5.83 6.82s-8.27 6.61-19.3 14.33a128 128 0 0 1-16.29 10.09c-3.36-4.23-13.46-17.21-17.44-25.16a27.29 27.29 0 0 0-14.07-12.79" style="fill:#fff;stroke:#263238;stroke-linecap:round;stroke-linejoin:round"/><path d="m166 220.09-9.64 2.5 8.19-4.49a1 1 0 0 0-1-1.81l-9.4 4.7 4.66-4 1.56-1.95a.76.76 0 0 0-1-1.08l-1.86 1.38c-3.39 2.57-11.51 8.75-12.27 9.76-1 1.28-5.83 6.82-5.83 6.82s-8.27 6.61-19.3 14.33c-4.25 3-7.69 5.18-10.33 6.77l6.73 13.78c.47-.41.94-.82 1.4-1.25 7.72-7.16 27-29.22 27-29.22 4.8-1.25 12.46-7.71 12.46-7.71l7.12-.94a.92.92 0 0 0-.19-1.82l-6.61.52 9-4.69a.89.89 0 0 0 .38-1.2.9.9 0 0 0-1.07-.4Z" style="fill:#fff;stroke:#263238;stroke-linecap:round;stroke-linejoin:round"/><path d="M53.57 182.25s-6.75 1.06-10.4-2.89 2.07-8.92 7.92-19.11 9.64-19.81 21-22.21 25 6.91 28.06 9.4 3.11 4.75 1.64 5.36c0 0-36.07 14.34-47.88 31" style="fill:#92e3a9;stroke:#263238;stroke-linecap:round;stroke-linejoin:round"/><path d="m71.23 167.05-18 7.88" style="fill:none;stroke:#263238;stroke-linecap:round;stroke-linejoin:round"/><path d="M53.56 185.7S69 172.14 83.7 166.05s20.3-6.66 20.3-8.68-2.18-4.57-2.18-4.57-23.89 9-33.34 16.09S48 181.37 53.56 185.7Z" style="fill:#92e3a9;stroke:#263238;stroke-linecap:round;stroke-linejoin:round"/><path d="M22 462h466" style="fill:none;stroke:#263238;stroke-linecap:round;stroke-linejoin:round"/></svg>